<!-- icon666.com - MILLIONS OF FREE VECTOR ICONS --><svg id="Flat" viewBox="0 0 64 64" xmlns="http://www.w3.org/2000/svg"><path d="m13.4121 47a5.5 5.5 0 0 0 -5.4993 5.4114 5.5 5.5 0 0 0 5.4993 5.5886s44.5879-.0125 44.5879-.0277v-10.9446c0-.0153-44.5879-.0277-44.5879-.0277z" fill="#dedfdf"></path><ellipse cx="32" cy="31" fill="#aa6e3c" rx="16" ry="12"></ellipse><path d="m31.7753 6.0021a12.2612 12.2612 0 0 0 -11.7753 12.3958v4.6021a7.2359 7.2359 0 0 1 4 6.4721v5.2539a8.182 8.182 0 0 0 7.4675 8.2567 8.0007 8.0007 0 0 0 8.5325-7.9827v-5.5279a7.2359 7.2359 0 0 1 4-6.4721v-5a12 12 0 0 0 -12.2247-11.9979z" fill="#c68c47"></path><path d="m41.6141 11.6012a12.8423 12.8423 0 0 0 -9.6141 4.3988s.4265-9 6.8772-9c6.386 0 9.1228-3 9.1228-3s0 7.6012-6.3859 7.6012z" fill="#aa6e3c"></path><path d="m22.3859 11.6012a12.8423 12.8423 0 0 1 9.6141 4.3988s-.4265-9-6.8773-9c-6.3859 0-9.1227-3-9.1227-3s0 7.6012 6.3859 7.6012z" fill="#aa6e3c"></path><path d="m32 25c-.5527 0-1-3-1-3a1 1 0 0 1 2 0s-.4473 3-1 3z" fill="#ffdc32"></path><circle cx="38" cy="19" fill="#fff" r="4"></circle><circle cx="26" cy="19" fill="#fff" r="4"></circle><path d="m38 22a3 3 0 1 1 3-3 3.0033 3.0033 0 0 1 -3 3zm0-4a1 1 0 1 0 1 1 1.0009 1.0009 0 0 0 -1-1z" fill="#414141"></path><path d="m26 22a3 3 0 1 1 3-3 3.0033 3.0033 0 0 1 -3 3zm0-4a1 1 0 1 0 1 1 1.0009 1.0009 0 0 0 -1-1z" fill="#414141"></path><path d="m7 49h51v2h-51z" fill="#fff"></path><path d="m7 54h51v2h-51z" fill="#fff"></path><path d="m7.8227 52.5a5.5 5.5 0 0 1 5.5-5.5h44.6773a2 2 0 0 0 2-2 2 2 0 0 0 -2-2h-44.5a9.5 9.5 0 0 0 -9.5 9.5 9.5 9.5 0 0 0 9.5 9.5h44.5a2 2 0 0 0 2-2 2 2 0 0 0 -2-2h-44.6773a5.5 5.5 0 0 1 -5.5-5.5z" fill="#db3a3a"></path></svg>