<!-- icon666.com - MILLIONS OF FREE VECTOR ICONS --><svg id="Layer_3" viewBox="0 0 64 64" xmlns="http://www.w3.org/2000/svg" data-name="Layer 3"><circle cx="28" cy="28" fill="#2862be" r="26"></circle><circle cx="28" cy="28" fill="#e2e7f6" r="22"></circle><path d="m28 6a21.9 21.9 0 0 0 -10.631 2.738 22 22 0 0 0 24.262 36.524 22 22 0 0 0 -13.631-39.262z" fill="#f2f2f2"></path><path d="m40 51a11 11 0 1 1 11 11 11 11 0 0 1 -11-11" fill="#7bdf45"></path><path d="m51 40a10.953 10.953 0 0 0 -4.5.97 10.989 10.989 0 0 0 12 18.06 10.99 10.99 0 0 0 -7.5-19.03z" fill="#8ded56"></path><path d="m49 56a1 1 0 0 1 -.707-.293l-3-3 1.414-1.414 2.244 2.244 6.3-7.195 1.5 1.316-7 8a1 1 0 0 1 -.719.341z" fill="#fff"></path><path d="m34.931 30.069a6.992 6.992 0 0 0 -13.862 0 7 7 0 1 0 6.931 10.523 7 7 0 1 0 6.931-10.523z" fill="#686868"></path><ellipse cx="28" cy="15" fill="#686868" rx="4" ry="5"></ellipse><path d="m28 10c-.068 0-.131.021-.2.025a5.806 5.806 0 0 0 -.8 2.975c0 2.761 1.791 5 4 5 .068 0 .131-.021.2-.025a5.806 5.806 0 0 0 .8-2.975c0-2.761-1.791-5-4-5z" fill="#939393"></path><ellipse cx="15" cy="23" fill="#686868" rx="4" ry="5"></ellipse><path d="m15 18c-.068 0-.131.021-.2.025a5.806 5.806 0 0 0 -.8 2.975c0 2.761 1.791 5 4 5 .068 0 .131-.021.2-.025a5.806 5.806 0 0 0 .8-2.975c0-2.761-1.791-5-4-5z" fill="#939393"></path><ellipse cx="41" cy="23" fill="#686868" rx="4" ry="5"></ellipse><path d="m41 18c-.068 0-.131.021-.2.025a5.806 5.806 0 0 0 -.8 2.975c0 2.761 1.791 5 4 5 .068 0 .131-.021.2-.025a5.806 5.806 0 0 0 .8-2.975c0-2.761-1.791-5-4-5z" fill="#939393"></path><path d="m34.931 30.069a6.992 6.992 0 0 0 -13.862 0 6.953 6.953 0 0 0 -1.923.549 13.306 13.306 0 0 0 5.51 12.855 7.035 7.035 0 0 0 3.344-2.881 7 7 0 1 0 6.931-10.523z" fill="#939393"></path><path d="m52.609 39.121a27 27 0 1 0 -13.489 13.485 11.994 11.994 0 1 0 13.489-13.485zm-49.609-11.121a25 25 0 1 1 47.429 11.029 11.908 11.908 0 0 0 -2.463.375 22.747 22.747 0 0 0 3.034-11.404 23 23 0 1 0 -23 23 22.757 22.757 0 0 0 11.4-3.034 11.907 11.907 0 0 0 -.375 2.464 24.991 24.991 0 0 1 -36.025-22.43zm37.876 16.585a20.781 20.781 0 0 1 -12.876 4.415 21 21 0 1 1 21-21 20.781 20.781 0 0 1 -4.415 12.876 12.065 12.065 0 0 0 -3.709 3.709zm10.124 16.415a10 10 0 1 1 10-10 10.011 10.011 0 0 1 -10 10z"></path><path d="m48.951 53.537-2.244-2.244-1.414 1.414 3 3a1 1 0 0 0 .707.293h.033a1 1 0 0 0 .719-.341l7-8-1.5-1.316z"></path><path d="m35.791 29.21a7.992 7.992 0 0 0 -15.582 0 8 8 0 0 0 1.791 15.79 7.919 7.919 0 0 0 6-2.715 7.919 7.919 0 0 0 6 2.715 8 8 0 0 0 1.791-15.79zm-1.791 13.79a5.957 5.957 0 0 1 -5.143-2.923 1 1 0 0 0 -1.714 0 6 6 0 1 1 -5.943-9.016 1 1 0 0 0 .859-.86 5.993 5.993 0 0 1 11.88 0 1 1 0 0 0 .859.86 6 6 0 0 1 -.798 11.939z"></path><path d="m28 21c2.757 0 5-2.691 5-6s-2.243-6-5-6-5 2.691-5 6 2.243 6 5 6zm0-10c1.654 0 3 1.794 3 4s-1.346 4-3 4-3-1.794-3-4 1.346-4 3-4z"></path><path d="m20 23c0-3.309-2.243-6-5-6s-5 2.691-5 6 2.243 6 5 6 5-2.691 5-6zm-8 0c0-2.206 1.346-4 3-4s3 1.794 3 4-1.346 4-3 4-3-1.794-3-4z"></path><path d="m41 29c2.757 0 5-2.691 5-6s-2.243-6-5-6-5 2.691-5 6 2.243 6 5 6zm0-10c1.654 0 3 1.794 3 4s-1.346 4-3 4-3-1.794-3-4 1.346-4 3-4z"></path></svg>