<!-- icon666.com - MILLIONS OF FREE VECTOR ICONS --><svg id="Layer_1" enable-background="new 0 0 64 64" viewBox="0 0 64 64" xmlns="http://www.w3.org/2000/svg"><path d="m54 34.015c0 5.36-2.18 9.83-5.99 12.97-.01.01-.01.02-.01.02-3.86 3.18-9.38 5.01-16 5.01s-12.14-1.83-16-5.01c0 0 0-.01-.01-.02-3.81-3.14-5.99-7.61-5.99-12.97 0-3.36 1.28-6.83 3.79-10.34-1.12-.88-3.79-3.76-3.79-11.14 0-.27.21-.49.47-.5.05 0 .24-.01.53-.02h.01c2.29-.09 10.98-.18 13.67 2.86.02.01.03.03.04.04 1.71-.55 3.42-.76 4.73-.89h5.13c1.31.13 3.02.34 4.72.89 0 0 .01.01.02.01h.01c2.46-2.64 9.97-2.91 12.94-2.91.29 0 .54 0 .74.01.25 0 .42.01.47.01.27.01.48.23.48.5 0 6.85-2.53 9.93-3.77 11.03 2.53 3.45 3.81 6.96 3.81 10.45z" fill="#ffb56d"></path><path d="m15.002 22.506s-3-4.118-3-7.993c0 0 4.514 1.012 7.498 3.996 0 0-2.498 1.517-4.498 3.997" fill="#ff8a80"></path><path d="m15.99 46.985c-3.81-3.14-5.99-7.61-5.99-12.97 0-3.36 1.28-6.83 3.79-10.34-1.75 3.61-2.37 6.86-2.37 9.85 0 7.55 4.3 13.12 4.57 13.46z" fill="#ffe0b2"></path><path d="m48.998 22.506s3-4.118 3-7.993c0 0-4.514 1.012-7.498 3.996 0 0 2.498 1.517 4.498 3.997" fill="#ff8a80"></path><g fill="#f2883f"><path d="m54 34.015c0 5.36-2.18 9.83-5.99 12.97.27-.34 4.57-5.91 4.57-13.46 0-2.99-.64-6.35-2.39-9.96 2.53 3.45 3.81 6.96 3.81 10.45z"></path><path d="m53.01 12.025c-6.35 1.16-8.44 4.29-9.09 5.12-1.94-1.28-4.3-2.12-4.59-2.22 2.46-2.64 9.97-2.91 12.94-2.91.29 0 .73.01.74.01z"></path><path d="m24.68 14.875v.05c-.25.08-2.64.92-4.6 2.22-.65-.83-2.73-3.98-9.07-5.13 2.29-.09 10.98-.18 13.67 2.86z"></path></g><path d="m45 40c0 3.866-5.82 7-13 7s-13-3.134-13-7 5.82-7 13-7 13 3.134 13 7" fill="#ffe0b2"></path><path d="m36 34c0 2.41-3.6 4-4 4-.19 0-1.1-.36-2-1h-.01v-.01c-1-.69-1.99-1.73-1.99-2.99 0-2 2.26-2 4-2s4 0 4 2z" fill="#ff8a80"></path><path d="m29.99 36.99c-1-.69-1.99-1.73-1.99-2.99 0-2 2.26-2 4-2 0 0-2.46.32-3 2s.84 2.87.99 2.99z" fill="#fff"></path><path d="m7.553 37.739c.088.176.264.277.447.277.075 0 .151-.017.223-.053.693-.347 1.377-.65 2.048-.92 1.517 9.064 9.853 14.968 21.729 14.968 11.877 0 20.212-5.904 21.728-14.968.671.27 1.355.574 2.048.92.071.036.148.053.224.053.183 0 .359-.101.447-.276.123-.247.023-.547-.224-.671-.793-.397-1.573-.739-2.333-1.04.072-.658.11-1.331.11-2.018 0-1.51-.255-3.024-.732-4.535 1.012-.444 2.026-.954 2.992-1.54.236-.144.311-.451.168-.687-.146-.237-.454-.31-.688-.167-.897.545-1.847 1.023-2.799 1.442-.635-1.662-1.548-3.318-2.753-4.959 1.243-1.1 3.775-4.183 3.775-11.038 0-.269-.213-.49-.483-.499-.463-.017-11.149-.361-14.161 2.89-1.714-.554-3.42-.771-4.736-.898-.27-.025-.519.174-.546.45-.026.275.175.519.45.545 2.025.196 3.47.482 4.831.958 1.182.413 2.527 1.074 4 1.966.08.049.17.072.259.072.149 0 .296-.067.394-.192.242-.309.529-.604.903-.931.209-.182.23-.498.049-.706-.182-.208-.498-.23-.705-.048-.289.251-.534.49-.749.729-1.12-.66-2.141-1.17-3.1-1.559 1.51-1.255 4.733-1.856 7.736-2.118-.615.246-1.238.538-1.843.9-.236.142-.315.449-.172.686.093.157.259.244.429.244.088 0 .176-.023.257-.071 2.367-1.415 5.056-1.787 6.181-1.884-.138 6.822-2.894 9.384-3.753 10.016-.108.08-.18.199-.199.331-.019.133.017.268.098.375 1.296 1.699 2.272 3.412 2.923 5.125-3.888 1.561-7.554 2.143-7.602 2.151-.272.042-.46.297-.418.57.038.247.251.424.493.424.025 0 .052-.002.077-.006.201-.031 3.838-.606 7.768-2.182.429 1.384.656 2.769.656 4.146 0 .562-.036 1.109-.086 1.649-4.557-1.62-8.143-1.652-8.407-1.652-.279.009-.508.222-.507.501.001.276.225.499.5.499h.002c.072 0 3.717.023 8.27 1.671-1.358 8.671-9.349 14.332-20.772 14.332s-19.414-5.66-20.772-14.332c4.557-1.647 8.212-1.671 8.271-1.671h.001c.276 0 .5-.223.501-.499 0-.276-.223-.5-.499-.501-.209-.007-3.808.009-8.415 1.65-.051-.54-.087-1.086-.087-1.647 0-1.355.238-2.736.686-4.135 3.919 1.567 7.536 2.14 7.738 2.171.026.004.051.006.077.006.243 0 .456-.177.494-.424.042-.273-.145-.528-.418-.57-.048-.007-3.689-.585-7.561-2.134.651-1.671 1.612-3.366 2.886-5.074.087-.116.117-.266.085-.408-.031-.142-.125-.264-.252-.333-.037-.02-3.576-2.028-3.727-10.05 1.123.095 3.874.467 6.247 1.886.081.048.169.071.256.071.17 0 .336-.087.43-.243.142-.237.064-.545-.172-.686-.69-.413-1.408-.74-2.114-1.004 3.113.216 6.52.811 8.045 2.209-.939.38-1.944.885-3.097 1.567-.233-.259-.496-.493-.753-.721-.207-.183-.522-.165-.706.042-.183.207-.164.523.042.706.343.305.668.593.89.912.097.139.252.214.411.214.088 0 .178-.023.259-.072 1.542-.935 2.804-1.56 3.969-1.966 1.36-.476 2.806-.762 4.834-.958.275-.026.477-.271.45-.545-.026-.275-.273-.47-.545-.45-1.315.127-3.018.343-4.726.894-2.999-3.486-13.783-2.916-14.253-2.886-.268.012-.475.231-.475.496 0 7.387 2.674 10.265 3.792 11.146-1.172 1.633-2.064 3.259-2.694 4.87-.965-.423-1.929-.908-2.839-1.461-.236-.143-.543-.069-.687.167s-.068.544.167.687c.975.592 2 1.106 3.022 1.553-.496 1.526-.761 3.036-.761 4.523 0 .687.038 1.359.109 2.017-.76.301-1.54.644-2.333 1.041-.247.123-.347.424-.223.67z"></path><path d="m23.505 27.017c.129-.001 3.199-.058 6.271-2.1.23-.153.292-.463.14-.693-.154-.23-.465-.293-.693-.14-2.815 1.872-5.701 1.933-5.729 1.933-.275.004-.497.231-.493.506.003.274.226.494.5.494z"></path><path d="m40.506 26.017c-.028 0-2.913-.061-5.729-1.933-.228-.152-.54-.091-.692.14-.153.23-.091.541.14.693 3.072 2.042 6.142 2.099 6.271 2.1h.006c.273 0 .496-.22.5-.494.001-.275-.22-.502-.496-.506z"></path><path d="m21 29.5c0 .276.224.5.5.5h6c.276 0 .5-.224.5-.5s-.224-.5-.5-.5h-6c-.276 0-.5.224-.5.5z"></path><path d="m42.5 29h-6c-.276 0-.5.224-.5.5s.224.5.5.5h6c.276 0 .5-.224.5-.5s-.224-.5-.5-.5z"></path><path d="m19 40c0 3.925 5.71 7 13 7s13-3.075 13-7c0-3.117-3.647-5.773-9.106-6.676-.176-.541-.581-.919-1.222-1.118-.679-.21-1.538-.206-2.524-.209h-.296c-.993-.008-1.846-.002-2.524.209-.642.199-1.046.577-1.223 1.118-5.458.903-9.105 3.559-9.105 6.676zm10.624-6.839c.504-.156 1.268-.164 2.087-.164h.14.297c.882-.001 1.695-.001 2.227.164.456.141.625.368.625.836 0 1.521-2.531 2.945-2.98 3.001-.502-.066-3.02-1.477-3.02-3.001 0-.468.169-.695.624-.836zm-1.592 1.19c.265 1.716 2.366 3.123 3.468 3.526v3.15h-7c-.276 0-.5.224-.5.5s.224.5.5.5h15c.276 0 .5-.224.5-.5s-.224-.5-.5-.5h-7v-3.144c1.111-.391 3.21-1.778 3.469-3.531 4.755.844 8.031 3.122 8.031 5.648 0 3.252-5.495 6-12 6s-12-2.748-12-6c0-2.526 3.276-4.805 8.032-5.649z"></path><path d="m31.54 15.015.46-.004c.168 0 .337.002.506.006h.011c.271 0 .494-.216.5-.489.007-.276-.212-.505-.488-.511-.177-.004-.353-.006-.528-.006l-.479.004c-.276.005-.496.233-.491.509s.226.504.509.491z"></path></svg>