<!-- icon666.com - MILLIONS OF FREE VECTOR ICONS --><svg id="Capa_1" enable-background="new 0 0 497.001 497.001" viewBox="0 0 497.001 497.001" xmlns="http://www.w3.org/2000/svg"><path d="m302.001 210.001 105 287h22.5c4.142 0 7.5-3.358 7.5-7.5v-279.5z" fill="#98d3f3"></path><path d="m60.001 210.001v279.5c0 4.142 3.358 7.5 7.5 7.5h113.5l67.55-60 67.45 60h91v-287z" fill="#adf2f5"></path><path d="m181.001 210.001 105 287h30v-287z" fill="#c6415d"></path><path d="m181.001 210.001h105v287h-105z" fill="#ff3a33"></path><path d="m395.112 89.273c-11.982-28.927-49.502-36.386-71.637-14.251l-74.975 14.176 64.027 86.183 42.002-25.386c31.304.001 52.561-31.805 40.583-60.722z" fill="#c6415d"></path><path d="m367.396 100.753c-9.697-23.411-40.155-29.445-58.115-11.604-.014.01-90.781.049-90.781.049v86.183h94.027s21.959-25.336 21.976-25.339l-.025-.046c25.391.006 42.63-25.794 32.918-49.243z" fill="#ff3a33"></path><path d="m309.229 3.39c28.927 11.982 36.386 49.502 14.251 71.637l-14.127 14.194-86.232-3.247 25.38-42.002c-.001-31.303 31.811-52.56 60.728-40.582z" fill="#ff3a33"></path><path d="m297.748 31.106c23.411 9.697 29.445 40.155 11.604 58.115-.006.007-60.852 60.78-60.852 60.78l-25.38-.008v-64.019s25.377-21.959 25.38-21.976c-.006-25.365 25.8-42.604 49.248-32.892z" fill="#fe5e49"></path><path d="m187.772 3.39c28.927-11.982 60.729 9.275 60.728 40.578v20.026l-63.22 58.679-11.75-47.651c-22.135-22.133-14.675-59.654 14.242-71.632z" fill="#fe5e49"></path><path d="m199.253 31.106c23.411-9.697 49.164 7.573 49.248 32.888.001.009 0 86.007 0 86.007l-17.952 17.94-45.268-45.268s2.388-33.443 2.378-33.457l.05-.015c-17.959-17.948-11.904-48.382 11.544-58.095z" fill="#fc7e49"></path><path d="m101.889 89.273c11.982-28.927 49.502-36.386 71.637-14.251l14.194 14.127-3.247 86.231-42.002-25.386c-31.303.002-52.56-31.804-40.582-60.721z" fill="#c6415d"></path><path d="m129.606 100.753c9.697-23.411 40.155-29.445 58.115-11.604.007.006 60.78 60.852 60.78 60.852v25.38h-64.027s-21.959-25.336-21.976-25.339l.025-.046c-25.391.006-42.63-25.795-32.917-49.243z" fill="#ff3a33"></path><path d="m437.001 150.001-60 45 60 45h22.5c4.142 0 7.5-3.358 7.5-7.5v-75c0-4.142-3.358-7.5-7.5-7.5z" fill="#adf2f5"></path><path d="m30.001 157.501v75c0 4.142 3.358 7.5 7.5 7.5h399.5v-90h-121v30s-42.12-30-67.5-30-71.242 30-71.242 30v-30h-139.758c-4.143 0-7.5 3.358-7.5 7.5z" fill="#d6f9fa"></path><path d="m316.001 150.001h-45l45 242 45 45v-242c0-24.853-20.148-45-45-45z" fill="#fe5e49"></path><path d="m271.001 150.001h-22.5c12.426 0 22.5 10.074 22.5 22.5v264.5l45-45v-197c0-24.853-20.148-45-45-45z" fill="#fc7e49"></path><path d="m181.001 150.001h45l-45 242-45 45v-242c0-24.853 20.147-45 45-45z" fill="#fe5e49"></path><path d="m226.001 150.001h22.5c-12.426 0-22.5 10.074-22.5 22.5v264.5l-45-45v-197c0-24.853 20.147-45 45-45z" fill="#fc7e49"></path></svg>