<!-- icon666.com - MILLIONS OF FREE VECTOR ICONS --><svg id="Capa_1" enable-background="new 0 0 511.898 511.898" viewBox="0 0 511.898 511.898" xmlns="http://www.w3.org/2000/svg"><g><path d="m328.153 367.659c-101.317 0-183.745-82.428-183.745-183.744 0-101.317 82.427-183.745 183.745-183.745s183.745 82.428 183.745 183.745c0 101.316-82.427 183.744-183.745 183.744z" fill="#bee75e"></path><path d="m328.154.169v367.489c101.317 0 183.745-82.428 183.745-183.744-.001-101.317-82.428-183.745-183.745-183.745z" fill="#00cb75"></path><ellipse cx="328.153" cy="183.914" fill="#fff4f4" rx="153.745" ry="153.745" transform="matrix(.707 -.707 .707 .707 -33.933 285.907)"></ellipse><path d="m328.154 30.169v307.489c84.775 0 153.745-68.97 153.745-153.744-.001-84.775-68.97-153.745-153.745-153.745z" fill="#f6efea"></path><path d="m420.591 168.491h-77.438v-77.439c0-8.284-6.716-15-15-15s-15 6.716-15 15v77.438h-77.437c-8.284 0-15 6.716-15 15s6.716 15 15 15h77.437v77.438c0 8.284 6.716 15 15 15s15-6.716 15-15v-77.438h77.438c8.284 0 15-6.716 15-15s-6.716-14.999-15-14.999z" fill="#bee75e"></path><g><g><path d="m229.648 403.415c-2.064-11.95-8.658-22.38-18.569-29.371l-41.918-29.569 43.353-61.459c11.952-16.944 7.89-40.453-9.053-52.405-16.945-11.951-40.453-7.891-52.406 9.053l-75.804 107.465-.041-24.117c-.017-10.045-3.945-19.482-11.059-26.573-7.1-7.075-16.522-10.969-26.543-10.969h-.066c-10.044.017-19.481 3.944-26.572 11.059-7.091 7.115-10.987 16.565-10.97 26.608l.116 77.148c.054 36.151 17.723 70.175 47.264 91.013 19.032 13.425 41.259 20.43 64.08 20.43 6.383 0 12.813-.548 19.232-1.657 29.369-5.074 55.006-21.281 72.186-45.636l19.132-27.122c6.99-9.909 9.702-21.948 7.638-33.898z" fill="#ffdecf"></path></g><path d="m222.01 437.313c6.99-9.91 9.702-21.948 7.639-33.898s-8.658-22.38-18.569-29.371l-41.918-29.569 43.353-61.459c11.952-16.944 7.89-40.453-9.053-52.405l-173.46 245.497c5.204 5.601 11.015 10.702 17.378 15.19 19.032 13.425 41.259 20.43 64.08 20.43 6.383 0 12.813-.548 19.232-1.657 29.37-5.074 55.006-21.281 72.186-45.636z" fill="#ffcdbe"></path></g><path d="m420.591 168.491h-77.438v-77.439c0-8.284-6.716-15-15-15v214.876c8.284 0 15-6.716 15-15v-77.438h77.438c8.284 0 15-6.716 15-15s-6.716-14.999-15-14.999z" fill="#00cb75"></path></g></svg>