<!-- icon666.com - MILLIONS OF FREE VECTOR ICONS --><svg version="1.1" id="Capa_1" xmlns="http://www.w3.org/2000/svg" xmlns:xlink="http://www.w3.org/1999/xlink" x="0px" y="0px" viewBox="0 0 418.272 418.272" style="enable-background:new 0 0 418.272 418.272;" xml:space="preserve"><g><path style="fill:#CDDCF0;" d="M404.232,302.744c-8.216,22.2-24.576,39.864-46.08,49.752c-11.752,5.408-24.168,8.144-36.904,8.144 c-34.552,0-66.192-20.272-80.616-51.632c-9.888-21.504-10.808-45.568-2.6-67.768c8.216-22.2,24.576-39.864,46.08-49.752 c11.752-5.408,24.176-8.144,36.928-8.144c34.536,0,66.168,20.272,80.592,51.632C411.528,256.488,412.448,280.552,404.232,302.744z"></path><path style="fill:#CDDCF0;" d="M404.232,302.744c-8.216,22.2-24.576,39.864-46.08,49.752c-11.752,5.408-24.168,8.144-36.904,8.144 c-34.552,0-66.192-20.272-80.616-51.632c-9.888-21.504-10.808-45.568-2.6-67.768c8.216-22.2,24.576-39.864,46.08-49.752 c11.752-5.408,24.176-8.144,36.928-8.144c34.536,0,66.168,20.272,80.592,51.632C411.528,256.488,412.448,280.552,404.232,302.744z"></path><path style="fill:#CDDCF0;" d="M33.136,8c-13.232,0-24,10.768-24,24v256c0,13.232,10.768,24,24,24h320c13.232,0,24-10.768,24-24V32 c0-13.232-10.768-24-24-24H33.136z"></path></g><path style="fill:#7D8E60;" d="M321,144c-18.408,0-36.352,3.96-53.32,11.76c-10.504,4.832-20.16,10.944-28.8,18.168l138.256,53.464 v-70.168C359.92,148.8,340.84,144,321,144z"></path><path style="fill:#9DB879;" d="M380.136,229.504c-74.4-30.096-183-74.544-187-76.16c-14.824-6-31.024-9.344-48-9.344 c-30.248,0-57.992,10.552-79.896,28.088L13.024,217.88v70.664c0,13.2,10.704,23.904,23.904,23.904H359.16 c11.592,0,20.984-9.392,20.984-20.984v-61.96H380.136z"></path><path style="fill:#A6BDB0;" d="M284.12,191.496c-21.504,9.888-37.872,27.552-46.08,49.752c-8.216,22.2-7.288,46.264,2.6,67.768 c0.552,1.2,1.296,2.272,1.896,3.44H359.16c11.592,0,20.984-9.392,20.984-20.984v-61.976c-29.136-11.784-63.464-25.752-94.752-38.504 C284.968,191.176,284.536,191.304,284.12,191.496z"></path><path style="fill:#9AADA6;" d="M377.136,228.056v-24.504c-15.576-12.72-35.264-20.192-56.088-20.192 c-12.048,0-23.784,2.536-34.96,7.368L377.136,228.056z"></path><circle style="fill:#FBD536;" cx="265.136" cy="80" r="32"></circle><path style="fill:#565656;" d="M244.232,314.72l-64.568,64.944c-6.24,6.256-6.232,16.392,0.024,22.632l11.328,11.304 c6.256,6.24,16.384,6.224,22.624-0.024l64.624-65.008L244.232,314.72z"></path><path style="fill:#8993A1;" d="M369.136,197.592v20.712c-25.104-10.464-50.552-21.096-74.048-30.928 c-3.704,1.152-7.376,2.472-10.968,4.12c-3.064,1.408-5.768,3.312-8.616,5.032c28.848,12.072,61.688,25.8,93.632,39.112V288 c0,8.824-7.176,16-16,16h-114.24c0.648,1.656,0.992,3.384,1.736,5.016c1.768,3.84,3.8,7.496,6.056,10.984h106.448 c17.672,0,32-14.328,32-32v-76.976C380.296,205.96,374.992,201.376,369.136,197.592z"></path><path d="M265.136,120c22.096,0,40-17.912,40-40s-17.904-40-40-40s-40,17.912-40,40S243.04,120,265.136,120z M265.136,56 c13.232,0,24,10.768,24,24s-10.768,24-24,24s-24-10.768-24-24S251.904,56,265.136,56z"></path><path d="M385.136,200.592V32c0-17.672-14.328-32-32-32h-320c-17.672,0-32,14.328-32,32v256c0,17.672,14.328,32,32,32h205.008 c0.104,0.176,0.176,0.376,0.28,0.56l-58.752,59.104c-6.24,6.256-6.232,16.392,0.024,22.632l11.328,11.304 c3.12,3.112,7.208,4.672,11.296,4.672c4.104,0,8.2-1.568,11.328-4.696l58.664-59.008C286.632,363.04,303.288,368,321.136,368 c53.016,0,96-42.984,96-96C417.136,243.6,404.736,218.168,385.136,200.592z M17.136,32c0-8.824,7.176-16,16-16h320 c8.824,0,16,7.176,16,16v112.92c-46.248-15.784-90.392-10.968-129.952,19.048C195.104,145.488,178.152,136,145.136,136 c-58.768,0-86.16,30.944-128,67.576V32z M369.136,161.824v27.12c-14.128-8.184-30.496-12.944-48-12.944 c-12.824,0-25.04,2.56-36.224,7.12c-10.04-4.2-19.568-8.192-28.464-11.92C294.688,146.536,330.048,148.48,369.136,161.824z M225.136,272c0,11.264,2.16,21.968,5.752,32H33.136c-8.824,0-16-7.176-16-16v-63.168C65.472,182.504,90.072,152,145.136,152 c29.648,0,38.488,6.048,121.672,40.888C241.648,210.192,225.136,239.16,225.136,272z M202.328,402.264l-11.312-11.32l56.824-57.016 c3.448,4.08,7.232,7.856,11.304,11.312L202.328,402.264z M321.136,352c-44.112,0-80-35.888-80-80s35.888-80,80-80s80,35.888,80,80 S365.248,352,321.136,352z"></path><path d="M369.136,272c0,26.464-21.536,48-48,48v16c35.344,0,64-28.656,64-64H369.136z"></path></svg>