<!-- icon666.com - MILLIONS OF FREE VECTOR ICONS --><svg clip-rule="evenodd" fill-rule="evenodd" image-rendering="optimizeQuality" shape-rendering="geometricPrecision" text-rendering="geometricPrecision" viewBox="0 0 512 512" xmlns="http://www.w3.org/2000/svg"><g id="Layer_x0020_1"><g id="_430002984"><path d="m279 369 57 57h20c3 0 5 2 5 5s-2 5-5 5h-25-150-25c-3 0-5-2-5-5s2-5 5-5h20l57-57c1-1 2-2 4-2h38c2 0 3 1 4 2zm38 55-45-44h-32l-45 44z" fill="#273c47" fill-rule="nonzero"></path><path d="m25 76h462c14 0 25 11 25 25v248c0 13-11 25-25 25h-462c-14 0-25-12-25-25v-248c0-14 11-25 25-25z" fill="#405968"></path><path d="m43 104h426c8 0 14 7 14 15v212c0 8-6 14-14 14h-426c-8 0-14-6-14-14v-212c0-8 6-15 14-15z" fill="#6adbbd"></path><path d="m139 299c-4 0-6 3-6 6 0 4 2 6 6 6h16c3 0 6-2 6-6 0-3-3-6-6-6zm44 0c-3 0-6 3-6 6 0 4 3 6 6 6h205c3 0 6-2 6-6 0-3-3-6-6-6z" fill="#dc3d1f" fill-rule="nonzero"></path><circle cx="169" cy="305" fill="#7ca5a7" r="14"></circle><path d="m234 158 72 102h-143z" fill="#7ca5a7"></path><path d="m234 158 26 37-24-9-12 9-14-3z" fill="#b2cacb"></path><path d="m304 174 60 86h-58l-31-44z" fill="#7ca5a7"></path><path d="m304 174 18 25h-6l-19 7-9-8z" fill="#b2cacb"></path><path d="m321 260h-15l-31-44 7-11z" fill="#73989a"></path><path d="m137 187c-8 0-14-6-14-14 0-5 3-10 8-12 0-8 6-14 14-14 0-10 8-17 17-17 10 0 18 8 18 17 0 2-1 4-1 6h3c10 0 18 7 18 17s-8 17-18 17c-18 0-24 0-45 0z" fill="#fff"></path><circle cx="273" cy="153" fill="#ffc83f" r="19"></circle><path d="m138 254c-4 0-6 3-6 6s2 6 6 6h251c3 0 6-3 6-6s-3-6-6-6z" fill="#55a42f" fill-rule="nonzero"></path></g></g></svg>