<!-- icon666.com - MILLIONS OF FREE VECTOR ICONS --><svg enable-background="new 0 0 256 256" viewBox="0 0 256 256" xmlns="http://www.w3.org/2000/svg"><g id="Layer_1"><g><g><g><path d="m106.2 116.75c-.06 2.09.02 4.19.26 6.27h-67.46c0-7.144 1.801-14.075 5.28-20.29 1.57-2.79 1.89-6.13.86-9.16-4.44-12.95-1.47-27.52 8.12-37.72 2.29-2.43 3.22-5.78 2.85-9.1-.74-6.34 1.07-12.46 4.61-17.29 4.43-6.02 11.54-10.05 19.84-10.05 14.95 0 26.11 13.11 24.46 27.34-.39 3.32.56 6.67 2.84 9.11 6.02 6.4 9.43 14.5 10.04 22.85.25 3.43.03 6.89-.67 10.3-7.06 7.91-10.73 17.79-11.03 27.74z" fill="#13bf6c"></path></g><g><path d="m106.2 116.75c-.06 2.09.02 4.19.26 6.27h-67.46c0-2.13.16-4.23.47-6.27h59.74c.32-11.91 4.8-23.43 12.79-32.4 1.77-1.99 3.75-3.87 5.9-5.64.25 3.43.03 6.89-.67 10.3-7.06 7.91-10.73 17.79-11.03 27.74z" fill="#129d6d"></path></g><g><path d="m60.72 29.46c-2.46-1.22-5.18-2.01-8.1-2.25-13.97-1.5-26.27 10.88-24.63 25.21.38 3.25-.84 6.46-3.04 8.87-8.46 9.32-11.09 22.42-7.22 34.11 1 3.04.67 6.38-.87 9.2-2.03 3.72-3.48 7.81-4.19 12.15-.33 2.04-.51 4.13-.51 6.27h26.84c0-7.071 1.835-14.139 5.28-20.29 1.57-2.79 1.89-6.13.86-9.16-4.44-12.95-1.47-27.52 8.12-37.72 2.29-2.43 3.22-5.78 2.85-9.1-.74-6.34 1.07-12.46 4.61-17.29z" fill="#13bf6c"></path></g><g><path d="m60.72 29.46c-2.46-1.22-5.18-2.01-8.1-2.25-3.72 6.16-5.3 13.31-4.46 20.43.12 1.11-.14 2.1-.73 2.73-11.55 12.29-15.33 29.84-9.86 45.77.29.88.2 1.85-.27 2.68-3.098 5.534-5.098 11.64-5.9 17.93h-18.73c-.33 2.04-.51 4.13-.51 6.27h26.84c0-6.917 1.723-13.938 5.28-20.29 1.57-2.79 1.89-6.13.86-9.16-4.44-12.95-1.47-27.52 8.12-37.72 2.29-2.43 3.22-5.78 2.85-9.1-.74-6.34 1.07-12.46 4.61-17.29z" fill="#129d6d"></path></g><g><path d="m195.38 123.02h-88.92c-.24-2.08-.32-4.18-.26-6.27.3-9.95 3.97-19.83 11.03-27.74 14.15-15.92 43.59-24.25 62.68-14.66 5.93 2.965 10.629 7.537 13.7 13.7 1.75 3.48 2.9 7.3 3.52 11.31 1.204 7.811.374 16.08-1.75 23.66z" fill="#f0c020"></path></g><g><path d="m180.75 210.84v20.75c0 2.76-2.24 5-5 5h-95.5c-2.76 0-5-2.24-5-5v-20.75z" fill="#afaeaf"></path></g><g><path d="m75.25 210.84h105.5v8.49h-105.5z" fill="#4c4944"></path></g><g><path d="m243.903 55.924c-4.768 4.768-12.815 4.914-17.643-.519l-32.646 32.646c-2.931-5.862-7.455-10.577-13.699-13.699l32.646-32.646c-5.435-4.831-5.283-12.878-.519-17.643 4.746-4.746 12.437-4.746 17.183 0 3.112 3.112 4.178 7.486 3.209 11.469 3.983-.969 8.357.098 11.469 3.209 4.746 4.746 4.746 12.437 0 17.183z" fill="#efefef"></path></g><g><path d="m245.87 123.02c2.761 0 5 2.239 5 5v20.72c0 34.31-27.81 62.1-62.1 62.1h-121.54c-34.29 0-62.1-27.79-62.1-62.1v-20.72c0-2.761 2.239-5 5-5z" fill="#72c2e9"></path></g><g><g><path d="m243.82 116.75c-.09 2.23-.61 4.35-1.49 6.27h-26.88c.88-1.92 1.4-4.04 1.49-6.27.17-4.15-1.14-7.96-3.47-10.99 1.43-1.87 3.24-3.43 5.31-4.56 11.33-6.27 25.6 2.22 25.04 15.55z" fill="#fc5d3d"></path></g><g><path d="m243.82 116.75c-.09 2.23-.61 4.35-1.49 6.27h-26.88c.88-1.92 1.4-4.04 1.49-6.27.17-4.15-1.14-7.96-3.47-10.99 1.43-1.87 3.24-3.43 5.31-4.56 2.849 3.138 5.408 9.371 5.15 15.55z" fill="#b34f33"></path></g></g><g><path d="m213.47 105.76c-2.27-2.97-5.5-5.17-9.23-6.12-2.2-.58-4.63-.7-7.11-.28 1.204 7.811.374 16.08-1.75 23.66h20.07c.88-1.92 1.4-4.04 1.49-6.27.17-4.15-1.14-7.96-3.47-10.99z" fill="#fc5d3d"></path></g><g><path d="m106.2 116.75c-.06 2.09.02 4.19.26 6.27h88.92c.58-2.07 1.06-4.17 1.42-6.27z" fill="#e8a61e"></path></g><g><path d="m216.94 116.75c-.09 2.23-.61 4.35-1.49 6.27h-20.07c2.123-7.577 2.954-15.846 1.75-23.66 2.48-.42 4.91-.3 7.11.28.69 5.44.57 11.23-.35 17.11z" fill="#b34f33"></path></g></g><g><g><path d="m187.653 111.165c-.036 0-.071 0-.106-.002-1.38-.058-2.451-1.223-2.394-2.603.048-1.15.05-2.279.001-3.405-.06-1.379 1.01-2.546 2.39-2.605 1.363-.052 2.546 1.01 2.605 2.39.054 1.255.054 2.525 0 3.83-.056 1.343-1.163 2.395-2.496 2.395zm-4.166-15.06c-3.196-8.845-10.707-13.329-22.321-13.329-1.381 0-2.5-1.119-2.5-2.5s1.119-2.5 2.5-2.5c13.747 0 23.092 5.75 27.023 16.63.469 1.298-.203 2.731-1.501 3.201-1.29.467-2.73-.196-3.201-1.502z" fill="#f8e5b0"></path></g><g><path d="m188.77 202.339h-106c-1.381 0-2.5-1.119-2.5-2.5s1.119-2.5 2.5-2.5h106c26.798 0 48.6-21.802 48.6-48.6v-14.72c0-1.381 1.119-2.5 2.5-2.5s2.5 1.119 2.5 2.5v14.72c0 29.555-24.045 53.6-53.6 53.6zm-116 0h-5.54c-1.381 0-2.5-1.119-2.5-2.5s1.119-2.5 2.5-2.5h5.54c1.381 0 2.5 1.119 2.5 2.5s-1.119 2.5-2.5 2.5z" fill="#c5e5fe"></path></g><path d="m146.04 92.683c.977.977 2.559.977 3.536 0l1.176-1.175c.977-.976.977-2.559 0-3.536s-2.56-.977-3.536 0l-1.176 1.175c-.976.976-.976 2.559 0 3.536z"></path><path d="m130.649 104.149-1.175 1.176c-.976.977-.976 2.56 0 3.536.977.976 2.559.976 3.536 0l1.175-1.176c.976-.977.976-2.56 0-3.536-.977-.976-2.56-.976-3.536 0z"></path><path d="m165.478 107.684 1.176-1.176c.977-.976.977-2.559 0-3.535-.976-.977-2.56-.977-3.535 0l-1.176 1.176c-.977.976-.977 2.559 0 3.535.975.977 2.559.977 3.535 0z"></path><circle cx="144.35" cy="236.59" r="2.5"></circle><path d="m11.18 175.63c1.27-.54 1.85-2.02 1.31-3.28-3.23-7.47-4.86-15.41-4.86-23.61v-2.704l11.091 11.091c.976.977 2.56.977 3.535 0l13.591-13.591 13.591 13.591c.938.938 2.598.938 3.535 0l13.591-13.591 13.591 13.591c.976.977 2.56.977 3.535 0l13.591-13.591 13.591 13.591c.938.938 2.598.938 3.535 0l13.593-13.59 13.591 13.591c.938.938 2.598.938 3.535 0l13.591-13.591 13.591 13.591c.976.977 2.56.977 3.535 0l13.591-13.591 13.591 13.591c.974.975 2.561.975 3.535 0l13.591-13.591 13.591 13.591c.976.977 2.56.977 3.535 0l11.091-11.091v2.703c0 32.942-26.656 59.6-59.6 59.6h-121.538c-16.94 0-33.15-7.25-44.45-19.9-.89-.99-2.54-1.08-3.53-.2-1.09.981-1.072 2.581-.2 3.53 12.192 13.655 29.547 21.57 48.18 21.57h5.52v18.25c0 4.13 3.37 7.5 7.5 7.5h54.1c1.38 0 2.5-1.12 2.5-2.5s-1.12-2.5-2.5-2.5h-54.1c-1.37 0-2.5-1.12-2.5-2.5v-18.25h100.5v18.25c0 1.38-1.12 2.5-2.5 2.5h-21.4c-1.38 0-2.5 1.12-2.5 2.5s1.12 2.5 2.5 2.5h21.4c4.13 0 7.5-3.37 7.5-7.5v-18.25h5.52c35.659 0 64.6-28.887 64.6-64.6 0-2.775 0-17.547 0-20.72 0-4.14-3.37-7.5-7.5-7.5h-.053c.281-1.193.45-2.417.5-3.665.725-17.231-20.013-27.1-32.834-14.808-2.41-2.319-5.384-4.004-8.606-4.824-1.824-.48-3.769-.663-5.724-.574-.595-2.855-1.451-5.545-2.556-8.045l29.719-29.719c5.856 4.624 14.193 3.969 19.354-1.193 5.712-5.712 5.712-15.006 0-20.718-2.811-2.811-6.536-4.322-10.383-4.295.019-3.854-1.484-7.572-4.295-10.383-5.712-5.713-15.006-5.713-20.718 0-5.158 5.157-5.821 13.495-1.193 19.354l-29.705 29.706c-5.351-2.366-11.46-3.577-18.216-3.585-3.76 0-7.65.39-11.57 1.15-1.326.241-2.253 1.545-1.98 2.93.26 1.33 1.59 2.23 2.93 1.98 10.44-2.03 20.69-1.05 28.25 2.75 5.57 2.8 9.81 7.03 12.58 12.58 1.58 3.149 2.69 6.708 3.289 10.576v.005c.93 6.032.671 13.14-1.224 20.779h-84.685c-.081-1.294-.081-2.479-.05-3.69.29-9.68 3.98-18.97 10.4-26.16 3.47-3.9 8.1-7.49 13.4-10.38 1.172-.616 1.677-2.141 1-3.39-.668-1.215-2.19-1.649-3.39-1-3.565 1.946-6.786 4.131-9.646 6.526.032-1.299.024-2.599-.071-3.898-.663-9.083-4.468-17.742-10.707-24.375-1.705-1.824-2.5-4.416-2.183-7.115 1.831-15.787-10.589-30.129-26.943-30.129-8.035 0-15.428 3.438-20.594 9.493-2.278-.908-4.659-1.48-7.079-1.678-15.564-1.668-29.205 12.043-27.38 27.986.28 2.401-.596 4.914-2.408 6.9-8.973 9.884-11.939 23.899-7.744 36.571.777 2.363.526 4.995-.689 7.221-2.223 4.073-3.724 8.428-4.463 12.948-.226 1.393-.373 2.794-.458 4.189-3.951.203-7.115 3.471-7.115 7.48v20.72c0 8.89 1.77 17.5 5.27 25.59.53 1.23 2.04 1.84 3.28 1.3zm230.143-58.985v.004c-.054 1.335-.286 2.632-.693 3.871h-21.69c1.121-4.747.427-10.124-2.316-14.585 9.371-9.529 25.244-2.309 24.699 10.71zm-41.389-15.032c10.177.05 16.8 9.793 13.807 18.908h-15.146c1.391-6.079 1.961-12.669 1.339-18.908zm-5.778-17.638c-2.597-4.114-6.042-7.558-10.165-10.164l30.337-30.337c1.016-1.015.969-2.679-.107-3.636-4.338-3.855-4.179-10.239-.412-14.007 3.763-3.762 9.885-3.762 13.647 0 2.399 2.4 3.352 5.806 2.548 9.11-.44 1.813 1.194 3.462 3.021 3.021 3.304-.804 6.71.148 9.11 2.548 3.762 3.763 3.762 9.885 0 13.647-3.801 3.8-10.18 3.894-14.007-.412-.967-1.088-2.636-1.109-3.636-.107zm-131.422-53.033c4.224-5.74 10.722-9.032 17.827-9.032 13.646 0 23.434 11.985 21.977 24.548-.489 4.159.786 8.208 3.502 11.115 5.46 5.805 8.788 13.376 9.368 21.319.22 3.016.033 6.045-.524 9.017-6.891 7.98-10.86 18.157-11.183 28.761-.021 1-.047 2.029.049 3.85h-20.687c0-22.761 0-29.402 0-39.881l16.926-16.926c.977-.976.977-2.559 0-3.535-.976-.977-2.56-.977-3.535 0l-13.391 13.391v-37.377c0-1.381-1.119-2.5-2.5-2.5s-2.5 1.119-2.5 2.5v69.565l-17.198-17.197c-.976-.977-2.56-.977-3.535 0-.977.976-.977 2.559 0 3.535l20.732 20.732v7.693h-36.468c.072-1.142.179-2.279.348-3.396.7-4.633 2.221-9.065 4.517-13.167 1.922-3.416 2.304-7.495 1.046-11.197-4.206-12.266-1.303-25.753 7.574-35.194 2.701-2.865 3.982-6.908 3.514-11.104-.64-5.492.831-11.004 4.141-15.52zm-47.597 86.212c.647-3.958 1.965-7.779 3.917-11.355 1.875-3.434 2.258-7.509 1.049-11.184-3.631-10.967-1.064-23.093 6.693-31.639 2.785-3.052 4.125-7.005 3.677-10.84-1.453-12.709 9.444-23.786 21.943-22.434 1.568.129 3.093.459 4.569.945-2.833 4.978-4.024 10.689-3.359 16.38.303 2.722-.493 5.313-2.187 7.111-10.152 10.798-13.472 26.218-8.666 40.236.799 2.352.555 4.951-.674 7.135-2.594 4.635-4.31 9.637-5.101 14.866-.207 1.364-.342 2.751-.42 4.145h-21.824c.078-1.121.202-2.247.383-3.366zm-7.507 10.866c0-1.38 1.12-2.5 2.5-2.5h235.74c1.38 0 2.5 1.12 2.5 2.5v10.946l-12.858 12.858-13.591-13.591c-.938-.938-2.598-.938-3.535 0l-13.591 13.591-13.591-13.591c-.976-.977-2.56-.977-3.535 0l-13.591 13.591-13.591-13.591c-.938-.938-2.598-.938-3.535 0l-13.591 13.591-13.591-13.591c-.976-.977-2.56-.977-3.535 0l-13.591 13.591-13.591-13.591c-.938-.938-2.598-.938-3.535 0l-13.591 13.591-13.591-13.591c-.976-.977-2.56-.977-3.535 0l-13.591 13.591-13.591-13.591c-.938-.938-2.598-.938-3.535 0l-13.591 13.591-12.863-12.858z"></path><path d="m16.22 184.26c1.16-.74 1.5-2.29.76-3.45-.72-1.13-2.32-1.48-3.45-.76-1.181.759-1.5 2.299-.76 3.45.764 1.195 2.346 1.478 3.45.76z"></path><path d="m139.58 71.67c-1.29.46-1.97 1.9-1.51 3.19.473 1.315 1.93 1.981 3.2 1.51 1.3-.46 1.98-1.9 1.51-3.19-.45-1.26-1.93-1.97-3.2-1.51z"></path></g></g></g></svg>