<!-- icon666.com - MILLIONS OF FREE VECTOR ICONS --><svg id="Capa_1" enable-background="new 0 0 512 512" viewBox="0 0 512 512" xmlns="http://www.w3.org/2000/svg"><g><g><g><g><g><g><path d="m115.727 470.183c-69.7-45.741-115.727-124.587-115.727-214.183 0-141.385 114.615-256 256-256s256 114.615 256 256c0 89.742-46.177 168.698-116.066 214.405z" fill="#7584f2"></path></g></g></g></g></g><path d="m396.171 470.25c69.757-45.731 115.829-124.61 115.829-214.25 0-8.518-.416-16.939-1.229-25.243l-132.679-132.68-159.835 318.152z" fill="#4855b7"></path><g><path d="m115.727 470.183c40.288 26.439 88.484 41.817 140.273 41.817s99.985-15.378 140.273-41.817l-48.962-202.123h-182.622z" fill="#ffce00"></path></g><g><path d="m347.311 268.06h-91.311v243.939c51.743-.024 100.016-15.398 140.273-41.816z" fill="#fdba12"></path></g><g><path d="m374.082 176.218c14.089-40.659 4.01-78.141 4.01-78.141l-54.631 31.996c-19.676-9.765-42.766-15.388-67.461-15.388s-47.785 5.622-67.461 15.388l-54.631-31.996s-10.079 37.481 4.01 78.141c-7.8 13.67-12.156 28.919-12.156 45.001 0 58.837 58.309 106.534 130.237 106.534s130.237-47.697 130.237-106.534c.001-16.081-4.355-31.33-12.154-45.001z" fill="#fa0"></path></g><g><path d="m386.237 221.219c0-16.082-4.356-31.331-12.156-45.001 14.089-40.659 4.01-78.141 4.01-78.141l-54.631 31.996c-19.644-9.749-42.811-15.367-67.461-15.386v213.064c71.873-.053 130.238-47.728 130.238-106.532z" fill="#ff9500"></path></g><g><path d="m256 256.59c-7.071 0-13.697-3.451-17.751-9.245l-4.585-6.554c-4.85-6.933.11-16.457 8.571-16.457h27.53c8.461 0 13.421 9.523 8.571 16.457l-4.585 6.554c-4.054 5.794-10.68 9.245-17.751 9.245z" fill="#636978"></path></g><g><path d="m269.765 224.335h-13.765v32.251c7.026-.039 13.72-3.48 17.751-9.241l4.585-6.554c4.85-6.933-.11-16.456-8.571-16.456z" fill="#414952"></path></g><g><path d="m267.357 294.648 13.454-13.453-15.298-15.298v-15.464h-19.026v15.464l-15.298 15.298 13.453 13.453 11.358-11.23z" fill="#636978"></path></g><g><path d="m265.513 265.897v-15.464h-9.513v32.984l11.357 11.231 13.454-13.453z" fill="#414952"></path></g><g><g><circle cx="182.026" cy="209.413" fill="#636978" r="14.922"></circle></g><g><circle cx="329.974" cy="209.413" fill="#414952" r="14.922"></circle></g></g></g></svg>