<!-- icon666.com - MILLIONS OF FREE VECTOR ICONS --><svg clip-rule="evenodd" fill-rule="evenodd" image-rendering="optimizeQuality" shape-rendering="geometricPrecision" text-rendering="geometricPrecision" viewBox="0 0 850 850" xmlns="http://www.w3.org/2000/svg"><g id="Layer_x0020_1"><circle cx="425" cy="425" fill="#333" r="425" style="fill: rgb(242, 246, 4);"></circle><g id="_425584400"><g><g><g><path d="m423 657s-1 0-2 0c-3-1-5-4-5-7l7-98-91-38c-3-1-5-4-5-7s3-6 6-6l95-24 7-98c1-4 3-6 6-7 2-1 6 0 7 3l52 84 41-10 55-14c3-1 6 1 8 4 1 2 1 6-1 8l-63 75 52 84c2 2 2 6 0 9-2 2-5 3-8 2l-91-37-64 75c-1 2-3 2-6 2zm-65-148 75 31c3 1 5 4 5 7l-6 81 53-62c2-3 5-4 8-3l75 31-43-68c-2-3-1-7 0-9l53-63-79 20c-3 1-6 0-8-3l-43-69-5 81c-1 3-3 6-6 7z" fill="#fff" style="fill: rgb(212, 35, 225);"></path></g><g><path d="m559 384s-1 0-2 0c-3-2-5-4-5-8l5-62-58-23c-3-1-5-4-5-7 1-3 3-6 6-7l61-15 4-63c0-3 2-5 5-6s7 0 8 3l34 53 24-6 36-9c3-1 6 0 8 3 1 3 1 7-1 9l-40 48 33 53c1 2 1 6-1 8-2 3-5 4-8 3l-58-24-40 48c-1 1-3 2-6 2zm-34-98 42 17c3 1 5 4 5 7l-3 45 29-35c2-2 5-3 8-2l42 17-24-38c-2-2-2-6 0-9l29-34-14 3-30 8c-3 1-6 0-8-3l-24-39-3 45c0 3-2 6-5 7z" fill="#fff" style="fill: rgb(212, 35, 225);"></path></g><g><path d="m235 467c-1 0-2 0-3 0-3-1-5-4-5-7l5-63-58-23c-3-2-5-4-5-7 1-4 3-6 6-7l60-15 5-62c0-4 2-6 5-7s7 0 8 3l33 54 25-7 36-9c3-1 6 1 8 3 1 3 1 7-1 9l-40 48 33 52c2 3 1 7-1 9-2 3-5 4-8 2l-58-23-40 47c-1 3-3 3-5 3zm-35-99 42 17c3 2 5 5 5 7l-4 46 29-35c2-3 6-3 9-2l42 17-24-38c-2-3-2-7 0-9l30-35-14 4-31 8c-2 1-6 0-7-3l-24-39-3 45c-1 3-3 6-6 7z" fill="#fff" style="fill: rgb(212, 35, 225);"></path></g></g><g><path d="m427 349c-3 0-5-1-6-4l-12-20-19-10c-3-2-4-4-4-7 0-2 1-5 4-6l21-12 10-19c1-3 4-4 6-4 3 0 5 1 6 4l12 20 19 10c3 2 4 4 4 7 0 2-1 5-4 6l-20 11-10 19c-2 3-5 5-7 5zm-19-41 9 5c1 0 3 1 3 2l6 11 5-9 3-3 11-6-10-5c-1 0-2-1-3-2l-6-11-5 9c0 2-1 2-3 3z" fill="#fff" style="fill: rgb(212, 35, 225);"></path></g><g><path d="m302 623c-3 0-5-1-7-3l-11-21-20-11c-2-1-4-3-4-6 0-2 2-5 4-6l20-11 11-20c1-2 4-4 6-4 3 0 5 2 6 4l12 21 19 10c2 1 3 3 3 6 0 2-1 5-3 6l-21 12-10 19c0 3-3 4-5 4zm-19-41 10 5 3 3 6 11 5-9c0-1 1-3 2-3l11-6-9-5c-1-1-2-2-3-3l-6-11-5 10c0 1-1 2-3 3z" fill="#fff" style="fill: rgb(212, 35, 225);"></path></g><g><path d="m624 559c-3 0-5-1-7-3l-11-21-19-10c-3-1-4-4-4-6 0-3 1-5 4-7l20-11 11-20c1-2 3-4 6-4s5 2 6 4l11 20 20 11c3 1 4 4 4 6 0 3-1 5-4 6l-20 12-10 19c-2 3-5 4-7 4zm-19-40 9 5c2 0 3 1 3 2l6 11 5-9 3-3 11-6-10-5c-1 0-2-1-3-3l-5-10-5 9c-1 1-2 2-3 3z" fill="#fff" style="fill: rgb(212, 35, 225);"></path></g></g></g></g></svg>