<!-- icon666.com - MILLIONS OF FREE VECTOR ICONS --><svg version="1.1" id="Layer_1" xmlns="http://www.w3.org/2000/svg" xmlns:xlink="http://www.w3.org/1999/xlink" x="0px" y="0px" viewBox="0 0 511.999 511.999" style="enable-background:new 0 0 511.999 511.999;" xml:space="preserve"><g><ellipse style="fill:#992B12;" cx="185.846" cy="452.89" rx="37.929" ry="26.589"></ellipse><ellipse style="fill:#992B12;" cx="116.913" cy="306.64" rx="26.589" ry="37.929"></ellipse><ellipse style="fill:#992B12;" cx="194.229" cy="229.324" rx="26.589" ry="37.929"></ellipse><ellipse style="fill:#992B12;" cx="388.811" cy="249.935" rx="37.929" ry="26.589"></ellipse></g><g><path style="fill:#ADBF3B;" d="M394.349,84.419c-24.061,24.061-42.831,71.335-46.058,99.067l17.105-5.494 c27.733-3.226,57.08-17.322,81.142-41.383c27.907-27.907,42.425-62.932,42.103-94.293C457.28,41.995,422.256,56.511,394.349,84.419 z"></path><path style="fill:#ADBF3B;" d="M259.046,4.395c-22.404,21.949-36.904,56.978-36.904,96.446c0,34.028,10.784,64.749,28.114,86.639 l6.842,13.584c17.328-21.891,38.852-66.195,38.852-100.223C295.949,61.373,281.448,26.344,259.046,4.395z"></path><path style="fill:#ADBF3B;" d="M314.138,350.984c-34.028,0-79.099,20.632-100.989,37.961l14.35,7.733 c21.892,17.328,52.613,28.114,86.639,28.114c39.468,0,74.498-14.501,96.446-36.904 C388.637,365.485,353.606,350.984,314.138,350.984z"></path></g><path d="M351.524,191.863c34.016-0.791,69.105-16.916,96.834-44.644c28.753-28.754,45.037-65.421,44.678-100.599 c-0.049-4.784-3.915-8.65-8.7-8.7c-0.382-0.003-0.76-0.005-1.143-0.005c-34.828,0-71.015,16.242-99.457,44.682 c-27.73,27.73-43.857,62.821-44.648,96.838l-75.65,75.65V205.28c23.495-24.612,36.904-60.828,36.904-100.044 c0-40.663-14.412-78.105-39.542-102.725c-3.418-3.348-8.886-3.348-12.302,0c-25.13,24.619-39.542,62.061-39.542,102.725 c0,39.216,13.408,75.432,36.904,100.044v67.384l-47.234,47.234v-40.864c15.451-5.036,26.588-23.141,26.588-45.316 c0-26.198-15.54-46.718-35.377-46.718c-19.839,0-35.379,20.521-35.379,46.718c0,22.176,11.137,40.28,26.589,45.316v58.444 l-59.738,59.738v-40.864c15.451-5.037,26.588-23.141,26.588-45.316c0-26.198-15.54-46.718-35.377-46.718 c-19.839,0-35.379,20.521-35.379,46.718c0,22.176,11.137,40.28,26.589,45.316v58.444l-82.199,82.199 c-3.432,3.433-3.432,8.997,0,12.431c1.717,1.716,3.965,2.574,6.215,2.574s4.499-0.858,6.215-2.574l43.347-43.348h58.828 c5.038,15.451,23.142,26.589,45.317,26.589c26.198,0,46.718-15.54,46.718-35.379s-20.522-35.379-46.718-35.379 c-22.176,0-40.28,11.138-45.317,26.589H94.889l22.685-22.685c0.826-0.582,1.546-1.303,2.129-2.129l22.613-22.613h67.383 c24.612,23.495,60.828,36.904,100.044,36.904c40.663,0,78.105-14.412,102.726-39.542c3.348-3.417,3.348-8.885,0-12.302 c-24.621-25.13-62.063-39.542-102.726-39.542c-39.215,0-75.431,13.409-100.044,36.904h-49.804l34.997-34.997 c0.826-0.582,1.546-1.303,2.129-2.129l83.248-83.248H339.1c5.036,15.451,23.141,26.589,45.316,26.589 c26.198,0,46.718-15.54,46.718-35.379s-20.521-35.377-46.718-35.377c-22.176,0-40.28,11.137-45.316,26.588h-41.251L351.524,191.863z M254.651,21.719c17.731,21.105,28.114,51.61,28.114,83.519s-10.383,62.413-28.114,83.519 c-17.731-21.104-28.114-51.609-28.114-83.519S236.921,42.823,254.651,21.719z M172.039,233.717c0-15.523,8.317-29.139,17.799-29.139 s17.798,13.616,17.798,29.139s-8.316,29.139-17.798,29.139S172.039,249.24,172.039,233.717z M94.721,311.035 c0-15.523,8.317-29.139,17.799-29.139s17.798,13.616,17.798,29.139c0,15.523-8.316,29.139-17.798,29.139 S94.721,326.557,94.721,311.035z M181.456,439.49c15.523,0,29.139,8.317,29.139,17.799c0,9.482-13.617,17.799-29.139,17.799 s-29.139-8.317-29.139-17.799C152.317,447.807,165.933,439.49,181.456,439.49z M309.743,364.169c31.91,0,62.415,10.383,83.52,28.114 c-21.105,17.731-51.61,28.114-83.52,28.114c-31.909,0-62.413-10.383-83.519-28.114C247.33,374.551,277.835,364.169,309.743,364.169z M384.415,236.531c15.523,0,29.139,8.316,29.139,17.798c0,9.482-13.616,17.799-29.139,17.799c-15.523,0-29.139-8.317-29.139-17.799 S368.893,236.531,384.415,236.531z M396.169,95.029c22.562-22.563,51.475-36.79,78.936-39.177 c-2.386,27.46-16.614,56.373-39.178,78.936c-22.562,22.563-51.475,36.79-78.936,39.177 C359.378,146.505,373.605,117.592,396.169,95.029z"></path></svg>