<!-- icon666.com - MILLIONS OF FREE VECTOR ICONS --><svg id="Layer_1" enable-background="new 0 0 50 50" viewBox="0 0 50 50" xmlns="http://www.w3.org/2000/svg"><g id="_x37_0"><g><g><path d="m46.1828423 39.1383591c0 .4100342-.3300781.75-.75.75h-5.3257599c-.2672729 0-.401123.3231506-.2121277.5121384l2.1279755 2.1278763c.2897949.2999268.2897949.7700195 0 1.0599365-.31147.31147-.8039436.2748833-1.0600586 0l-3.1245041-3.1160736c-.3749161-.3739052-.8828049-.5838776-1.4123001-.5838776h-24.8560305c-.3182592 0-.6234846.1264267-.8485279.3514709l-3.738616 3.738617c-.2831955.2827034-.7344122.3034058-1.0600586 0-.2900391-.3000488-.2900391-.7700195 0-1.0600586l2.5178967-2.5178986c.1889896-.1889877.0551395-.5121307-.2121315-.5121307h-2.6158238c-.4099121 0-.75-.3399658-.75-.75 0-.4199219.3400879-.75.75-.75h6.1601563l-1.5800781-1.5899658c-.3000488-.2900391-.3000488-.7600098 0-1.0599365.2900391-.2900391.7600098-.2900391 1.0600586 0l2.2691412 2.2691422c.2437973.2437973.5744572.3807602.919239.3807602h30.9915504c.4199209-.0000001.7499991.330078.7499991.7499999z" fill="#e4e3ff"></path></g></g><g fill="#b75f25"><path d="m35.2334709 10.7633934c-.4032364.5469866-.4704857 1.2571659-.2207146 1.8810053.6045074 1.5355206.8732567 3.2437258.7099457 5.0288992-.4798584 4.9712601-4.4625835 9.0500507-9.4242363 9.6259747-6.5261116.7773075-12.0732956-4.3187199-12.0732956-10.6817551 0-1.4011478.2783546-2.7446556.7582121-3.9635124.2495356-.6334457.1726837-1.3532314-.2207155-1.8906116-.8444366-1.161335-1.4972124-2.3992882-1.9482508-3.6757851-.316781-.8924699.7486067-1.6506824 1.4491796-1.0269613.8444376.7678194 1.775568 1.3628383 2.7352829 1.8139935.6333275.297451 1.3723278.2303228 1.9480171-.1631937 3.751646-2.5637689 8.5806999-2.4268618 12.0925083 0 .575922.4031229 1.3341351.4606447 1.9578571.1631937.9693222-.4607615 1.9194298-1.0846004 2.7830811-1.8523021.6912003-.6046257 1.717926.1343741 1.4203606.998024-.4510383 1.3053163-1.1131858 2.5720886-1.9672317 3.7430309z"></path><path d="m24.9826488 24.3778229c-4.2783203 0-7.7578125-3.4814453-7.7578125-7.7607422 0-.9746084.1845703-1.937499.5498047-2.8623037.3466797-.8818359.4375-1.8134766.2851563-2.7011719.9238281-.0419922 1.8115234-.3398438 2.5810547-.8662109 1.2900391-.8808594 2.7988281-1.3476563 4.3623047-1.3476563 1.5644531 0 3.0625.4628906 4.3300781 1.3398438.7617188.53125 1.6591797.8349609 2.5996094.8769531-.1523438.8886719-.0576172 1.8222656.29492 2.703125.4501953 1.1435547.6230469 2.3740225.5078125 3.6416006-.3417969 3.5283203-3.2578106 6.5087891-6.7832012 6.9179688-.3291017.040039-.6523438.0585937-.9697267.0585937z"></path></g><g><path d="m37.2028618 7.021378c-.0500488.1499023-.1000977.289917-.1601563.4399414-.2897949-.3499756-.8398438-.4899902-1.2597656-.1199951-.8701172.77002-1.8200684 1.3900151-2.7900391 1.8499761-.6201172.3000488-1.380125.2399902-1.9501934-.1599121-3.5278931-2.4346189-8.3563805-2.5534978-12.0998535 0-.5700684.3898926-1.3100586.4599609-1.9399414.1599121-.9602051-.4499512-1.8901367-1.0400391-2.7399902-1.8100591-.4301758-.3798828-.9899902-.2399902-1.2900391.1201172-.6560774-1.5295124.6767855-1.9830751 1.2900391-1.4400635.8498535.7700195 1.7797852 1.3599854 2.7399902 1.8100586.6298828.2999272 1.369873.2299809 1.9399414-.1600342 3.7441063-2.5536647 8.5722866-2.4341426 12.0998535 0 .5700684.4000249 1.3300762.4599614 1.9501934.1600342.9699707-.460083 1.9199219-1.0799561 2.7900391-1.8499756.6899414-.6000976 1.7199707.1398926 1.4199219 1z" fill="#aa5821"></path></g><path d="m47.1204453 23.7038536c-.1208954 0-.2404327-.019928-.3506927-.0305481 2.3669434 1.1834278 1.4003143 4.9958496-1.2698784 4.6610546l-.0212097-.0026588c-.1687622-.0132809-.3002319.1474571-.2404327.3055191.2747841.7328224.2364578 1.5956726-.4067917 2.5885715-.0178185.0197086-.0378838.0419025-.055706.0616112-1.1020966.8778-2.2889061.8486481-3.1360321.3381996-.1349487-.081316-.3213654-.0056496-.3511505.1490631-.2082901 1.0819168-1.1576538 1.8995171-2.3080597 1.8995171-.6853676 0-1.3309746-.332077-1.7626801-.8049507-.0929413-.1009521-.2456856-.103611-.3427124-.0079613-.4724236.4711952-1.1635857.7129822-1.899189.6556473-1.0764503-.0839043-2.0019188-.948761-2.1471634-2.0186615-.1971817-1.4524765.9165993-2.6843758 2.3315392-2.6843758h-20.320572c1.3800735 0 2.4799557 1.1901817 2.3298702 2.6101437-.0996227 1.0692997-.9590721 1.9393368-2.0297022 2.0801296-.7743702.0969772-1.4929047-.1447334-1.9870348-.644104-.138751.0037346-.1987209.0053482-.337471.0090828-1.2757807 1.4488106-3.7325439.8514404-4.1124668-1.0890751-.0308981-.157814-.2202511-.2349129-.357831-.1516533-.4735279.2865639-1.0498176.4198818-1.6715331.3243484-.7698307-.9251041-1.3033233-1.5662022-2.0731535-2.4913063.0057821-.2905483.0599446-.564888.1574187-.822897.0584378-.1580772-.0730963-.3188-.2417951-.3055191-.0053186 0-.010572 0-.0158906.0013294-2.7043004.1471004-3.6257699-3.4866943-1.2805145-4.6610546-.1102604.0106202-.2297959.0305482-.3493964.0305482-1.0307418 0-1.870214-.839489-1.870214-1.87957 0-.8408184.5499408-1.5501347 1.3097012-1.7905674.2895961-.0903168.6004014-.0704041.8899975.019928 1.2008026.3506775 5.4699631 1.510294 9.349968 1.4598179.0704374.0106201.1301727 0 .1899729 0h24.5100861c.0797119.0106201.1607208.0106201.2404327.0106201 3.8693657.0292206 8.1093407-1.1197605 9.2995071-1.470438 1.1371877-.3547192 2.2103345.6368694 2.2103345 1.7706394 0 1.040081-.8394737 1.87957-1.8795547 1.87957z" fill="#b75f25"></path><g fill="#aa5821"><path d="m4.6127758 28.3513336c-.0300293-.0200195-.0598145-.0200195-.0998535-.0200195h-.0100098c-1.6460094.0906544-2.9992819-1.4428043-2.5300293-3.1099854.3198241 1.0800781 1.3698729 1.8300781 2.5300293 1.7700195h.0100098c.1699219-.0200195.2998047.1398926.2399902.3000488-.1201172.3299561-.1799316.6799317-.1401367 1.0599366z"></path><path d="m17.0927563 30.501358c.0800781.2900391.1101074.5999756.0800781.9199219-.0998535 1.0700684-.9599609 1.9400635-2.0300293 2.0800781-.7800293.0999756-1.5-.1400146-1.9899902-.6400146-.1398926 0-.1999512 0-.3400879.0100098-1.2570524 1.4326553-3.7315941.8557014-4.1098633-1.0899658-.0300293-.1600342-.2099609-.2399902-.3500977-.1600342-1.5931029.9745789-4.403482-.0483398-3.6699219-2.7800293.0700684.3099365.1999512.6300049.3798828.9799805.0102539.0300293.0300293.0599365.0600586.0799561 1.1899414.9200439 2.380127.9001465 3.2299805.380127.1401367-.0900879.3200684-.0100098.3500977.1499023.2099609 1.0800781 1.1699219 1.9000244 2.3100586 1.9000244.7199707 0 1.369873-.3199463 1.7998047-.8099365.1401367 0 .2001953 0 .3400879-.0100098.4899902.5 1.2099609.7399902 1.9899902.6499023.9301758-.1198731 1.6899414-.7899171 1.9499512-1.6599122z"></path><path d="m45.3127251 28.8513336c.1901855.6800537.1000977 1.4699707-.4799805 2.3800049-.0200195.0200195-.0400391.0400391-.0598145.0600586-1.1000977.8798828-2.2900391.8398438-3.1401367.3299561-.1398926-.0799561-.3098145 0-.3498535.1600342-.2001953 1.0799561-1.1501465 1.8898926-2.3000488 1.8898926-.6901855 0-1.3300781-.3299561-1.7700195-.7999268-.0900879-.0999756-.2399902-.1099854-.3400879-.0100098-.5.5-1.2399902.7399902-2.0200195.6400146-1.0600586-.1400146-1.9199219-1.0100098-2.0297852-2.0800781-.0302734-.3199463 0-.6298828.0898438-.9199219.2600098.8699951 1.0200195 1.5400391 1.9399414 1.6599121.7800293.0900879 1.5200195-.1499023 2.0200195-.6499023.1000977-.0900879.25-.0900879.3400879.0100098.4399414.4699707 1.079834.8099365 1.7700195.8099365 1.1499023 0 2.0998535-.8199463 2.3000488-1.9000244.0400391-.1599121.2099609-.2399902.3498535-.1499023.8500977.5100098 2.0400391.539917 3.1401367-.3400879l.0598145-.0600586c.2299805-.3598633.3901367-.6999512.4799805-1.0299073z"></path><path d="m48.0329399 25.2013092c.0898438.3200684.1098633.6700439.0598145 1.0300293-.1799316 1.25-1.329834 2.1699219-2.5898438 2.0999756-.0100098 0-.0200195 0-.0200195 0-.0300293 0-.0600586 0-.0900879.0200195.0300293-.3800049-.0300293-.7299805-.1499023-1.0599365-.0600586-.1601563.0698242-.3200684.2399902-.3100586 0 .0100098.0100098.0100098.0200195.0100098 1.1499024.0600586 2.209961-.6999512 2.5300293-1.7900391z"></path><path d="m16.9628735 28.8112946c.1799316.3800049.2600098.8100586.2099609 1.2700195-.0100098.1400146-.0400391.2900391-.0800781.4200439-.2897949-.9799805-1.1799316-1.6900635-2.25-1.6900635h2.1201172z"></path><path d="m33.0427055 28.8112946h2.1201172c-1.0700684 0-1.9699707.710083-2.25 1.6900635-.0500488-.1300049-.0800781-.2800293-.0898438-.4200439-.0500488-.4599611.0297852-.8900148.2197266-1.2700196z"></path><path d="m45.3928032 28.3513336c-.0100098.1600342-.0400391.3199463-.0800781.4899902-.0200195-.0699463-.0498047-.1400146-.0698242-.2000732-.0500489-.1298828.0300292-.2600098.1499023-.289917z"></path><path d="m38.5180626 26.6769085c0 2.1688499-.5168037 4.2184258-1.4267387 6.0338802-.0309258-.0309486-.0530052-.0663223-.0750847-.0971642-.4947243.6272049-1.2898369.9982872-2.1644287.8878555-1.0645294-.1369591-1.9258842-1.0115509-2.0318909-2.0804729-.1457748-1.4135284.9540977-2.6061993 2.3366776-2.6061993h-20.3190184c1.3825788 0 2.4824514 1.1926708 2.3366766 2.6061993-.1060066 1.068922-.9673634 1.9435139-2.0318909 2.0804729-.8745928.1104317-1.6697063-.2606506-2.1644278-.8878555-.013237.0176849-.0220804.0353699-.0397396.0530586-.9011211-1.8066654-1.4090805-3.8386116-1.4090805-5.9897747 0-1.8287182.3666334-3.5690594 1.0247879-5.1592865.0662422.0044212.128089 0 .1899357 0h24.5064964c.0795059.0044212.1590118.0044212.242939.0044212.6581793 1.585806 1.024787 3.3305684 1.024787 5.1548654z"></path></g><path d="m37.1927605 26.6750679c0 6.7216797-5.4470711 12.1686974-12.1687508 12.1686974-6.7216625 0-12.1715927-5.4470177-12.1715927-12.1686974s5.4499302-12.168767 12.1715927-12.168767c6.7216797 0 12.1687508 5.4470873 12.1687508 12.168767z" fill="#b75f25"></path><path d="m35.5621758 26.8251076c0 5.8210945-4.7172623 10.538311-10.5383568 10.538311-5.8210793 0-10.5408163-4.7172165-10.5408163-10.538311s4.7197371-10.5383682 10.5408163-10.5383682c5.8210945-.0000001 10.5383568 4.7172737 10.5383568 10.5383682z" fill="#aa5821"></path><g opacity=".3"><g><path d="m28.7551098 34.7577057c-.1318359-.2421875-.0419922-.5458984.2011719-.6777344 2.0751953-1.1269531 3.5712872-3.0888672 4.1035137-5.3818359.0625-.2685547.328125-.4365234.6005859-.3740234.2685547.0625.4365234.3310547.3740234.6005859-.5976563 2.5712891-2.2744122 4.7705078-4.6015606 6.0341797-.2389926.1303596-.5442371.0442924-.6777343-.2011719z" fill="#fff"></path></g><g><path d="m33.7590141 27.8338776c-.0097656 0-.0195313 0-.0292969-.0009766-.2753906-.015625-.4863281-.2519531-.4697266-.5283203.0087891-.1582031.0136719-.3183594.0136719-.4794922 0-.2763672.2236328-.5.5-.5s.5.2236328.5.5c0 .1806641-.0048828.3603516-.015625.5380859-.0156249.265625-.2353515.4707032-.4990234.4707032z" fill="#fff"></path></g></g><path d="m32.9528618 19.8912506c-1.8500957-1.619873-4.2700176-2.5998535-6.9299297-2.5998535-5.8200684 0-10.5400391 4.7099609-10.5400391 10.5299072 0 2.6400146.9699707 5.0500488 2.5700684 6.9000244-2.1901855-1.9299316-3.5700684-4.7600098-3.5700684-7.9000244 0-5.8199463 4.7199707-10.5299072 10.5400391-10.5299072 3.1599121 0 6 1.3898926 7.9299297 3.5998535z" fill="#994f1d"></path><g><g><path d="m24.0905304 15.4654818c0 2.337039-1.892765 4.2297697-4.2268772 4.2297697s-4.2268772-1.8927307-4.2268772-4.2297697c0-2.3341475 1.892767-4.2268772 4.2268772-4.2268772s4.2268772 1.8927297 4.2268772 4.2268772z" fill="#e4e3ff"></path><path d="m23.8061848 14.7161818c0 1.7652712-1.4296894 3.1949339-3.1927471 3.1949339-1.7630596 0-3.192749-1.4296627-3.192749-3.1949339 0-1.7630854 1.4296894-3.1927481 3.192749-3.1927481 1.7630577 0 3.1927471 1.4296627 3.1927471 3.1927481z" fill="#7979f7"></path><path d="m23.0029125 12.6113443c-.5600586-.5-1.3000488-.8000488-2.1000977-.8000488-1.7600098 0-3.1899414 1.4300537-3.1899414 3.1900635 0 .7800293.2800293 1.4899893.7299805 2.0400381-.630127-.5700684-1.0200195-1.4001455-1.0200195-2.3300772 0-1.7600098 1.4299316-3.1899414 3.1899414-3.1899414.9602051 0 1.8200684.4199219 2.3901367 1.0899658z" fill="#5e5eef"></path><path d="m22.7328033 14.7165489c0 1.1717978-.9490376 2.1208172-2.1193657 2.1208172-1.17033 0-2.1193676-.9490194-2.1193676-2.1208172 0-1.1703463.9490376-2.1193657 2.1193676-2.1193657 1.1703282 0 2.1193657.9490195 2.1193657 2.1193657z" fill="#474646"></path><path d="m19.9228954 13.4063473c0 .3428936-.27771.6205969-.6201744.6205969-.3424625 0-.6201725-.2777033-.6201725-.6205969 0-.3424692.27771-.6201735.6201725-.6201735.3424645 0 .6201744.2777043.6201744.6201735z" fill="#f3fcff"></path></g><g><path d="m34.4084015 15.4654818c0 2.337039-1.892765 4.2297697-4.2268772 4.2297697s-4.2268772-1.8927307-4.2268772-4.2297697c0-2.3341475 1.892765-4.2268772 4.2268772-4.2268772s4.2268772 1.8927297 4.2268772 4.2268772z" fill="#e4e3ff"></path><path d="m34.124054 14.7161818c0 1.7652712-1.4296875 3.1949339-3.1927471 3.1949339-1.7630577 0-3.1927471-1.4296627-3.1927471-3.1949339 0-1.7630854 1.4296894-3.1927481 3.1927471-3.1927481 1.7630596 0 3.1927471 1.4296627 3.1927471 3.1927481z" fill="#7979f7"></path><path d="m33.322979 12.6113443c-.5600586-.5-1.3000488-.8000488-2.1000957-.8000488-1.7700195 0-3.1999512 1.4300537-3.1999512 3.1900635 0 .7700195.2697754 1.4799795.7199707 2.0300283-.6201172-.5800781-1-1.4001455-1-2.3200674 0-1.7600098 1.4299316-3.1899414 3.1899414-3.1899414.9599609 0 1.8200664.4199219 2.3901348 1.0899658z" fill="#5e5eef"></path><path d="m33.0506744 14.7165489c0 1.1717978-.9490395 2.1208172-2.1193676 2.1208172s-2.1193657-.9490194-2.1193657-2.1208172c0-1.1703463.9490376-2.1193657 2.1193657-2.1193657s2.1193676.9490195 2.1193676 2.1193657z" fill="#474646"></path><path d="m30.2407646 13.4063473c0 .3428936-.2777081.6205969-.6201725.6205969s-.6201725-.2777033-.6201725-.6205969c0-.3424692.2777081-.6201735.6201725-.6201735s.6201725.2777043.6201725.6201735z" fill="#f3fcff"></path></g></g><g><g><path d="m19.3540363 38.2750549c0 1.1917038-.4172535 2.1605568-.9345245 2.1605568-.51441 0-.9345245-.968853-.9345245-2.1605568 0-1.194561.4201145-2.1633453.9345245-2.1633453.517271 0 .9345245.9687843.9345245 2.1633453z" fill="#f9b938"></path><g><path d="m21.2230663 38.2750549c0 1.1917038-.4172516 2.1605568-.9345226 2.1605568-.5144119 0-.9345074-.968853-.9345074-2.1605568 0-1.194561.4200954-2.1633453.9345074-2.1633453.517271 0 .9345226.9687843.9345226 2.1633453z" fill="#f9b938"></path></g><g><path d="m23.0949593 38.2750549c0 1.1917038-.4200974 2.1605568-.9345074 2.1605568-.517271 0-.9373856-.968853-.9373856-2.1605568 0-1.194561.4201145-2.1633453.9373856-2.1633453.51441 0 .9345074.9687843.9345074 2.1633453z" fill="#f9b938"></path></g></g><g><path d="m28.820652 38.2750549c0 1.1917038-.4172535 2.1605568-.9345245 2.1605568-.51441 0-.9345245-.968853-.9345245-2.1605568 0-1.194561.4201145-2.1633453.9345245-2.1633453.517271 0 .9345245.9687843.9345245 2.1633453z" fill="#f9b938"></path><g><path d="m30.689682 38.2750549c0 1.1917038-.4172535 2.1605568-.9345245 2.1605568-.51441 0-.9345055-.968853-.9345055-2.1605568 0-1.194561.4200954-2.1633453.9345055-2.1633453.517271 0 .9345245.9687843.9345245 2.1633453z" fill="#f9b938"></path></g><g><path d="m32.561573 38.2750549c0 1.1917038-.4200974 2.1605568-.9345055 2.1605568-.517271 0-.9373856-.968853-.9373856-2.1605568 0-1.194561.4201145-2.1633453.9373856-2.1633453.5144082 0 .9345055.9687843.9345055 2.1633453z" fill="#f9b938"></path></g></g></g><g><g fill="#aa5821"><g><path d="m8.2722168 24.2323093c.0161133.2336426-.1318359.4691162-.3547363.6004639-.4618535.296833-1.160646.0112438-1.2751465-.5340576-.0625-.2513428.0014648-.5222168.1804199-.6741943.0655623.8042163.8301883 1.1277446 1.4494629.607788z"></path><path d="m10.6726074 27.04249c.0163574.2336426-.1315918.4691162-.3544922.6004639-.4626932.2976284-1.1612053.0096054-1.2753906-.5339355-.0622559-.2513428.001709-.5223389.1806641-.6743164.0651159.798746.8264312 1.1310596 1.4492187.607788z"></path><path d="m7.6188965 27.1112156c.0163574.2336426-.1318359.4691162-.3547363.6005859-.4631286.2976513-1.1609602.0094891-1.2751465-.5340576-.0622559-.2513428.001709-.5222168.1804199-.6741943.0655742.8041458.8303533 1.1274833 1.4494629.607666z"></path></g><g><path d="m41.7219238 24.2323093c.3493652.293335.6743164.2965088.9321289.1904297.2556152-.1107178.4802246-.3430176.517334-.7982178.1789551.1519775.2429199.4228516.1806641.6741943-.0539551.256958-.2570801.4776611-.5048828.5848389-.2502441.1009521-.5498047.0910645-.7705078-.0507813-.2229004-.1313475-.3708497-.3668212-.3547364-.6004638z"></path><path d="m39.3215332 27.04249c.3491211.293335.6743164.2966309.9318848.1904297.2556152-.1105957.4802246-.3430176.517334-.7982178.1789551.1519775.2429199.4229736.1806641.6743164-.0539551.2568359-.2568359.4776611-.5048828.5847168-.25.1010742-.5498047.0911865-.7705078-.0507813-.2226564-.1313476-.3708497-.3668212-.3544923-.6004638z"></path><path d="m42.3752441 27.1112156c.3493652.293335.6743164.2966309.9318848.1904297.2558594-.1105957.4804688-.3430176.5175781-.7980957.1787109.1519775.2429199.4228516.1804199.6741943-.0539551.2568359-.2568359.4776611-.5046387.5848389-.2502441.1009521-.5498047.0910645-.7705078-.0507813-.2229003-.1314697-.3708495-.3669433-.3547363-.6005859z"></path></g></g></g><g><path d="m26.5756283 16.029335c0 1.3648396-.6802368 3.1044903-1.5239334 3.1044903-.843668 0-1.528326-1.7396507-1.528326-3.1044903 0-1.3605251.6846581-1.8294621 1.528326-1.8294621.8436966.0000001 1.5239334.468937 1.5239334 1.8294621z" fill="#f9b938"></path></g><g><path d="m26.5729809 16.0313873c0 1.3598633-.6801758 3.0998535-1.5200195 3.0998535-.3300781 0-.6401367-.2799072-.8901367-.6899414.0900879.0400391.1699219.0600586.2600098.0600586.8400879 0 1.5200195-1.7399902 1.5200195-3.1000967 0-.4399414-.0700684-.7799072-.1899414-1.0499268.4899902.2199708.8200683.7299805.8200683 1.6800528z" fill="#ecb021"></path></g><g fill="#994f1d"><g><path d="m19.1010742 24.2923679c.1054688.2487793.0437012.5628662-.1398926.7978516-.1772461.2441406-.4892578.3843994-.7978516.3880615-.3088379-.0024414-.6218262-.1425781-.7993164-.387085-.1833496-.2359619-.2441406-.5500488-.1379395-.7988281.2077637.4871826.5761719.685791.9367676.6861572.3605958.0000001.7316896-.1993408.9382325-.6861572z"></path><path d="m22.5305176 24.2923679c.1054688.2487793.0437012.5628662-.1398926.7978516-.1772461.2441406-.4890137.3843994-.7978516.3880615-.3088379-.0024414-.621582-.1425781-.7990723-.387085-.1833496-.2359619-.2443848-.5500488-.1381836-.7988281.2080078.4871826.5761719.685791.9367676.6861572.3608399.0000001.7316895-.1993408.9382325-.6861572z"></path><path d="m25.9602051 24.2923679c.1054688.2487793.043457.5628662-.1398926.7978516-.1772461.2441406-.4892578.3843994-.7978516.3880615-.309082-.0024414-.6218262-.1425781-.7993164-.387085-.1833496-.2359619-.2443848-.5500488-.1379395-.7988281.2077637.4871826.5761719.685791.9365234.6861572.36084.0000001.7316896-.1993408.9384767-.6861572z"></path><path d="m29.3896484 24.2923679c.1054688.2487793.0437012.5628662-.1398926.7978516-.1772461.2441406-.4890137.3843994-.7978516.3880615-.3088379-.0024414-.6218262-.1425781-.7990723-.387085-.1835938-.2359619-.2443848-.5500488-.1381836-.7988281.2077637.4871826.5761719.685791.9367676.6861572.36084.0000001.7316896-.1993408.9382325-.6861572z"></path><path d="m32.8190918 24.2923679c.1057129.2487793.0437012.5628662-.1398926.7978516-.177002.2441406-.4890137.3843994-.7978516.3880615-.3088379-.0024414-.621582-.1425781-.7990723-.387085-.1833496-.2359619-.2443848-.5500488-.1381836-.7988281.2080078.4871826.576416.685791.9367676.6861572.3608399.0000001.7316895-.1993408.9382325-.6861572z"></path></g><g><path d="m22.5305176 31.3837986c.1054688.2487793.0437012.5628662-.1398926.7978497-.1772461.2441406-.4890137.3843994-.7978516.3880615-.3088379-.0024414-.621582-.1425781-.7990723-.387085-.1833496-.23596-.2443848-.5500469-.1381836-.7988262.2080078.4871826.5761719.6857891.9367676.6861553.3608399 0 .7316895-.1993389.9382325-.6861553z"></path><path d="m25.9602051 31.3837986c.1054688.2487793.043457.5628662-.1398926.7978497-.1772461.2441406-.4892578.3843994-.7978516.3880615-.309082-.0024414-.6218262-.1425781-.7993164-.387085-.1833496-.23596-.2443848-.5500469-.1379395-.7988262.2077637.4871826.5761719.6857891.9365234.6861553.36084 0 .7316896-.1993389.9384767-.6861553z"></path><path d="m29.3896484 31.3837986c.1054688.2487793.0437012.5628662-.1398926.7978497-.1772461.2441406-.4890137.3843994-.7978516.3880615-.3088379-.0024414-.6218262-.1425781-.7990723-.387085-.1835938-.23596-.2443848-.5500469-.1381836-.7988262.2077637.4871826.5761719.6857891.9367676.6861553.36084 0 .7316896-.1993389.9382325-.6861553z"></path></g><g><path d="m20.8156738 27.8380222c.1057129.2487793.0437012.5628662-.1398926.7979736-.177002.2440186-.4890137.3842773-.7978516.3879395-.3088379-.0024414-.621582-.1425781-.7990723-.387085-.1833496-.2358398-.2443848-.5500488-.1381836-.7988281.2080078.4871826.576416.685791.9367676.6862793.36084 0 .7316896-.1994629.9382325-.6862793z"></path><path d="m24.2453613 27.8380222c.1054688.2487793.0437012.5628662-.1398926.7979736-.1772461.2440186-.4890137.3842773-.7978516.3879395-.3088379-.0024414-.6218262-.1425781-.7993164-.387085-.1833496-.2358398-.2441406-.5500488-.1379395-.7988281.2077637.4871826.5761719.685791.9367676.6862793.3605958 0 .7316896-.1994629.9382325-.6862793z"></path><path d="m27.6748047 27.8380222c.1057129.2487793.0437012.5628662-.1398926.7979736-.1772461.2440186-.4890137.3842773-.7978516.3879395-.3088379-.0024414-.621582-.1425781-.7990723-.387085-.1833496-.2358398-.2443848-.5500488-.1381836-.7988281.2080078.4871826.576416.685791.9367676.6862793.3608399 0 .7316895-.1994629.9382325-.6862793z"></path><path d="m31.1044922 27.8380222c.1054688.2487793.0437012.5628662-.1398926.7979736-.1772461.2440186-.4892578.3842773-.7978516.3879395-.3088379-.0024414-.6218262-.1425781-.7993164-.387085-.1833496-.2358398-.2441406-.5500488-.1379395-.7988281.2077637.4871826.5761719.685791.9367676.6862793.3605958 0 .7314454-.1994629.9382325-.6862793z"></path></g></g><g opacity=".3"><g><path d="m8.4553051 23.1219635c-.2617188-.0351563-.5214844-.0742188-.7763672-.1142578-.2724609-.0439453-.4580078-.2998047-.4150391-.5732422.0449219-.2734375.2919922-.4560547.5732422-.4150391.2470703.0400391.4990234.0771484.7529297.1123047.2734375.0371094.4658203.2890625.4277344.5625-.0392942.2885323-.3147125.470829-.5625.4277344z" fill="#fff"></path></g><g><path d="m6.0832348 22.7196198c-1.2910156-.2578125-2.3691409-.5341797-3.0478518-.7197266-.265625-.0732422-.4228516-.3486328-.3496094-.6152344.0732422-.265625.3476563-.4189453.6152344-.3496094.6621094.1826172 1.7167971.4521484 2.9775393.7041016.2714844.0537109.4462891.3173828.3925781.5878906-.0551267.2745075-.3220949.4473019-.5878906.3925782z" fill="#fff"></path></g></g><g opacity=".3"><g><path d="m43.1372223 22.7196198c1.2910156-.2578125 2.3691406-.5341797 3.0478516-.7197266.265625-.0732422.4228516-.3486328.3496094-.6152344-.0732422-.265625-.3476563-.4189453-.6152344-.3496094-.6621094.1826172-1.7167969.4521484-2.9775391.7041016-.2714844.0537109-.4462891.3173828-.3925781.5878906.0551262.2745075.3220939.4473019.5878906.3925782z" fill="#fff"></path></g></g><g opacity=".3"><path d="m20.5822582 9.8368082c-.1777344 0-.3505859-.0957031-.4404297-.2636719-.1308594-.2431641-.0400391-.5458984.2041016-.6767578 1.4638672-.7871094 3.1113281-1.1113286 4.7685547-.9355474.2744141.0292969.4736328.2753911.4443359.5498052s-.2851563.4658203-.5498047.4443359c-1.4570313-.1523438-2.9023438.1308594-4.1904297.8222656-.0751953.0400392-.15625.0595704-.2363281.0595704z" fill="#fff"></path></g></g></svg>