<!-- icon666.com - MILLIONS OF FREE VECTOR ICONS --><svg viewBox="0 0 52 60" xmlns="http://www.w3.org/2000/svg"><g id="Page-1" fill="none" fill-rule="evenodd"><g id="018---Owl" fill-rule="nonzero" transform="translate(0 -1)"><g id="Icons" transform="translate(1 2)"><path id="Shape" d="m46 6c-.108777 2.4491847-.5667325 4.8702878-1.36 7.19-2.9007606-3.68128052-7.8154979-5.12027515-12.2436684-3.58484537-4.4281705 1.53542977-7.3971358 5.70803007-7.3963316 10.39484537.0008042-4.6868153-2.9681611-8.8594156-7.3963316-10.39484537-4.4281705-1.53542978-9.34290778-.09643515-12.2436684 3.58484537-.79326746-2.3197122-1.25122297-4.7408153-1.36-7.19 0-4 1-6 3-6s3 3 7 2c5.9-1.48 6-2 11-2s5.1.52 11 2c4 1 5-2 7-2s3 2 3 6z" fill="#a0522d"></path><path id="Shape" d="m12.492 9.113c-.4941744-.07164786-.9926716-.10940268-1.492-.113" fill="#783e22"></path><path id="Shape" d="m43 0c-.5446076.02809495-1.0689721.215517-1.508.539.998.829 1.508 2.635 1.508 5.461-.0442212 1.68234702-.2886082 3.3534441-.728 4.978.8938908.6167795 1.6918267 1.3621487 2.368 2.212.7932675-2.3197122 1.251223-4.7408153 1.36-7.19 0-4-1-6-3-6z" fill="#783e22"></path><path id="Shape" d="m33 9c-3.9152503-.00113967-7.5348868 2.0826279-9.5 5.469.9825428 1.6776463 1.5003046 3.5868067 1.5 5.531-.0004379-5.4965477 4.0614222-10.14752273 9.508-10.887-.4994872-.07214293-1.0033392-.10989842-1.508-.113z" fill="#783e22"></path><path id="Shape" d="m46.63 46.54c-2.1606018 3.3763482-5.1260599 6.1631228-8.63 8.11v-1.65c0-.5522847-.4477153-1-1-1h-2c-.5522847 0-1 .4477153-1 1 0-.5522847-.4477153-1-1-1h-2c-.5522847 0-1 .4477153-1 1v3c-.0028231.5305905.2101411 1.0395388.59 1.41-3.6851507.7866799-7.4948493.7866799-11.18 0 .3798589-.3704612.5928231-.8794095.59-1.41v-3c0-.5522847-.4477153-1-1-1h-2c-.5522847 0-1 .4477153-1 1 0-.5522847-.4477153-1-1-1h-2c-.5522847 0-1 .4477153-1 1v1.65c-3.50394011-1.9468772-6.46939824-4.7336518-8.63-8.11h.01c3.2-6.73 11.67-11.54 21.62-11.54s18.42 4.81 21.62 11.54z" fill="#ffe0b2"></path><path id="Shape" d="m46.62 46.54c-3.2-6.73-11.67-11.54-21.62-11.54-.5 0-1 .021-1.5.045 9.293.457 17.082 5.107 20.12 11.495h.01c-1.5158597 2.376324-3.4425724 4.4638782-5.69 6.165.0351672.0946297.0554089.1941514.06.295v1.65c3.5039401-1.9468772 6.4693982-4.7336518 8.63-8.11z" fill="#dfc49c"></path><path id="Shape" d="m50 35c-.004139 4.0887173-1.1731004 8.0916296-3.37 11.54h-.01c-3.2-6.73-11.67-11.54-21.62-11.54s-18.42 4.81-21.62 11.54h-.01c-4.53631258-7.1026726-4.48935555-16.2045105.12-23.26 1.09968637 3.5090657 3.87811493 6.2378194 7.4064464 7.2740283 3.5283316 1.0362089 7.3410517.2431597 10.1635536-2.1140283 1.18 1.45 2.72 2.56 3.94 2.56s2.76-1.11 3.94-2.56c2.8225019 2.357188 6.635222 3.1502372 10.1635536 2.1140283 3.5283315-1.0362089 6.30676-3.7649626 7.4064464-7.2740283 2.2747074 3.4858197 3.487221 7.5576419 3.49 11.72z" fill="#a0522d"></path><g fill="#783e22"><path id="Shape" d="m22 31c.5287709-.0240093 1.0436823-.1767663 1.5-.445-.9402869-.5436216-1.7683857-1.2614204-2.44-2.115-.5625946.4671271-1.1702516.8771449-1.814 1.224.740174.7444186 1.7111734 1.2154627 2.754 1.336z"></path><path id="Shape" d="m33 31c.5052773-.0024795 1.0097915-.0395663 1.51-.111-2.0511026-.2724541-3.9826785-1.1217232-5.57-2.449-.3597301.4410525-.7565082.8505435-1.186 1.224 1.6091476.8777398 3.4130292 1.3371347 5.246 1.336z"></path><path id="Shape" d="m46.51 23.28c-.3258046 1.0358628-.8036874 2.0175781-1.418 2.913 2.561694 5.6404879 2.5430789 12.1163325-.051 17.742.6088132.8138093 1.1376015 1.6845184 1.579 2.6h.01c4.5363126-7.1026726 4.4893555-16.2045105-.12-23.26z"></path><path id="Shape" d="m11 31c.4985983-.0034352.9963963-.0405195 1.49-.111-4.2202623-.5796879-7.72641891-3.5439486-9-7.609-.59973544.9298956-1.12856518 1.903651-1.582 2.913 2.04648747 3.0103746 5.45188302 4.8108296 9.092 4.807z"></path><path id="Shape" d="m22 35c-8.609 0-16.1 3.6-20.041 8.935.41197154.89709.88335224 1.7656866 1.411 2.6h.01c3.038-6.383 10.827-11.035 20.12-11.49-.5-.024-.995-.045-1.5-.045z"></path></g><path id="Shape" d="m47 20c.0021742 1.1084491-.1630209 2.2108736-.49 3.27v.01c-1.0996864 3.5090657-3.8781149 6.2378194-7.4064464 7.2740283-3.5283316 1.0362089-7.3410517.2431597-10.1635536-2.1140283.7439453-.8669644 1.3082047-1.8731136 1.66-2.96.2969674-.9606017-.1653908-1.9923455-1.08-2.41-1.3696984-.6156868-2.8406959-.9749627-4.34-1.06-.9306151-4.9786462 1.658594-9.9492331 6.2717572-12.0400912 4.6131632-2.09085813 10.0577488-.76148755 13.1882428 3.2200912 1.5332941 1.9382676 2.3651254 4.3385944 2.36 6.81z" fill="#ffe0b2"></path><path id="Shape" d="m44.64 13.19c-2.3979572-3.0827722-6.2671505-4.63969095-10.132-4.077 3.1978402.44675306 6.0385738 2.274246 7.7708558 4.9991257 1.7322821 2.7248796 2.1816111 6.0726552 1.2291442 9.1578743v.01c-1.2735811 4.0650514-4.7797377 7.0293121-9 7.609 5.3282534.7660654 10.4205628-2.4628831 12-7.609v-.01c1.0671881-3.4633648.3684394-7.2298816-1.87-10.08z" fill="#dfc49c"></path><path id="Shape" d="m19.4 25.48c.3517953 1.0868864.9160547 2.0930356 1.66 2.96-2.8225019 2.357188-6.635222 3.1502372-10.1635536 2.1140283-3.52833147-1.0362089-6.30676003-3.7649626-7.4064464-7.2740283v-.01c-1.3471745-4.3638029.14221598-9.1061247 3.74242384-11.9161351 3.60020786-2.81001045 8.56226216-3.10312758 12.46826166-.7365218 3.9059995 2.3666057 5.9433578 6.9005964 5.1193145 11.3926569-1.4993041.0850373-2.9703016.4443132-4.34 1.06-.9146092.4176545-1.3769674 1.4493983-1.08 2.41z" fill="#ffe0b2"></path><path id="Shape" d="m20.48 23.07c1.3696984-.6156868 2.8406959-.9749627 4.34-1.06.6663557-3.479469-.3913538-7.0663626-2.8389951-9.6275706-2.4476412-2.56120801-5.9829102-3.78039992-9.4890049-3.2724294 2.9776284.41155412 5.6577962 2.0219162 7.4191492 4.4577495 1.7613529 2.4358333 2.4509253 5.4855964 1.9088508 8.4422505-1.4993041.0850373-2.9703016.4443132-4.34 1.06-.9146092.4176545-1.3769674 1.4493983-1.08 2.41.3517953 1.0868864.9160547 2.0930356 1.66 2.96-1.5873215 1.3272768-3.5188974 2.1765459-5.57 2.449.5002085.0714337 1.0047227.1085205 1.51.111 2.5815411.0056516 5.0820539-.9010499 7.06-2.56-.7439453-.8669644-1.3082047-1.8731136-1.66-2.96-.2969674-.9606017.1653908-1.9923455 1.08-2.41z" fill="#dfc49c"></path><path id="Shape" d="m25.18 22.01c-.1196296-.0133333-.2403704-.0133333-.36 0 .121183-.6631072.1814342-1.3359122.18-2.01-.0014342.6740878.058817 1.3468928.18 2.01z" fill="#a0522d"></path><path id="Shape" d="m30.6 25.48c-.3517953 1.0868864-.9160547 2.0930356-1.66 2.96-1.18 1.45-2.72 2.56-3.94 2.56s-2.76-1.11-3.94-2.56c-.7439453-.8669644-1.3082047-1.8731136-1.66-2.96-.2969674-.9606017.1653908-1.9923455 1.08-2.41 1.3696984-.6156868 2.8406959-.9749627 4.34-1.06.1196296-.0133333.2403704-.0133333.36 0 1.4993041.0850373 2.9703016.4443132 4.34 1.06.9146092.4176545 1.3769674 1.4493983 1.08 2.41z" fill="#ff9801"></path><path id="Shape" d="m29.52 23.07c-1.3696984-.6156868-2.8406959-.9749627-4.34-1.06-.1196296-.0133333-.2403704-.0133333-.36 0-.4430491.0173535-.8842308.0671536-1.32.149 1.0397539.1806293 2.0538041.4865232 3.02.911.9146092.4176545 1.3769674 1.4493983 1.08 2.41-.3517953 1.0868864-.9160547 2.0930356-1.66 2.96-.6716143.8535796-1.4997131 1.5713784-2.44 2.115.4563177.2682337.9712291.4209907 1.5.445 1.22 0 2.76-1.11 3.94-2.56.7439453-.8669644 1.3082047-1.8731136 1.66-2.96.2969674-.9606017-.1653908-1.9923455-1.08-2.41z" fill="#f57c00"></path><path id="Shape" d="m20 53v3c-.0081672 1.1011688-.8988312 1.9918328-2 2-1.1032019-.0032948-1.9967052-.8967981-2-2 0 1.1045695-.8954305 2-2 2s-2-.8954305-2-2v-3c0-.5522847.4477153-1 1-1h2c.5522847 0 1 .4477153 1 1 0-.5522847.4477153-1 1-1h2c.2652165 0 .5195704.1053568.7071068.2928932s.2928932.4418903.2928932.7071068z" fill="#fec108"></path><path id="Shape" d="m38 53v3c0 1.1045695-.8954305 2-2 2s-2-.8954305-2-2c-.0032948 1.1032019-.8967981 1.9967052-2 2-1.1011688-.0081672-1.9918328-.8988312-2-2v-3c0-.5522847.4477153-1 1-1h2c.5522847 0 1 .4477153 1 1 0-.5522847.4477153-1 1-1h2c.5522847 0 1 .4477153 1 1z" fill="#fec108"></path></g><g id="Icons_copy" fill="#000"><path id="Shape" d="m12 57.214v.786c-.005247 1.1856144.691231 2.2620981 1.7748484 2.7432243 1.0836175.4811261 2.3492169.2758048 3.2251516-.5232243 1.0187056.933538 2.5467572 1.0409078 3.686.259 3.5086134.6946636 7.1193866.6946636 10.628 0 1.1392428.7819078 2.6672944.674538 3.686-.259.8759347.7990291 2.1415341 1.0043504 3.2251516.5232243 1.0836174-.4811262 1.7800954-1.5576099 1.7748484-2.7432243v-.786c7.521-4.444 12-11.953 12-20.214-.0093341-4.2039564-1.1954285-8.3213393-3.424-11.886.9556567-3.4708354.279584-7.1879474-1.837-10.1.7438084-2.2681484 1.1682157-4.6288084 1.261-7.014 0-4.645-1.346-7-4-7-.9692403.07062213-1.8899941.45140606-2.626 1.086-1.1208446 1.00836329-2.6834229 1.36543758-4.131.944-1.522-.382-2.656-.7-3.587-.96-2.46845-.80744533-5.0607613-1.1697459-7.656-1.07-2.5952387-.0997459-5.18755.26255467-7.656 1.07-.931.261-2.065.578-3.586.96-1.4479112.42081607-3.0104786.0638307-4.132-.944-.73600594-.63459394-1.65675972-1.01537787-2.626-1.086-2.654 0-4 2.355-4 7 .09250716 2.3862018.51691779 4.7478904 1.261 7.017-2.11658398 2.9120526-2.79265674 6.6291646-1.837 10.1-2.22803337 3.5637955-3.41410615 7.6800638-3.424 11.883 0 8.261 4.479 15.77 12 20.214zm3 1.786c-.5522847 0-1-.4477153-1-1v-3h2v3c0 .5522847-.4477153 1-1 1zm5-1c0 .5522847-.4477153 1-1 1s-1-.4477153-1-1v-3h2zm13 1c-.5522847 0-1-.4477153-1-1v-3h2v3c0 .5522847-.4477153 1-1 1zm5-1c0 .5522847-.4477153 1-1 1s-1-.4477153-1-1v-3h2zm1.987-3.126c-.0662763-1.0500851-.9348362-1.8692503-1.987-1.874h-2c-.3521367.0019998-.6973555.0979706-1 .278-.3026445-.1800294-.6478633-.2760002-1-.278h-2c-1.1045695 0-2 .8954305-2 2v3c.0020348.2274159.0298797.4538657.083.675-2.7050963.4290077-5.4609037.4290077-8.166 0 .0531203-.2211343.0809652-.4475841.083-.675v-3c0-1.1045695-.8954305-2-2-2h-2c-.3521367.0019998-.6973555.0979706-1 .278-.3026445-.1800294-.6478633-.2760002-1-.278h-2c-1.0521638.0047497-1.9207237.8239149-1.987 1.874-2.564798-1.6699423-4.76859528-3.8373553-6.481-6.374 3.288-6.3 11.42-10.5 20.468-10.5s17.18 4.2 20.468 10.5c-1.7124047 2.5366447-3.916202 4.7040577-6.481 6.374zm-2.987-22.874c-2.021768-.0004555-3.9960309-.6129895-5.663-1.757.5293416-.761323.9425271-1.5971306 1.226-2.48.4273702-1.4378295-.2661062-2.9713155-1.628-3.6-1.2314781-.5489429-2.5366248-.9148152-3.874-1.086-.0391424-.3576872-.0595037-.7171806-.061-1.077 0-5.5228475 4.4771525-10 10-10s10 4.4771525 10 10-4.4771525 10-10 10zm-15.646-4.81c-.1507988-.4815218.0807585-.9999527.54-1.209 1.2944232-.5833965 2.6876586-.9162665 4.106-.981 1.418773.0647312 2.8123977.3979524 4.107.982.4583667.2093482.6893583.7270436.539 1.208-.713 2.386-3.304 4.81-4.646 4.81s-3.933-2.424-4.646-4.81zm-13.354-24.19c.55279131.09554967 1.06649781.34789063 1.48.727 1.5966595 1.34305773 3.7546876 1.80851478 5.763 1.243 1.546-.387 2.7-.71 3.641-.974 2.2922557-.75957631 4.7032871-1.09703938 7.116-.996 2.4129608-.09984005 4.8240142.2389814 7.116 1 .946.264 2.095.587 3.642.974 2.0086627.56407251 4.1663044.09712021 5.762-1.247.4135022-.37910937.9272087-.63145033 1.48-.727 1.327 0 2 1.682 2 5-.0562953 1.77346041-.3348022 3.5328581-.829 5.237-2.8424023-2.6650232-6.804212-3.77953792-10.6191834-2.9873309-3.8149714.7922071-7.005487 3.3919551-8.5518166 6.9683309-1.5463296-3.5763758-4.7368452-6.1761238-8.5518166-6.9683309-3.8149714-.79220702-7.77678115.3223077-10.6191834 2.9873309-.49419777-1.7041419-.77270469-3.46353959-.829-5.237 0-3.318.673-5 2-5zm7 9c5.5203344.0060624 9.9939376 4.4796656 10 10-.0015661.3591521-.0219273.7179762-.061 1.075-1.3371776.1705734-2.6420822.5364722-3.873 1.086-1.3625464.6280368-2.0562876 2.1621083-1.628 3.6.2825195.8827601.6954156 1.7183272 1.225 2.479-3.5438216 2.4367631-8.2487641 2.3347471-11.68363333-.2533332-3.43486921-2.5880802-4.83025752-7.0824971-3.46512315-11.1608416 1.36513436-4.0783446 5.18500258-6.8270713 9.48575648-6.8258252zm-10.645 15.517c1.59269618 3.0807529 4.44142687 5.320873 7.8108828 6.1421443 3.3694559.8212713 6.9294625.1432172 9.7611172-1.8591443 1.0257688 1.2279483 2.4836641 2.0154194 4.073 2.2 1.5893359-.1845806 3.0472312-.9720517 4.073-2.2 2.8316547 2.0023615 6.3916613 2.6804156 9.7611172 1.8591443s6.2181866-3.0613914 7.8108828-6.1421443c3.1375596 5.9505864 3.1398043 13.0654351.006 19.018-3.937-6.363-12.372-10.535-21.651-10.535s-17.714 4.172-21.651 10.535c-3.13380429-5.9525649-3.13155962-13.0674136.006-19.018z"></path><path id="Shape" d="m11.828 22.561c.7562794-.9846775 1.9269327-1.5623385 3.1685232-1.5635135s2.413335.5742692 3.1714768 1.5575135c.1982824.297245.5400812.4661282.8966441.4430331s.6737195-.2346599.832-.555c.1582805-.32034.1336383-.7007881-.0646441-.9980331-1.13077-1.5361211-2.9245649-2.4430665-4.832-2.4430665s-3.70123.9069454-4.832 2.4430665c-.30817489.4583963-.18639634 1.0798251.272 1.388.4583963.3081749 1.0798251.1863963 1.388-.272z"></path><path id="Shape" d="m37 19c-1.9077796.0004524-3.7016406.9081491-4.832 2.445-.3081749.4583963-.1863963 1.0798251.272 1.388s1.0798251.1863963 1.388-.272c.7562794-.9846775 1.9269327-1.5623385 3.1685232-1.5635135s2.413335.5742692 3.1714768 1.5575135c.1982824.297245.5400812.4661282.8966441.4430331s.6737195-.2346599.832-.555c.1582805-.32034.1336383-.7007881-.0646441-.9980331-1.1303594-1.5368509-2.9242204-2.4445476-4.832-2.445z"></path><path id="Shape" d="m27.293 40.293-.586.585c-.3904999.3903819-1.0235001.3903819-1.414 0l-.586-.586c-.3923789-.3789722-1.0160848-.3735524-1.4018186.0121814s-.3911536 1.0094397-.0121814 1.4018186l.586.586c1.1714996 1.1711458 3.0705004 1.1711458 4.242 0l.586-.586c.3789722-.3923789.3735524-1.0160848-.0121814-1.4018186s-1.0094397-.3911536-1.4018186-.0121814z"></path><path id="Shape" d="m27.293 46.293-.586.585c-.3904999.3903819-1.0235001.3903819-1.414 0l-.586-.586c-.3923789-.3789722-1.0160848-.3735524-1.4018186.0121814s-.3911536 1.0094397-.0121814 1.4018186l.586.586c1.1714996 1.1711458 3.0705004 1.1711458 4.242 0l.586-.586c.3789722-.3923789.3735524-1.0160848-.0121814-1.4018186s-1.0094397-.3911536-1.4018186-.0121814z"></path><path id="Shape" d="m27.293 52.293-.586.585c-.3904999.3903819-1.0235001.3903819-1.414 0l-.586-.586c-.3923789-.3789722-1.0160848-.3735524-1.4018186.0121814s-.3911536 1.0094397-.0121814 1.4018186l.586.586c1.1714996 1.1711458 3.0705004 1.1711458 4.242 0l.586-.586c.3789722-.3923789.3735524-1.0160848-.0121814-1.4018186s-1.0094397-.3911536-1.4018186-.0121814z"></path><path id="Shape" d="m41.293 46.293-.586.585c-.3904999.3903819-1.0235001.3903819-1.414 0l-.586-.586c-.3923789-.3789722-1.0160848-.3735524-1.4018186.0121814s-.3911536 1.0094397-.0121814 1.4018186l.586.586c1.1714996 1.1711458 3.0705004 1.1711458 4.242 0l.586-.586c.3789722-.3923789.3735524-1.0160848-.0121814-1.4018186s-1.0094397-.3911536-1.4018186-.0121814z"></path><path id="Shape" d="m13.293 46.293-.586.585c-.3904999.3903819-1.0235001.3903819-1.414 0l-.586-.586c-.3923789-.3789722-1.01608478-.3735524-1.40181858.0121814-.38573379.3857338-.39115363 1.0094397-.01218142 1.4018186l.586.586c1.1714996 1.1711458 3.0705004 1.1711458 4.242 0l.586-.586c.3789722-.3923789.3735524-1.0160848-.0121814-1.4018186s-1.0094397-.3911536-1.4018186-.0121814z"></path><path id="Shape" d="m20.293 48.293-.586.585c-.3904999.3903819-1.0235001.3903819-1.414 0l-.586-.586c-.3923789-.3789722-1.0160848-.3735524-1.4018186.0121814s-.3911536 1.0094397-.0121814 1.4018186l.586.586c1.1714996 1.1711458 3.0705004 1.1711458 4.242 0l.586-.586c.3789722-.3923789.3735524-1.0160848-.0121814-1.4018186s-1.0094397-.3911536-1.4018186-.0121814z"></path><path id="Shape" d="m34.293 48.293-.586.585c-.3904999.3903819-1.0235001.3903819-1.414 0l-.586-.586c-.3923789-.3789722-1.0160848-.3735524-1.4018186.0121814s-.3911536 1.0094397-.0121814 1.4018186l.586.586c1.1714996 1.1711458 3.0705004 1.1711458 4.242 0l.586-.586c.3789722-.3923789.3735524-1.0160848-.0121814-1.4018186s-1.0094397-.3911536-1.4018186-.0121814z"></path><path id="Shape" d="m34.293 42.293-.586.585c-.3904999.3903819-1.0235001.3903819-1.414 0l-.586-.586c-.3923789-.3789722-1.0160848-.3735524-1.4018186.0121814s-.3911536 1.0094397-.0121814 1.4018186l.586.586c1.1714996 1.1711458 3.0705004 1.1711458 4.242 0l.586-.586c.3789722-.3923789.3735524-1.0160848-.0121814-1.4018186s-1.0094397-.3911536-1.4018186-.0121814z"></path><path id="Shape" d="m20.293 42.293-.586.585c-.3904999.3903819-1.0235001.3903819-1.414 0l-.586-.586c-.3923789-.3789722-1.0160848-.3735524-1.4018186.0121814s-.3911536 1.0094397-.0121814 1.4018186l.586.586c1.1714996 1.1711458 3.0705004 1.1711458 4.242 0l.586-.586c.3789722-.3923789.3735524-1.0160848-.0121814-1.4018186s-1.0094397-.3911536-1.4018186-.0121814z"></path></g></g></g></svg>