<!-- icon666.com - MILLIONS OF FREE VECTOR ICONS --><svg viewBox="0 0 48 48" xmlns="http://www.w3.org/2000/svg"><g id="Find,-heart,-love,-romance,-romantic,-search-icon" fill="none"><path id="Shape" d="m21 5c8.836556 0 16 7.163444 16 16 0 4.058217-1.5108674 7.7635521-4.0007936 10.5841966l9.7079004 9.7086966-1.4142136 1.4142136-9.7086966-9.7079004c-2.8206445 2.4899262-6.5259796 4.0007936-10.5841966 4.0007936-8.836556 0-16-7.163444-16-16s7.163444-16 16-16zm-.8786797 12.8786797c-1.1715728-1.1715729-3.0710678-1.1715729-4.2426406 0-1.1320462 1.1320461-1.1741478 2.9526201-.0979942 4.1400906 1.0761537 1.1874706 3.715074 3.9812297 5.0477416 3.9812297 1.3326677 0 3.9832878-2.8067827 5.0535915-3.9877415 1.0703037-1.1809587 1.0282021-3.0015327-.103844-4.1335788-1.12471-1.12471-2.9770224-1.2082983-4.2426407 0l-.7071068.7071067z" fill="#fe83c5" style="fill: rgb(129, 254, 160);"></path><path id="Path" d="m20.1213203 17.8786797.7071068.7071067.7071068-.7071067c1.1715729-1.1715729 3.0710678-1.1715729 4.2426407 0 1.1320461 1.1320461 1.1741477 2.9526201.103844 4.1335788-2.599577 2.9139448-4.2080102 3.9877415-5.0535915 3.9877415-.9082169 0-2.6732933-1.3147548-5.0477416-3.9812297-1.0761536-1.1874705-1.034052-3.0080445.0979942-4.1400906 1.1715728-1.1715729 3.0710678-1.1715729 4.2426406 0z" fill="#f5f8fa"></path><path id="Shape" d="m21 5c8.836556 0 16 7.163444 16 16 0 4.058217-1.5108674 7.7635521-4.0007936 10.5841966l9.7079004 9.7086966-1.4142136 1.4142136-9.7086966-9.7079004c-2.8206445 2.4899262-6.5259796 4.0007936-10.5841966 4.0007936-8.836556 0-16-7.163444-16-16s7.163444-16 16-16zm0 2c-7.7319865 0-14 6.2680135-14 14s6.2680135 14 14 14 14-6.2680135 14-14-6.2680135-14-14-14zm-6.5355339 9.4644661c1.6567697-1.6567697 4.3386246-1.9770076 6.363961-.5874661 1.8166059-1.2148324 4.4769604-1.2995346 6.3639611.5874661 1.8870006 1.8870007 1.9571558 4.9206777.1774169 6.8843607-2.7502188 3.0884604-4.8481822 4.6511732-6.541378 4.6511732-1.6931957 0-3.7911592-1.5627128-6.535528-4.6446614-1.7855889-1.9701948-1.7154337-5.0038718.171567-6.8908725zm5.6568542 1.4142136c-1.1715728-1.1715729-3.0710678-1.1715729-4.2426406 0-1.1320462 1.1320461-1.1741478 2.9526201-.0979942 4.1400906 2.4071925 2.6541531 4.089773 3.9812297 5.0477416 3.9812297.9579687 0 2.6424992-1.3292472 5.0535915-3.9877415 1.0703037-1.1809587 1.0282021-3.0015327-.103844-4.1335788-1.12471-1.12471-2.9720749-1.2258846-4.2426407 0l-.7071068.7071067z" fill="#ff58ab" style="fill: rgb(87, 98, 255);"></path></g></svg>