<!-- icon666.com - MILLIONS OF FREE VECTOR ICONS --><svg id="Layer_1" enable-background="new 0 0 512 512" viewBox="0 0 512 512" xmlns="http://www.w3.org/2000/svg"><g><g><path d="m496.4 324.3c6.2 8 9.9 18 9.9 28.9 0 26.1-21.2 47.3-47.3 47.3-10 0-19.3-3.1-26.9-8.4-6.5 6.6-15.6 10.7-25.6 10.7s-18.9-4.1-25.4-10.6c-7.8 5.8-17.6 9.3-28.1 9.3-26.1 0-47.3-21.2-47.3-47.3 0-11.4 4.1-21.9 10.8-30.1-6.3-7.9-10.1-18-10.1-28.9 0-25.7 20.8-46.6 46.6-46.6 1.2 0 2.4 0 3.6.1.3-27.3 22.6-49.3 50-49.3s49.6 22 50 49.3c1.2-.1 2.4-.1 3.6-.1 25.7 0 46.6 20.9 46.6 46.6-.1 11-4 21.1-10.4 29.1z" fill="#9ec33b"></path><path d="m363.2 483.1c24.6-25.4 27.4-57.1 25.7-85 5.2 3 11.2 4.7 17.7 4.7 6.2 0 12-1.6 17-4.3-1.8 27.8 1.1 59.4 25.7 84.6z" fill="#c7a871"></path><path d="m63 483.1c24.6-25.4 27.4-57.1 25.7-85 5.2 3 11.2 4.7 17.7 4.7 6.2 0 12-1.6 17-4.3-1.8 27.8 1.1 59.4 25.7 84.6z" fill="#c7a871"></path><path d="m196.2 324.3c6.2 8 9.9 18 9.9 28.9 0 26.1-21.2 47.3-47.3 47.3-10 0-19.3-3.1-26.9-8.4-6.5 6.6-15.6 10.7-25.6 10.7s-18.9-4.1-25.4-10.6c-7.8 5.8-17.6 9.3-28.1 9.3-26.1 0-47.3-21.2-47.3-47.3 0-11.4 4.1-21.9 10.8-30.1-6.3-7.9-10.1-18-10.1-28.9 0-25.7 20.8-46.6 46.6-46.6 1.2 0 2.4 0 3.6.1.3-27.3 22.6-49.3 50-49.3s49.6 22 50 49.3c1.2-.1 2.4-.1 3.6-.1 25.7 0 46.6 20.9 46.6 46.6-.1 11-3.9 21.1-10.4 29.1z" fill="#9ec33b"></path><path d="m189.1 483.1c38.4-39.5 42.7-101.1 40-144.6 8.1 4.7 17.5 7.3 27.6 7.3 9.6 0 18.6-2.4 26.5-6.6-2.8 43.3 1.7 104.7 40 144h-134.1z" fill="#c7a871"></path><path d="m323.1 483.1h-134l93.6-112.9c1.4 38.4 10.7 82.3 40.4 112.9z" opacity=".1"></path><path d="m396.7 223.5c9.7 12.4 15.5 28.1 15.5 45.1 0 40.7-33 73.6-73.6 73.6-15.6 0-30.1-4.9-42-13.2-10.2 10.3-24.2 16.7-39.9 16.7-15.5 0-29.5-6.3-39.6-16.5-12.2 9.1-27.4 14.5-43.8 14.5-40.7 0-73.6-33-73.6-73.6 0-17.8 6.3-34.1 16.8-46.9-9.8-12.4-15.7-28.1-15.7-45.1 0-40 32.5-72.6 72.6-72.6 1.9 0 3.7.1 5.5.2.5-42.5 35.2-76.9 77.9-76.9s77.4 34.3 77.9 76.9c1.8-.2 3.7-.2 5.5-.2 40.1 0 72.6 32.5 72.6 72.6-.1 17.2-6.1 32.9-16.1 45.4z" fill="#9ec33b"></path><path d="m396.7 223.5c9.8 12.5 15.5 28.1 15.5 45.1 0 40.6-33 73.6-73.7 73.6-15.6 0-30.1-4.9-42-13.2-10.1 10.3-24.2 16.7-39.9 16.7-15.5 0-29.5-6.3-39.6-16.5-12.2 9.1-27.4 14.5-43.8 14.5-40.7 0-73.7-33-73.7-73.6l313.1-92c.1 17.2-5.9 32.9-15.9 45.4z" opacity=".1"></path></g><g><path d="m503.1 324.2c.1-.1.1-.2.2-.3s.1-.2.1-.3c5.6-8.5 8.6-18.2 8.6-28.5 0-28.2-22.5-51.1-50.4-51.9-2.7-24.3-21.4-44.1-45.4-48.3 1.2-5.5 1.9-11.1 1.9-16.9 0-42.3-34.1-77.9-78.3-77.9-3.3-42.7-39.5-76.6-83-76.6s-79.6 33.9-83 76.6c-.2 0-.3 0-.5 0-42.9 0-77.9 34.9-77.9 77.9 0 5.7.7 11.3 1.9 16.8-24.3 4-43.1 23.8-45.8 48.4-28 .9-50.5 23.9-50.5 52 0 10.3 3.1 20.4 8.8 28.9-32.5 46.4 22.6 104.9 70.7 74.9 1 .8 2 1.4 3 2.1 1.3 24.1-.8 54.1-24.3 78.4-1.5 1.5-1.9 3.8-1.1 5.8s2.8 3.3 4.9 3.3h86c4.7 0 7.1-5.7 3.8-9-23.5-24.1-25.6-53.9-24.3-77.8 1.4-.9 2.7-1.8 4-2.9 40 23.3 89.1-13.6 77.3-58.7 2.3-1.2 4.6-2.5 6.7-3.9 2.3 2 4.8 3.8 7.4 5.4 2.4 43-2.6 100.7-38.6 137.9-3.3 3.4-.9 9 3.8 9h134c4.7 0 7.1-5.7 3.8-9-36-37-41-94.4-38.6-137.1 3.1-1.9 6.1-4 8.8-6.5 1.8 1.1 3.7 2.2 5.6 3.1-10.3 33.4 14.9 67.9 50.3 67.9 9.9 0 19.4-2.7 27.6-7.8 1 .8 2 1.4 3 2.1 1.3 24.1-.8 54.1-24.3 78.4-3.3 3.4-.9 9 3.8 9h86c4.7 0 7.1-5.7 3.8-9-23.5-24.2-25.6-53.9-24.3-77.8 1.4-.9 2.7-1.8 4-2.9 8 4.7 17.1 7.1 26.4 7.1 42.3 0 66.6-47.3 43.9-81.5.2-.3.2-.4.2-.4zm-365.6 153.6h-62.9c17.6-23.4 20.3-50.3 19.8-71.5 7.8 2.3 15.8 2.3 23.3.2-.6 21 2.1 47.9 19.8 71.3zm-2.5-90.2c-2.1-1.5-5-1.2-6.9.6-12.4 12.6-32.3 11.4-43.4.2-1.9-1.9-4.9-2.1-7-.5-39.2 29.3-88.5-22.7-57.3-60.3 1.6-1.9 1.6-4.8.1-6.7-5.9-7.3-9-16.2-9-25.6 0-24.7 21.5-43.2 44.3-41.1 3.3.2 5.8-2.2 5.8-5.2.3-22.2 16.9-40.7 38.6-43.6 2.4 6.3 5.5 12.4 9.4 17.9-10 13.5-15.5 30-15.5 46.9 0 54.4 54.2 92.8 105.6 74.3 8.2 37-33.7 64.8-64.7 43.1zm142.4-40.1c-1.6 40.8 3.9 92.6 34 130.3h-110.5c30-37.7 35.5-89.7 34-130.7 13.2 5 28.2 5.4 42.3.4zm15.4-22.2c-19.4 19.7-52 20.3-71.9.2-1.9-1.9-4.8-2.1-7-.5-44.5 33.2-108.9 1.3-108.9-54.9 0-15.8 5.5-31.3 15.6-43.5 1.6-1.9 1.6-4.7.1-6.7-9.4-11.8-14.6-26.7-14.6-41.8 0-37 30.1-67.2 67.1-67.2h.1c37.1 0 67.2 30.2 67.2 67.2 0 2.9 2.4 5.3 5.3 5.3s5.3-2.4 5.3-5.3c0-39.1-29.1-71.5-66.7-77 2.9-37.3 34.3-66.9 72.3-66.9 39.5 0 72.1 32.1 72.6 71.6 0 3.2 2.8 5.5 5.8 5.2 37.7-3.3 72.3 27.2 72.3 67 0 36.9-29.9 67.2-67.2 67.2-2.9 0-5.3 2.4-5.3 5.3s2.4 5.3 5.3 5.3c21.4 0 41.5-8.7 56.1-24 6.9 10.8 10.7 23.5 10.7 36.5 0 55.5-62.6 87.2-107.3 56.1-2.2-1.2-5.1-1-6.9.9zm125.1 81.2c-.6 21 2.2 47.8 19.8 71.3h-62.8c17.6-23.4 20.3-50.3 19.8-71.5 7.8 2.4 16 2.2 23.2.2zm41.2-11.4c-8.6 0-16.8-2.6-23.9-7.5-2.1-1.5-5-1.2-6.8.6-12 12.2-31.8 11.9-43.4.1-1.9-1.9-4.8-2.1-7-.5-7.2 5.4-15.8 8.2-24.9 8.2-27.6 0-47.8-26.4-40.4-53 51.3 17.8 104.9-20.5 104.9-74.6 0-16.1-5-31.9-14.2-45 4.1-5.7 7.3-11.8 9.7-18.2 21.4 3.1 37.9 21.5 38.1 43.5 0 3.1 2.6 5.5 5.8 5.2 22.7-2.1 44.3 16.4 44.3 41.1 0 9.1-3 17.7-8.5 24.9-7.8 10.2-19.8 16.3-32.7 16.3-2.9 0-5.3 2.4-5.3 5.3s2.4 5.3 5.3 5.3c13.4 0 26.1-5.2 35.6-14.2 15.4 27.8-4.5 62.5-36.6 62.5z"></path><path d="m212.3 271.1c-2.9-.5-5.6 1.5-6.1 4.4-1 5.8-6.4 9.6-12.1 8.7s-9.5-6.3-8.6-12.1c.5-2.9-1.5-5.6-4.4-6.1s-5.7 1.5-6.1 4.4c-1.9 11.6 5.9 22.4 17.4 24.3 11.6 1.9 22.4-6 24.3-17.4.4-3-1.5-5.8-4.4-6.2z"></path><path d="m305.3 239.9c-2.1-2.1-5.5-2.1-7.5 0-2.1 2.1-2.1 5.5 0 7.5 3.5 3.5 3.6 9.2 0 12.9-3.4 3.4-9.4 3.4-12.9 0-2.1-2.1-5.4-2.1-7.5 0s-2.1 5.5 0 7.5c7.8 7.9 20.4 7.6 28 0 7.7-7.6 7.7-20.2-.1-27.9z"></path><path d="m174.4 186.8c-3.8-3-4.7-8.8-1.4-12.8 3.1-4 8.9-4.6 12.8-1.4 2.3 1.8 5.7 1.5 7.5-.8s1.5-5.7-.8-7.5c-8.5-6.9-21-5.4-27.8 3.1-6.9 8.5-5.5 21 3.1 27.8 2.3 1.8 5.7 1.4 7.5-.9s1.4-5.7-.9-7.5z"></path><path d="m297.4 125.9c7.9-7.9 7.9-20.6 0-28.5-2.1-2.1-5.5-2.1-7.5 0-2.1 2.1-2.1 5.5 0 7.5 3.7 3.7 3.7 9.7 0 13.4s-9.8 3.7-13.5 0c-2.1-2.1-5.5-2.1-7.5 0-2.1 2.1-2.1 5.5 0 7.5 7.8 7.9 20.6 7.9 28.5.1z"></path><path d="m414.8 341.5c-2.1 2.1-2.1 5.5 0 7.5 2.6 2.6 2.6 6.8 0 9.4s-6.8 2.6-9.4 0c-2.1-2.1-5.5-2.1-7.5 0-2.1 2.1-2.1 5.5 0 7.5 6.7 6.7 17.7 6.8 24.5 0s6.8-17.7 0-24.5c-2.1-2-5.5-2-7.6.1z"></path><path d="m463.3 291.5c-2.1-2.1-5.5-2.1-7.5 0-2.1 2.1-2.1 5.5 0 7.5 2.6 2.6 2.6 6.9 0 9.6-2.6 2.6-6.9 2.6-9.5 0-2.1-2.1-5.5-2.1-7.5 0-2.1 2.1-2.1 5.5 0 7.5 6.8 6.8 17.8 6.8 24.6 0 6.7-6.7 6.7-17.8-.1-24.6z"></path><path d="m46.3 296c-8.2 8.2-8.2 21.5 0 29.7 2.1 2.1 5.5 2.1 7.5 0 2.1-2.1 2.1-5.5 0-7.5-4-4-4-10.6 0-14.6s10.6-4 14.6 0c2.1 2.1 5.5 2.1 7.5 0 2.1-2.1 2.1-5.5 0-7.5-8-8.3-21.4-8.3-29.6-.1z"></path></g></g></svg>