<!-- icon666.com - MILLIONS OF FREE VECTOR ICONS --><svg version="1.1" id="Capa_1" xmlns="http://www.w3.org/2000/svg" xmlns:xlink="http://www.w3.org/1999/xlink" x="0px" y="0px" viewBox="0 0 512 512" style="enable-background:new 0 0 512 512;" xml:space="preserve"><path style="fill:#FEC377;" d="M256,441.665v-13.552c0-26.344-21.356-47.699-47.699-47.699H7.5V98.573h200.801 c26.344,0,47.699,21.356,47.699,47.699V441.665z"></path><path style="fill:#FFB657;" d="M256,441.665v-13.552c0-26.344-21.356-47.699-47.699-47.699V98.573 c26.344,0,47.699,21.356,47.699,47.699V441.665z"></path><path style="fill:#D07400;" d="M208.301,380.414H7.5v61.252H256v-13.552C256,401.769,234.644,380.414,208.301,380.414z"></path><path style="fill:#FEC377;" d="M256,441.665v-13.552c0-26.344,21.356-47.699,47.699-47.699H504.5V98.573H303.699 c-26.344,0-47.699,21.356-47.699,47.699V441.665z"></path><path style="fill:#FFB657;" d="M256,441.665v-13.552c0-26.344,21.356-47.699,47.699-47.699V98.573 c-26.344,0-47.699,21.356-47.699,47.699V441.665z"></path><path style="fill:#D07400;" d="M303.699,380.414H504.5v61.252H256v-13.552C256,401.769,277.356,380.414,303.699,380.414z"></path><path style="fill:#FF5023;" d="M251,488.75h10c12.012,0,21.75-9.738,21.75-21.75l0,0H504.5v-25.335H271.333h-30.667H7.5V467h221.75 l0,0C229.25,479.012,238.988,488.75,251,488.75z"></path><polygon style="fill:#CD2A01;" points="271.333,441.665 240.667,441.665 7.5,441.665 7.5,456.794 240.667,456.794 271.333,456.794 504.5,456.794 504.5,441.665 "></polygon><g><rect x="248.5" y="15.71" style="fill:#010101;" width="15" height="30.781"></rect><rect x="313.762" y="42.73" transform="matrix(-0.7071 -0.7071 0.7071 -0.7071 507.3312 326.3833)" style="fill:#010101;" width="15" height="30.781"></rect><rect x="175.349" y="50.626" transform="matrix(-0.7071 -0.7071 0.7071 -0.7071 284.5101 234.1006)" style="fill:#010101;" width="30.781" height="15"></rect></g><g><rect x="212.64" y="128.26" style="fill:#FFFFFF;" width="15" height="37.691"></rect><rect x="212.64" y="180.33" style="fill:#FFFFFF;" width="15" height="174.3"></rect></g><g><rect x="189.92" y="393.39" style="fill:#010101;" width="27.07" height="15"></rect><path style="fill:#010101;" d="M303.699,91.113c-20.334,0-38.122,11.06-47.699,27.471c-9.577-16.412-27.366-27.471-47.699-27.471H0 V474.54h222.725c3.32,12.506,14.739,21.75,28.275,21.75h10c13.537,0,24.955-9.244,28.275-21.75H512V91.113H303.699z M15,106.113 h193.301c22.166,0,40.199,18.033,40.199,40.199v244.05c-10.075-10.71-24.37-17.408-40.199-17.408H15V106.113z M15,428.671h201.99 v-15H15v-5.281h162.573v-15H15v-5.437h193.301c22.166,0,40.199,18.033,40.199,40.199v6.052H15V428.671z M497,459.54H275.25v7.5 c0,7.857-6.393,14.25-14.25,14.25h-10c-7.857,0-14.25-6.393-14.25-14.25v-7.5H15v-10.335h233.5v15.5h15v-15.5H497V459.54z M497,393.39h-19.571v15H497v5.281H295.01v15H497v5.533H263.5v-6.052c0-22.166,18.033-40.199,40.199-40.199H497V393.39z M303.699,372.954c-15.83,0-30.125,6.698-40.199,17.408v-244.05c0-22.166,18.033-40.199,40.199-40.199H497v266.841L303.699,372.954 L303.699,372.954z"></path></g><g><rect x="284.36" y="128.26" style="fill:#FFFFFF;" width="15" height="37.691"></rect><rect x="284.36" y="180.33" style="fill:#FFFFFF;" width="15" height="174.3"></rect></g><rect x="295.01" y="393.39" style="fill:#010101;" width="170.07" height="15"></rect><g><rect x="37" y="130.87" style="fill:#A66206;" width="24.667" height="15"></rect><rect x="76.967" y="130.87" style="fill:#A66206;" width="117.37" height="15"></rect><rect x="37" y="160.87" style="fill:#A66206;" width="157.33" height="15"></rect><rect x="37" y="190.87" style="fill:#A66206;" width="157.33" height="15"></rect><rect x="37" y="220.87" style="fill:#A66206;" width="157.33" height="15"></rect><rect x="37" y="250.87" style="fill:#A66206;" width="157.33" height="15"></rect><rect x="37" y="280.87" style="fill:#A66206;" width="157.33" height="15"></rect><rect x="37" y="310.87" style="fill:#A66206;" width="157.33" height="15"></rect><rect x="321.09" y="130.87" style="fill:#A66206;" width="24.667" height="15"></rect><rect x="361.06" y="130.87" style="fill:#A66206;" width="117.37" height="15"></rect><rect x="321.09" y="160.87" style="fill:#A66206;" width="157.33" height="15"></rect><rect x="321.09" y="190.87" style="fill:#A66206;" width="157.33" height="15"></rect><rect x="321.09" y="220.87" style="fill:#A66206;" width="157.33" height="15"></rect><rect x="321.09" y="250.87" style="fill:#A66206;" width="157.33" height="15"></rect><rect x="321.09" y="280.87" style="fill:#A66206;" width="157.33" height="15"></rect><rect x="321.09" y="310.87" style="fill:#A66206;" width="157.33" height="15"></rect></g></svg>