<!-- icon666.com - MILLIONS OF FREE VECTOR ICONS --><svg id="Layer_1" enable-background="new 0 0 66 66" viewBox="0 0 66 66" xmlns="http://www.w3.org/2000/svg"><g><g><path d="m14.7 49.18c.1 0 .2-.01.31-.01-.01.01-.01.01-.02.02z" fill="#fbe000"></path></g><g><path d="m17.88 53.33c.1.05.18.13.24.22-.31 0-.63-.02-.93-.07-.55-.09-1.04-.4-1.56-.56.48-.06 1.04.16 1.53.23.25.03.49.06.72.18z" fill="#fbe000"></path></g><g><path d="m54.05 32.57-4.46 4.41c-1.59 1.57-2.3 3.82-1.91 6l1.1 6.17c.98 5.53-4.79 9.79-9.78 7.21l-5.57-2.87c-1.98-1.02-4.33-1.01-6.3.04l-5.53 2.95c-2.21 1.18-4.6 1-6.48-.05.24.02.47.04.71.06.29.03.6.05.86-.06.27-.12.49-.42.4-.7-.04-.13-.14-.26-.11-.39.03-.12.16-.18.27-.23.35-.14.82-.25.99-.63.13-.3.08-.69-.12-.95.42-.01.85-.05 1.26-.11.36-.05.77-.19.85-.5.35-1.2-2.75-1.47-3.51-1.62l-.06-.06c.7.09 3.44.45 3.57-.69.05-.38-.34-.66-.68-.81-1.42-.63-3-.63-4.55-.6.38-.33.87-.81 1.16-1.2.19-.27.37-.6.25-.9-.11-.26-.41-.4-.7-.4-1.41.02-2.27.99-3.69.85l.7-4.28c.37-2.2-.38-4.43-1.99-5.97l-4.5-4.34c-4.05-3.89-1.88-10.73 3.67-11.57l6.2-.94c2.21-.34 4.1-1.74 5.07-3.75l2.75-5.64c2.45-5.05 9.62-5.1 12.15-.08l2.81 5.6c.99 2 2.91 3.37 5.12 3.67l6.21.86c5.57.76 7.83 7.58 3.84 11.52z" fill="#fbe000"></path></g><g opacity=".6"><g><path d="m10.2 23.79c-.24 0-.45-.18-.49-.42-.04-.27.15-.52.42-.57l6.2-.94c2.69-.41 5-2.12 6.19-4.56l2.74-5.64c.12-.25.42-.35.66-.23.25.12.35.42.23.66l-2.74 5.64c-1.33 2.74-3.92 4.65-6.94 5.11l-6.2.94c-.02 0-.04.01-.07.01z" fill="#fff"></path></g></g><g opacity=".07"><g><path d="m54.05 32.57-4.46 4.41c-1.59 1.57-2.3 3.82-1.91 6l1.1 6.17c.98 5.53-4.79 9.79-9.78 7.21l-5.57-2.87c-1.98-1.02-4.33-1.01-6.3.04l-5.53 2.95c-2.21 1.18-4.59 1-6.47-.05.23.02.47.04.7.06.29.03.6.05.86-.06.27-.12.49-.42.4-.7-.04-.13-.14-.26-.11-.39.03-.12.16-.18.27-.23.35-.14.82-.25.99-.63.11-.25.1-.56-.02-.81.12-.05.24-.11.36-.17.01-.01 1.66-.14 1.67-.15v-.75l3.9-2.08c1.96-1.05 4.32-1.07 6.3-.05l5.57 2.88c4.99 2.57 10.77-1.68 9.78-7.21l-1.1-6.17c-.4-2.2.32-4.44 1.91-6l4.45-4.41c2.28-2.25 2.52-5.42 1.28-7.87 3.94 1.98 5.14 7.49 1.71 10.88z"></path></g></g><g><path d="m14.7 49.18c.1 0 .2-.01.31-.01-.01.01-.01.01-.02.02z" fill="#f66f64"></path></g><g><path d="m17.88 53.33c.1.05.18.13.24.22-.31 0-.63-.02-.93-.07-.55-.09-1.04-.4-1.56-.56.48-.06 1.04.16 1.53.23.25.03.49.06.72.18z" fill="#f66f64"></path></g><g><path d="m26.9 54.9-11.81 3.72c-1.11.35-2.31-.27-2.65-1.38l-.46-1.47c.03.05.07.1.11.13.26.22.79.33 1.11.37.87.08 1.75.16 2.62.24.29.03.6.05.86-.06.27-.12.49-.42.4-.7-.04-.13-.14-.26-.11-.39.03-.12.16-.18.27-.23.35-.14.82-.25.99-.63.13-.3.08-.69-.12-.95.42-.01.85-.05 1.26-.11.36-.05.77-.19.85-.5.35-1.2-2.75-1.47-3.51-1.62l-.06-.06c.7.09 3.44.45 3.57-.69.05-.38-.34-.66-.68-.81-1.42-.63-3-.63-4.55-.6.38-.33.87-.81 1.16-1.2.19-.27.37-.6.25-.9-.11-.26-.41-.4-.7-.4-1.51.02-2.38 1.13-4 .81-1.11-.23-2.15-.69-2.84-1.51l-.96-3.05c-.08-.27-.11-.54-.08-.81 0 .14.02.28.06.42.05.17.28.25.5.18l13.43-4.24c.3-.09.59-.09.84 0l4.82 15.31c.17.47-.09.98-.57 1.13z" fill="#f66f64"></path></g><g><path d="m22.24 36.77.55 1.75c-.27-.13-.61-.16-.96-.05l-13.43 4.23c-.22.07-.44-.01-.5-.18-.34-1.08.54-2.32 1.96-2.77l11.02-3.47c.61-.19 1.21.03 1.36.49z" fill="#fff"></path></g><g><g><path d="m10.9 41.1c-.16 0-.3-.1-.35-.26-.06-.2.04-.41.24-.47l7.6-2.51c.19-.07.41.04.47.24s-.04.41-.24.47l-7.6 2.51c-.04.01-.08.02-.12.02z" fill="#202020"></path></g></g><g><path d="m14.7 49.18c.1 0 .2-.01.31-.01-.01.01-.01.01-.02.02z" fill="#fff"></path></g><g><path d="m18.12 53.55c-.31 0-.63-.02-.93-.07-.55-.09-1.04-.4-1.56-.56.48-.06 1.04.16 1.53.23.25.03.5.06.73.18.09.05.17.13.23.22z" fill="#fff"></path></g><g><path d="m14.7 49.18c.1 0 .2-.01.31-.01-.01.01-.01.01-.02.02z" fill="#fff"></path></g><g><path d="m18.12 53.55c-.31 0-.63-.02-.93-.07-.55-.09-1.04-.4-1.56-.56.48-.06 1.04.16 1.53.23.25.03.5.06.73.18.09.05.17.13.23.22z" fill="#fff"></path></g><g><g><path d="m15.63 58.82c-.16 0-.31-.1-.36-.26-.06-.2.05-.41.24-.47l11.21-3.53c.19-.05.35-.19.4-.34.06-.17 0-.37-.07-.57l-4.64-14.75c-.06-.2.05-.41.24-.47.2-.06.41.05.47.24l4.62 14.66c.12.37.24.73.09 1.13-.12.38-.47.7-.89.81l-11.2 3.53c-.04.01-.08.02-.11.02z" fill="#202020"></path></g></g><g><g><path d="m50.87 38.47c-1.73 0-3.5-.67-4.85-1.84-.16-.13-.17-.37-.04-.53.14-.16.37-.17.53-.04 1.23 1.07 2.86 1.65 4.42 1.66.79 0 1.59-.18 2.32-.51.81-.37 1.44-.85 1.85-1.42.82-1.12 1.21-2.63 1.19-4.62l-.02-.24c-.03-.35-.06-.71 0-1.09.06-.36.22-.64.47-.8.23-.14.51-.19.87-.14.51.09.96.43 1.25.94.24.41.38.89.4 1.38.01.21-.15.38-.36.39-.18.02-.38-.15-.39-.36-.01-.37-.12-.73-.3-1.04s-.45-.53-.72-.58c-.16-.02-.28-.01-.35.03-.06.04-.11.15-.14.28-.04.29-.02.59.01.91l.02.28c.03 2.18-.41 3.84-1.33 5.09-.49.67-1.21 1.23-2.14 1.65-.82.38-1.73.58-2.62.58-.03.02-.05.02-.07.02z" fill="#202020"></path></g></g><g><g><path d="m53.61 46.9c-2.98 0-6.21-.82-9.62-2.45-.19-.09-.26-.31-.18-.5.09-.18.31-.27.5-.18 3.5 1.67 6.81 2.47 9.8 2.37 1.87-.08 3.49-.49 4.81-1.22 1.4-.77 2.66-1.93 3.66-3.36.12-.17.35-.21.52-.09s.21.35.09.52c-1.06 1.52-2.41 2.76-3.91 3.59-1.42.79-3.15 1.23-5.14 1.31-.18.01-.35.01-.53.01z" fill="#202020"></path></g></g><g><g><path d="m60.44 40.53c-.6 0-1.1-.21-1.41-.6-.39-.46-.5-1.1-.27-1.62.2-.44.58-.8 1.13-1.07.19-.09.41-.02.5.17.09.18.02.41-.17.5-.39.2-.65.43-.78.71-.11.25-.04.6.17.85.24.3.67.33.9.32.38 0 .77-.07 1.21-.2.37-.11.74-.27 1.15-.5.32-.18.68-.4.93-.71.21-.25.26-.59.14-.86-.13-.28-.42-.49-.72-.52-.05-.01-.09 0-.12 0-.17.01-.37-.09-.42-.26-.05-.16-.03-.34.12-.43.17-.1.26-.16.35-.23.19-.14.34-.28.45-.42.26-.3.36-.67.27-.99-.07-.31-.37-.54-.7-.56-.23-.03-.46 0-.63.03-.07.01-.13.02-.18.03-.17.04-.48.11-.62-.18-.15-.29.11-.51.21-.6.09-.14.11-.45-.01-.71-.13-.3-.45-.47-.69-.56-.61-.22-1.35-.26-2.19-.13-.2.03-.39-.11-.43-.31s.11-.39.31-.43c.96-.15 1.83-.1 2.57.17.55.21.93.54 1.11.96.14.31.18.66.11.98.15-.01.33-.02.5 0 .65.04 1.21.5 1.36 1.12.15.54-.01 1.18-.42 1.65-.08.1-.17.19-.27.28.32.17.58.44.73.78.23.52.14 1.18-.24 1.64-.32.4-.76.68-1.15.89-.45.25-.87.43-1.29.56-.56.18-1.06.25-1.51.25z" fill="#202020"></path></g></g><g><g><path d="m58.41 36.03c-.32 0-.67-.09-.89-.43-.26-.47-.25-1.04.03-1.53.21-.39.51-.69.79-.98.55-.54 1.18-1.13 1.91-1.6.17-.11.4-.06.52.11.11.17.06.4-.11.52-.67.43-1.27.99-1.77 1.48-.28.28-.53.53-.69.83-.15.27-.17.57-.05.78.08.12.4.07.69.01.3-.09.64-.22 1.02-.41.72-.37 1.38-.79 1.94-1.24.16-.13.4-.1.52.06.13.16.1.4-.06.52-.61.48-1.3.93-2.07 1.32-.43.21-.81.36-1.18.47-.13.04-.36.09-.6.09z" fill="#202020"></path></g></g><g><g><path d="m59.19 37.98c-.19 0-.39-.02-.58-.08-.47-.15-.77-.61-.72-1.08.08-.67.56-1.31 1.24-1.63.19-.09.41-.01.5.18s.01.41-.18.5c-.45.21-.77.62-.82 1.04-.01.11.08.24.2.28.22.07.49.05.72.02.85-.11 1.66-.39 2.52-.69.26-.09.53-.18.79-.27.2-.06.41.04.47.24s-.04.41-.24.47c-.26.08-.52.18-.78.27-.86.3-1.74.61-2.68.73-.14 0-.29.02-.44.02z" fill="#202020"></path></g></g><g><g><path d="m62.38 41.95c-.2 0-.4-.03-.59-.08-.57-.17-1.17-.65-1.24-1.36-.02-.2.13-.39.34-.41.2-.02.39.13.41.34.03.36.39.62.7.72.36.1.79.05 1.21-.14.31-.15.73-.4.92-.81.15-.29.04-.68-.22-.82-.18-.1-.25-.32-.16-.5.1-.18.32-.25.5-.16.62.33.87 1.17.53 1.81-.23.47-.66.86-1.28 1.15-.36.17-.75.26-1.12.26z" fill="#202020"></path></g></g><g><g><path d="m15.17 49.41c-.1 0-.2-.04-.27-.12-.14-.15-.13-.39.02-.53.35-.33.69-.66.96-1.03.1-.15.2-.31.21-.46 0-.08-.07-.16-.16-.2-.56-.12-1.16.12-1.79.37-.27.11-.55.22-.82.3-1.11.37-2.25-.01-3.12-.38-1.05-.47-1.88-1.28-2.26-2.23-.08-.19.01-.41.21-.49.19-.08.41.01.49.21.31.77.99 1.44 1.87 1.83.74.31 1.72.64 2.6.35.26-.08.52-.18.77-.28.71-.28 1.43-.57 2.26-.4.45.15.72.54.7.94-.01.34-.18.63-.35.87-.31.43-.68.78-1.06 1.14-.08.08-.17.11-.26.11z" fill="#202020"></path></g></g><g><g><path d="m15.74 56.88c-.25 0-.49-.03-.73-.05-1.53-.17-3.04-.61-4.58-1.33-2.91-1.33-5.34-3.41-7.04-6-1.93-2.82-2.72-6.08-2.17-8.95.25-1.44.97-2.86 2.13-4.21 1.18-1.4 2.48-2.32 3.87-2.72.2-.06.4.06.46.25.06.2-.06.4-.25.46-1.24.36-2.42 1.2-3.51 2.49-1.08 1.25-1.74 2.55-1.96 3.86-.52 2.68.23 5.74 2.05 8.4 1.6 2.45 3.99 4.48 6.73 5.74 1.47.69 2.9 1.11 4.26 1.26.42.04.74.08 1.05.03.38-.05.6-.16.68-.32.03-.06.03-.17-.01-.24-.03-.06-.11-.13-.25-.2-.26-.13-.58-.21-.95-.24-.2-.02-.36-.2-.34-.4s.2-.35.4-.34c.46.04.88.15 1.24.32.2.11.45.27.58.56.12.28.12.6 0 .87-.3.61-1.02.71-1.25.74-.13.01-.27.02-.41.02z" fill="#202020"></path></g></g><g><g><path d="m18.27 51.76c-.5 0-.99-.05-1.46-.1-.2-.02-.35-.21-.33-.41s.2-.35.41-.33c.74.08 1.53.16 2.29.03.27-.06.6-.15.67-.36.07-.17-.21-.37-.4-.45-1.35-.61-2.86-.62-4.56-.58-.24-.01-.38-.16-.38-.36-.01-.21.16-.38.36-.38 1.78-.05 3.38-.03 4.88.64.67.3.99.85.8 1.38-.2.63-.92.78-1.23.85-.35.04-.7.07-1.05.07z" fill="#202020"></path></g></g><g><g><path d="m18.5 53.87c-.54 0-1-.06-1.43-.19-.2-.06-.31-.27-.25-.46.06-.2.27-.31.46-.25.48.14 1.03.19 1.68.14.29-.03.55-.05.76-.15.08-.04.13-.08.15-.12 0-.02.02-.1-.01-.17-.06-.15-.28-.27-.49-.37-.24-.11-.51-.2-.8-.27-.51-.13-1.04-.21-1.55-.29l-.22-.03c-.2-.03-.34-.22-.31-.43.03-.2.22-.34.43-.31l.22.03c.53.08 1.08.17 1.62.3.32.08.63.18.93.31.34.16.71.38.87.78.08.24.08.47 0 .71-.1.24-.28.4-.52.52-.33.16-.68.19-1 .22-.18.03-.36.03-.54.03z" fill="#202020"></path></g></g><g><g><path d="m17.05 55.55c-.02 0-.04 0-.06 0-.21 0-.37-.17-.37-.38s.16-.39.38-.37c.42 0 .76-.03 1-.2.03-.02.06-.05.06-.12.01-.13-.07-.32-.19-.43-.42-.35-1-.47-1.61-.6-.2-.04-.41-.08-.6-.13-.2-.05-.32-.25-.27-.45s.25-.32.45-.27c.19.05.38.09.57.12.68.14 1.38.28 1.96.77.29.28.46.68.44 1.03-.02.27-.15.51-.36.68-.43.3-.92.35-1.4.35z" fill="#202020"></path></g></g><g><g><g><path d="m22.59 32.65c-.15 0-.29-.01-.44-.02-2.08-.18-3.83-2.06-3.82-4.09-.02-1.02.41-2.06 1.15-2.77.72-.7 1.73-1.11 2.78-1.11 2.11-.06 4.02 1.58 4.26 3.63.02.2-.12.39-.33.41-.2.02-.39-.12-.41-.33-.2-1.65-1.81-2.98-3.51-2.97-.86 0-1.68.33-2.27.9-.6.57-.94 1.4-.93 2.23-.01 1.67 1.43 3.2 3.14 3.35.85.09 1.71-.14 2.37-.63.67-.5 1.12-1.28 1.2-2.09.02-.2.21-.35.41-.33s.35.21.33.41c-.11 1.01-.67 1.99-1.5 2.61-.67.51-1.54.8-2.43.8z" fill="#202020"></path></g></g><g><g><path d="m32.32 32.78c-.94 0-1.87-.33-2.58-.92-.8-.65-1.31-1.65-1.37-2.67-.01-.21.14-.38.35-.39.18-.01.38.14.39.35.05.81.46 1.61 1.1 2.14.63.53 1.48.79 2.32.74 1.72-.08 3.22-1.55 3.29-3.2.05-.83-.25-1.67-.81-2.27s-1.36-.97-2.21-1.01c-1.7-.11-3.37 1.18-3.64 2.82-.03.2-.23.34-.43.31s-.34-.23-.31-.43c.34-2.03 2.32-3.58 4.42-3.44 1.04.05 2.03.5 2.72 1.24.7.74 1.08 1.79 1.02 2.82-.08 2.02-1.91 3.81-3.99 3.91-.1 0-.19 0-.27 0z" fill="#202020"></path></g></g><g><g><path d="m28.75 28.99h-2.54c-.21 0-.37-.17-.37-.37 0-.21.17-.37.37-.37h2.54c.21 0 .37.17.37.37.01.2-.16.37-.37.37z" fill="#202020"></path></g></g><g><g><path d="m22.08 29.96c-.2 0-.37-.16-.37-.36l-.03-1.32c0-.21.16-.38.36-.38.24 0 .38.16.38.36l.03 1.32c.01.21-.15.38-.37.38.01 0 .01 0 0 0z" fill="#202020"></path></g></g><g><g><path d="m32.29 29.97c-.01 0-.01 0-.02 0-.21-.01-.37-.18-.36-.39l.05-1.25c.01-.21.18-.38.39-.36.21.01.37.18.36.39l-.05 1.25c-.01.21-.18.36-.37.36z" fill="#202020"></path></g></g><g><g><path d="m27.32 35.9c-.8 0-1.47-.17-2-.51-.17-.11-.23-.34-.11-.51.11-.17.34-.22.51-.11.5.32 1.18.44 2.03.37.44-.04 1.28-.22 1.81-.85.13-.16.37-.18.53-.04.16.13.18.37.04.53-.52.62-1.35 1.01-2.32 1.11-.16.01-.32.01-.49.01z" fill="#202020"></path></g></g></g></g></svg>