<!-- icon666.com - MILLIONS OF FREE VECTOR ICONS --><svg id="Layer_1" enable-background="new 0 0 68 68" viewBox="0 0 68 68" xmlns="http://www.w3.org/2000/svg"><g id="_x34_5"><g><g><g><g><g><path d="m1.7 57c.3.6.7 1.1 1.2 1.6.4.4.9.6 1.5.6 8.2.3 16.4.3 24.6 0 1.6 1.2 3.5 2.2 5.5 2s3.5-.8 4.4-2.6c8.5 1.2 17.2 1.6 25.8 1.1.7 0 1.3-.5 1.6-1.1.2-.5.5-1.1.6-1.6-25.9-3.5-34.3-.6-50.5-1.5-5-.1-10.2-.5-14.7 1.5z" fill="#fc4949"></path></g></g><g><g><path d="m28 37.2c10.5-2 21.7-2.6 32.3-1.4.3 0 .5.2.6.5 2 6.8 3.9 13.8 5.9 20.5.1.5-.2 1-.7 1-9.1.3-18.3 0-27.4-.4-.3 0-.6.1-.7.4-1.6 2.1-4.8 2.6-7 .6-1.2-1-1.7-.9-3.4-.9-6 0-11.9 0-17.7 0-.7 0-5.4-.2-7.6-.2-.5 0-.8-.4-.7-.9 2.5-6.8 4.8-14.1 6.8-21 .1-.4.4-.6.9-.7 6.1-.2 13.1-.2 18.7 2.5z" fill="#fd625d"></path></g></g><g><g><path d="m62.4 56.6c0 .2-.1.3-.3.2-3-1.3-6-2.5-9.1-3.4-3-.9-6.2-1.6-9.4-.8-2.1.5-4.1 1.6-6.1 3.6-.4.4-1 .4-1.4.1s-.9-.4-1.5-.5c-.7 0-1.3.2-1.8.6-.3.3-.8.4-1.2.3-1.8-.7-3.6-.8-5.5-.7-3.2 0-18.5-.4-20.8-.1-.1 0-.3-.1-.2-.2.5-1.8 1-3.5 1.4-5.1 1.5-5 2.8-9.3 4.3-14.9 0-.1.1-.1.2-.1.5 0 1.3-.5 1.5-1 0-.1.1-.1.2-.1.7.1 1.2-.1 1.9-.2.1 0 .1-.1.2-.1.5-1.6.8-3.3 1.2-5 0-.2.2-.3.4-.4.7-.3 1.1-1 1.3-1.8.1-.3.4-.6.8-.5 4.3.7 14.2.1 17.4 6.9.1.2.3.2.4 0 2.8-6.6 7.7-9.8 14-13.3h.2c.3.3.7.4 1.1.3.4 0 .1.5.4 3.5.2 1.4-.1 1.5 2.1 1.1.1 0 .1 0 .2.1.2.3.5.5.9.5.1 0 .2.1.2.2.6 3.2 1 6.2 1.5 9.2 0 .1.1.1.1.1 1.2.6 1.3.5 1.3.7.6 6.9 2 14 4.1 20.8z" fill="#ffd55f"></path></g></g><g><g><path d="m62.4 56.6c0 .2-.1.3-.3.2-3-1.3-6-2.5-9.1-3.4-3-.9-6.2-1.6-9.4-.8-5.5 1.4-5.5 4.7-8.5 5.1-1.7.3-2.7-.9-4.2-1.3-1.6-.5-3.3-.5-4.9-.5-3.2 0-18.5-.4-20.8-.1-.1 0-.3-.1-.2-.2.5-1.8 1-3.5 1.4-5.1 1.5-2 3.8-3.6 6.1-4.5 4.2-1.6 8.7-1.6 13.2-1.7s9.1-.3 13.1-2.2c3.8-1.8 6.8-5 8.7-8.6 2.1-3.5 3.1-7.5 3.5-11.6 1.6 1.3 3.2 3.2 4.4 5.5 1.2 7.2 1.1 7.4 1.3 7.5 1.2.6 1.3.5 1.3.7.9 7.1 2.3 14.2 4.4 21z" fill="#fcc11a"></path></g></g><g><g><path d="m11.3 53.4c1.5-8.5 2.6-16.2 4.2-24.7 0-.3.3-.5.6-.4.3 0 .5.3.4.6-1.5 8.2-2.6 15.7-4 23.9 5.4-1.7 11.4-1.6 17.3.2.3.1.4.4.3.6-.1.3-.4.4-.6.3-6-1.8-12.1-1.8-17.5.1-.4.1-.8-.2-.7-.6z"></path></g></g><g><g><path d="m34.9 53.4c-.3 0-.5-.3-.4-.6.8-6.6 1.1-13.3 1-19.9 0-.3.2-.5.5-.5.3 0 .5.2.5.5.1 6.7-.3 13.4-1.1 20.1.1.2-.2.4-.5.4z"></path></g></g><g><g><path d="m36 53.7c-.2-.2-.2-.5 0-.7 4.4-3.8 10.6-5.6 16.4-4.6.1-9.4-.8-19-1.4-28.4 0-.3.2-.5.5-.5s.5.2.5.5c.6 9.5 1.6 19.4 1.4 29.1 0 .3-.3.5-.6.5-5.6-1.2-11.8.4-16.1 4.2-.2.1-.5.1-.7-.1z"></path></g></g><g><g><path d="m57.6 52c-.7-.3-1.8-.3-2.6-.6-.3-.1-.4-.4-.3-.6.1-.3.4-.4.6-.3.5.2 1.2.3 1.9.4-.9-8.1-1.6-16.8-2.5-24.8 0-.3.2-.5.4-.6.3 0 .5.2.6.4 1 8.3 1.6 17.2 2.6 25.6 0 .4-.4.7-.7.5z"></path></g></g><g><g><path d="m4.9 55.2c-.3-.1-.4-.3-.4-.6 1.6-6.4 3.6-12.8 5.9-19 .1-.3.4-.4.6-.3.3.1.4.4.3.6-2.2 6.2-4.2 12.5-5.8 18.9-.1.3-.4.5-.6.4z"></path></g></g><g><g><path d="m39.2 35.1c-.2-.2-.2-.5 0-.7 2.5-2.3 5.9-3.5 9.3-3.3.3 0 .5.2.5.5s-.2.5-.5.5c-3.1-.1-6.3 1-8.6 3.1-.2.1-.5.1-.7-.1z"></path></g></g><g><g><path d="m40.4 40.7c-.1-.3 0-.5.3-.6 1.9-.7 3.9-1.3 5.9-1.6.3-.1.5.1.6.4s-.1.5-.4.6c-2 .4-3.9.9-5.8 1.6-.2 0-.5-.1-.6-.4z"></path></g></g><g><g><path d="m42.5 45.3c0-.3.2-.5.5-.5l4-.3c.3 0 .5.2.5.5s-.2.5-.5.5l-4 .3c-.2-.1-.5-.3-.5-.5z"></path></g></g></g><g><g><path d="m27.8 59.6-24.3.2c-.3 0-.2 0-2.2-2.3-.2-.2-.2-.5.1-.7.2-.2.5-.2.7.1l1.7 2 24.2-.3c.1 0 .3.1.4.2 1.2 1.3 3.3 2.2 5.3 2.1 1.9-.1 3.8-1 4.9-2.5.1-.1.3-.2.4-.2 2.2.1 4.4.2 6.5.3s4.3.2 6.4.3l1.4.1c.3 0 .5.3.5.5 0 .3-.3.5-.5.5l-1.4-.1c-2.1-.1-4.3-.2-6.4-.3-2-.1-4.1-.2-6.2-.3-3 3.6-8.5 3.5-11.5.4z"></path></g></g></g><g><g><path d="m31.3 57.1c-8.2-1.1-15.8-1.5-22.5-1.3-.3 0-.5-.2-.5-.5s.2-.5.5-.5c6.8-.2 14.5.2 22.8 1.3.1 0 .2.1.3.2.6.8 1.6 1.2 2.6 1.1 1.1-.1 1.9-.9 2.7-1.7 1.8-1.8 4.1-3.3 6.5-3.8 3.1-.6 6.3.3 9.1 1.2l6.7 2c.3.1.4.4.3.6-.1.3-.4.4-.6.3l-6.7-2c-2.7-.8-5.7-1.8-8.6-1.2-1.6.3-3.2 1.1-4.9 2.5-1.3 1.1-2.3 2.9-4.4 3-1.2.2-2.5-.3-3.3-1.2z"></path></g></g><g><g><path d="m32 36.6c-3.9-1.3-8.1-1.5-12.1-.7-.3.1-.5-.1-.6-.4s.1-.5.4-.6c4.2-.8 8.5-.6 12.6.7.3.1.4.4.3.6-.1.3-.4.4-.6.4z"></path></g></g><g><g><path d="m20.5 40.9c-.1-.3.1-.5.4-.6 2.6-.6 5.3-.6 7.9 0 .3.1.4.3.4.6-.1.3-.3.4-.6.4-2.4-.5-5-.5-7.4 0-.4 0-.7-.1-.7-.4z"></path></g></g><g><g><path d="m27.7 46.9c-2-.6-4.2-.8-6.3-.6-.3 0-.5-.2-.5-.5s.2-.5.5-.5c2.2-.2 4.5 0 6.7.7.3.1.4.4.3.6-.2.2-.5.4-.7.3z"></path></g></g></g><g><g><g><path d="m28.7 18.8c.3-1.6 1.5-2.2 2.5-1.5.4.3.7.6.5 1-.2.3-.5.3-.7.1-.8-1.1-1.5.7-1.2 1.5.4.8 1.3 1.5 2 2 .8.5 1.7 1 2.6 1 1.1.1 1.2-.5.6-1.5-.4-.5.4-1.2.7-.6 3.8 5.3-7.8 2.4-7-2z"></path></g></g><g><g><path d="m39.6 18c.6-.2.8.8.2.9-1.4.4-2.6-.1-2.8-.1-.1 0-.1.1 0 .2.3.3.7.7.9.9.4.4-.3 1.1-.7.7-.6-.6-5.5-5.4-5.5-5.4-.2-.2-.2-.5 0-.7 1.8-2.2 6 .3 5.1 3.1v.1c.1.2.2.1.5.2.8.1 1.5.3 2.3.1zm-6.4-3.3c-.2.1-.2.3-.1.4.5.5 2.6 2.6 2.5 2.5.1 0 .2 0 .3-.1.6-1.5-1.3-3.2-2.7-2.8z"></path></g></g><g><g><path d="m41 18c-.2.1-.5.1-.7-.2-1.4-2.2-2.8-4.1-4.2-6.4-.1-.2-.1-.5.1-.7.6-.4 1.4-.8 2-1.1.5-.3 1.1.5.5.8-.5.3-1.5.8-1.4.8-.1.1-.1.2-.1.3.2.4.5.9.8 1.3.1.1.3.1.4 0l1.1-.7c.5-.3 1 .5.5.8l-1.1.7c-.1.1-.2.2-.1.4 1.6 2.4 1.8 2.8 2 2.9h.2c.4-.3.8-.7 1.1-1 .4-.5 1.1.2.7.7-.4.4-1 .9-1.8 1.4z"></path></g></g><g><g><path d="m44.4 15.6c.1.6-.9.7-1 .1-.8-4.1-2.2-7.9-.7-8.5.3-.1.7 0 1 .3 1.5 1.4 2.5 4.7 3.7 6.7.3.5-.5 1.1-.8.6l-.2-.3c-.1-.1-.5-.9-.4-.8-.1-.1-.2-.2-.3-.1-.5.2-1 .4-1.5.6-.1.1-.1.1-.1.3.1.4.2.8.3 1.1zm-.6-2.5c.1.1.1.1.2 0 .3-.1.5-.2 1.3-.5.1 0 .2-.1.1-.2-.4-.9-1.5-3.4-2.2-4.1-.1-.1-.1-.1-.2-.1-.3.2.7 4.7.8 4.9z"></path></g></g><g><g><path d="m46.4 7.5c-.5.1-.9-.7-.3-.9 1.1-.3 2.4-.4 3-.4.6-.1.8.9.2 1-.2 0-.8.1-1 .1-.1 0-.2.1-.2.2s.9 6.8.9 6.9c.1.6-.9.8-1 .2 0-.1-.8-6.2-.9-6.9 0-.1-.1-.1-.1-.1-.1-.2-.7-.1-.6-.1z"></path></g></g><g><g><path d="m51.2 14.1c0-1.5 0-2.6.1-7.6 0-.3.2-.4.5-.4s.5.2.5.5c0 3-.1 5.2-.1 7.6 0 .6-1 .6-1-.1z"></path></g></g><g><g><path d="m53.8 14.2c0-1.3 0-6.5.2-7.7.1-.5 1-.4.9.2 0 .3-.3 5.1-.2 5.3 0 .2.2.1.3 0s2.3-4.7 2.3-4.8c.2-.5.3-.5.5-.6.4-.1.7.3.5.8-.1.2-1.8 4-3.1 6.4-.8 1.4-1.4 1.1-1.4.4z"></path></g></g><g><g><path d="m57.8 15.7c-.1 0-.2-.1-.3-.3-.1-.1-.1-.2 0-.4.8-2.2 1.7-4.8 2.7-7.2.1-.3.4-.4.6-.3.5.2 1.4.7 1.6.7.5.2.7.3.8.5.1.3-.2.8-.6.6-.5-.2-1.1-.5-1.4-.7-.1 0-.2 0-.3.1-.5 1.2-.6 1.3-.5 1.5s.3.2 1.4.7c.6.2.2 1.1-.4.9l-1.2-.5c-.1-.1-.3 0-.4.1 0 .1-1.2 3.1-1.2 3.2s0 .2.1.3c.5.1 1 .3 1.5.3.6.1.5 1-.1 1-.7 0-1.6-.2-2.3-.5z"></path></g></g></g></g></svg>