<!-- icon666.com - MILLIONS OF FREE VECTOR ICONS --><svg id="Layer_1" enable-background="new 0 0 130 130" viewBox="0 0 130 130" xmlns="http://www.w3.org/2000/svg"><g><circle cx="65" cy="65" fill="#f34b50" r="64"></circle><g><g><g><g><g fill="#e53946"><path d="m116.823 74.381h9.553v4.448h-9.553z"></path><path d="m110.751 74.382h4.953v4.448h-4.953z"></path></g></g></g><g><g><g fill="#e53946"><path d="m116.823 63.175h9.553v4.448h-9.553z"></path><path d="m128.86227 68.88506c-.09009 1.5-.22998 2.98999-.41992 4.44995h-6.86012v-4.44995z"></path></g></g></g></g><g><g><g><g fill="#e53946"><path d="m9.579 57.872h9.553v4.448h-9.553z"></path><path d="m3.507 57.872h4.953v4.448h-4.953z"></path></g></g></g><g><g><g fill="#e53946"><path d="m25.015 52.378h4.953v4.448h-4.953z"></path><path d="m14.343 52.378h9.553v4.448h-9.553z"></path></g></g></g></g><g><g><g fill="#e53946"><path d="m57.188 18.603h9.553v4.448h-9.553z"></path><path d="m67.86 18.603h4.953v4.448h-4.953z"></path></g></g></g><g><g><g fill="#e53946"><path d="m35.70211 9.62505v4.43994h-9.46973c2.10986-1.61987 4.32983-3.09985 6.6499-4.43994z"></path><path d="m30.94235 15.33501v4.44995h-9.56006v-1.62988c1.05005-.97998 2.12988-1.91992 3.23999-2.82007z"></path></g></g></g><g><g><g><g><path d="m117.97213 29.09502h-7.18994v-4.44995h3.88013c1.16992 1.42993 2.27001 2.91992 3.30981 4.44995z" fill="#e53946"></path></g></g></g><g><g><g fill="#e53946"><path d="m99.943 19.154h4.953v4.448h-4.953z"></path><path d="m113.7922 23.60503h-7.78003v-4.44995h3.62012c1.45996 1.40991 2.85009 2.8999 4.15991 4.44995z"></path></g></g></g></g></g><path d="m8.95313 95.9041c10.90234 19.72949 31.91016 33.0957 56.04688 33.0957 24.13647 0 45.14429-13.36621 56.04663-33.0957z" fill="#e53946"></path><path d="m111.52589 28.26992h-32.05518c-1.16943 0-2.11743.948-2.11743 2.11719v7.41284h-52.15015c-2.19995 0-3.97998 1.78003-3.97998 3.97998v51.19995c0 2.19995 1.78003 3.97998 3.97998 3.97998h30.38989c1.61011 0 3.05005.8501 4 2.15015 1.17017 1.58984 3.06006 2.61987 5.18018 2.61987 2.11987 0 4.01001-1.03003 5.17993-2.61987.94995-1.30005 2.38989-2.15015 4-2.15015h30.38013c2.19995 0 3.97998-1.78003 3.97998-3.97998v-41.55982h3.21265c1.16919 0 2.11719-.948 2.11719-2.11719v-18.91576c-.00001-1.16919-.948-2.11719-2.11719-2.11719z" fill="#e53946"></path><g><path d="m105.88006 41.77993v51.19995c0 2.19995-1.78003 3.97998-3.97998 3.97998h-30.38013c-1.61011 0-3.05005.8501-4 2.15015-1.16992 1.58984-3.06006 2.61987-5.17993 2.61987-2.12012 0-4.01001-1.03003-5.18018-2.61987-.94995-1.30005-2.38989-2.15015-4-2.15015h-30.38989c-2.19995 0-3.97998-1.78003-3.97998-3.97998v-51.19995c0-2.19995 1.78003-3.97998 3.97998-3.97998h79.13013c2.19995 0 3.97998 1.78003 3.97998 3.97998z" fill="#fad553"></path><g fill="#fcde7e"><path d="m21.65306 44.05219v14.5854c0 .39009-.31202.70212-.70212.70212-.37894 0-.70212-.31202-.70212-.70212v-14.5854c0-.37894.32318-.69096.70212-.69096.39009 0 .70212.31202.70212.69096z"></path><path d="m21.65306 62.60883v5.63344c0 .3901-.31202.70213-.70212.70213-.37894 0-.70212-.31203-.70212-.70213v-5.63344c0-.37894.32318-.69097.70212-.69097.39009.00001.70212.31203.70212.69097z"></path></g><g fill="#fab941"><path d="m105.88006 41.77993v10.46997h-15.05005c-.29004 0-.57007.1001-.79004.29004l-7.65015 6.27002c-.52979.42993-1.30981.06006-1.30981-.61011v-4.69995c0-.68994-.56006-1.25-1.25-1.25h-1.95996c-1.17017 0-2.12012-.94995-2.12012-2.11987v-12.33008h26.15015c2.19995 0 3.97998 1.78003 3.97998 3.97998z"></path><path d="m55.80999 97.7499c.03003.04004.06006.08008.09009.11011-.79004-.57007-1.72998-.90015-2.74023-.90015h-30.3899c-1.44995 0-2.70996-.76978-3.3999-1.92993.59985.37012 1.2898.57007 2.0398.57007h30.39013c1.60986 0 3.06006.84985 4.01001 2.1499z"></path><path d="m105.88006 41.77993v51.19995c0 2.19995-1.78003 3.97998-3.97998 3.97998h-30.38013c-1.61011 0-3.05005.8501-4 2.15015-1.16992 1.58984-3.06006 2.61987-5.17993 2.61987-2.12012 0-4.01001-1.03003-5.18018-2.61987-.00977-.01001-.02002-.02002-.02979-.03003 1.06982.81006 2.40991 1.29004 3.85986 1.29004 2.12012 0 4-1.03003 5.16992-2.62012.9502-1.30005 2.40015-2.1499 4.01025-2.1499h30.37988c2.19995 0 3.97998-1.77002 3.97998-3.96997v-51.20997c0-.75-.19995-1.44019-.57007-2.04004 1.15017.68995 1.92019 1.95996 1.92019 3.39991z"></path><path d="m101.88006 37.79995v52.28003c0 1.59985-1.30005 2.88989-2.90015 2.88989h-33c-1.59985 0-2.88989-1.29004-2.88989-2.88989v-49.26001c0-1.11011.31006-2.14014.83984-3.02002z"></path><path d="m63.09002 40.81997v49.26001c0 1.59985-1.30005 2.88989-2.90015 2.88989h-33c-1.59985 0-2.8999-1.29004-2.8999-2.88989v-52.28003h37.95996c.53003.87988.84009 1.90991.84009 3.02002z"></path></g><path d="m101.13006 37.11v52.20996c0 1.6001-1.30005 2.8999-2.90015 2.8999h-33c-1.59985 0-2.88989-1.2998-2.88989-2.8999v-49.26c0-3.22998 2.61987-5.8501 5.84985-5.8501h30.04004c1.6001 0 2.90015 1.30005 2.90015 2.90014z" fill="#ededed"></path><path d="m101.13006 37.11v15.1399h-10.30005c-.29004 0-.57007.1001-.79004.29004l-7.65015 6.27002c-.52979.42993-1.30981.06006-1.30981-.61011v-4.69995c0-.68994-.56006-1.25-1.25-1.25h-1.95996c-1.17017 0-2.12012-.94995-2.12012-2.11987v-15.92017h22.47998c1.6001 0 2.90015 1.30005 2.90015 2.90014z" fill="#dddce0"></path><path d="m63.67889 36.33388c-.83911 1.0127-1.34375 2.31274-1.34375 3.73071v49.26001c0 1.02661.53784 1.92334 1.34375 2.43726z" fill="#dddce0"></path><path d="m62.33501 40.0646v49.26001c0 1.59901-1.29625 2.89526-2.89526 2.89526h-33.0017c-1.59901 0-2.89526-1.29626-2.89526-2.89526v-52.21684c0-1.59901 1.29625-2.89526 2.89526-2.89526h30.04487c3.23202 0 5.85209 2.62007 5.85209 5.85209z" fill="#ededed"></path><g fill="#fff"><path d="m27.18553 36.00043h14.5854c.3901 0 .70212.31202.70212.70212 0 .37894-.31202.70212-.70212.70212h-14.5854c-.37894 0-.69097-.32318-.69097-.70212 0-.39009.31203-.70212.69097-.70212z"></path><path d="m45.74217 36.00043h5.63344c.3901 0 .70212.31202.70212.70212 0 .37894-.31202.70212-.70212.70212h-5.63344c-.37894 0-.69097-.32318-.69097-.70212 0-.39009.31203-.70212.69097-.70212z"></path></g><path d="m60.99126 36.33388c.83911 1.0127 1.34375 2.31274 1.34375 3.73071v49.26001c0 1.02661-.53784 1.92334-1.34375 2.43726z" fill="#dddce0"></path><g fill="#dddce0"><path d="m57.1906 42.36309c0 .77537-.62856 1.40393-1.40392 1.40393h-25.69555c-.77537 0-1.40392-.62856-1.40392-1.40392 0-.77536.62856-1.40392 1.40392-1.40392h25.69554c.77537-.00001 1.40393.62855 1.40393 1.40391z"></path><path d="m57.1906 50.70433c0 .77537-.62856 1.40392-1.40392 1.40392h-25.69555c-.77537 0-1.40392-.62856-1.40392-1.40392 0-.77537.62856-1.40392 1.40392-1.40392h25.69554c.77537 0 1.40393.62855 1.40393 1.40392z"></path><path d="m57.1906 59.04557c0 .77537-.62856 1.40393-1.40392 1.40393h-25.69555c-.77537 0-1.40392-.62856-1.40392-1.40392 0-.77536.62856-1.40392 1.40392-1.40392h25.69554c.77537-.00002 1.40393.62854 1.40393 1.40391z"></path><path d="m57.1906 67.3868c0 .77537-.62856 1.40393-1.40392 1.40393h-25.69555c-.77537 0-1.40392-.62856-1.40392-1.40392v-.00001c0-.77536.62856-1.40392 1.40392-1.40392h25.69554c.77537 0 1.40393.62856 1.40393 1.40392z"></path><path d="m57.1906 75.72804c0 .77537-.62856 1.40392-1.40392 1.40392h-25.69555c-.77537 0-1.40392-.62856-1.40392-1.40392 0-.77537.62856-1.40392 1.40392-1.40392h25.69554c.77537 0 1.40393.62855 1.40393 1.40392z"></path><path d="m57.1906 84.06928c0 .77537-.62856 1.40392-1.40392 1.40392h-25.69555c-.77537 0-1.40392-.62856-1.40392-1.40392 0-.77537.62856-1.40392 1.40392-1.40392h25.69554c.77537 0 1.40393.62855 1.40393 1.40392z"></path></g><path d="m95.98283 67.3868c0 .77537-.62856 1.40393-1.40392 1.40393h-25.69556c-.77536 0-1.40392-.62856-1.40392-1.40392v-.00001c0-.77536.62856-1.40392 1.40392-1.40392h25.69555c.77536 0 1.40393.62856 1.40393 1.40392z" fill="#dddce0"></path><path d="m95.98283 75.72804c0 .77537-.62856 1.40392-1.40392 1.40392h-25.69556c-.77536 0-1.40392-.62856-1.40392-1.40392 0-.77537.62856-1.40392 1.40392-1.40392h25.69555c.77536 0 1.40393.62855 1.40393 1.40392z" fill="#dddce0"></path><path d="m95.98283 84.06928c0 .77537-.62856 1.40392-1.40392 1.40392h-25.69556c-.77536 0-1.40392-.62856-1.40392-1.40392 0-.77537.62856-1.40392 1.40392-1.40392h25.69555c.77536 0 1.40393.62855 1.40393 1.40392z" fill="#dddce0"></path><path d="m111.20989 30.38719v18.91561c0 1.16933-.94793 2.11727-2.11727 2.11727h-19.09304c-.28971 0-.57046.10042-.79445.28416l-7.65129 6.27642c-.52063.42708-1.30353.05669-1.30353-.6167v-4.69126c0-.69181-.56082-1.25263-1.25263-1.25263h-1.96031c-1.16933 0-2.11727-.94793-2.11727-2.11727v-18.9156c0-1.16934.94794-2.11727 2.11727-2.11727h32.05525c1.16934 0 2.11727.94793 2.11727 2.11727z" fill="#66b071"></path><g fill="#89ce91"><path d="m78.58052 29.23903h11.75993c.31453 0 .5661.25158.5661.56611 0 .30554-.25157.56611-.5661.56611h-11.75993c-.30553 0-.55711-.26057-.55711-.56611 0-.31453.25158-.56611.55711-.56611z"></path><path d="m93.54239 29.23903h4.54214c.31453 0 .56611.25158.56611.56611 0 .30554-.25158.56611-.56611.56611h-4.54214c-.30553 0-.55711-.26057-.55711-.56611 0-.31453.25157-.56611.55711-.56611z"></path></g><path d="m79.40008 51.48989c-.13013-.0498-.26025-.06982-.40015-.06982h-1.95996c-.78003 0-1.46997-.43018-1.83008-1.06006.31006.18994.67993.29004 1.06006.29004h1.95996c.54004-.00001 1.01001.34985 1.17017.83984z" fill="#479e60"></path><path d="m111.20989 30.39004v18.90991c0 1.16992-.94995 2.12012-2.11987 2.12012h-19.09009c-.29004 0-.57007.09985-.79004.27979l-7.65991 6.28003c-.51001.42017-1.28003.07007-1.30005-.58984.18994.01001.38013-.05005.54004-.18018l7.6499-6.26978c.21997-.19019.5-.29004.79004-.29004h19.1001c1.15991 0 2.10986-.94019 2.10986-2.11011v-18.91992c0-.39014-.10986-.75-.28979-1.06006.62988.3601 1.05981 1.05005 1.05981 1.83008z" fill="#479e60"></path><g fill="#479e60"><path d="m105.68487 34.19818c0 .71997-.58984 1.31006-1.30981 1.31006h-22.62012c-.71997 0-1.30981-.59009-1.30981-1.31006s.58984-1.31006 1.30981-1.31006h22.62012c.71996 0 1.30981.59009 1.30981 1.31006z"></path><path d="m105.68487 39.84499c0 .71997-.58984 1.31006-1.30981 1.31006h-22.62012c-.71997 0-1.30981-.59009-1.30981-1.31006s.58984-1.31006 1.30981-1.31006h22.62012c.71996 0 1.30981.59009 1.30981 1.31006z"></path><path d="m105.68487 45.4918c0 .71997-.58984 1.31006-1.30981 1.31006h-22.62012c-.71997 0-1.30981-.59009-1.30981-1.31006s.58984-1.31006 1.30981-1.31006h22.62012c.71996 0 1.30981.59009 1.30981 1.31006z"></path></g></g></g></svg>