<!-- icon666.com - MILLIONS OF FREE VECTOR ICONS --><svg version="1.1" id="Capa_1" xmlns="http://www.w3.org/2000/svg" xmlns:xlink="http://www.w3.org/1999/xlink" x="0px" y="0px" viewBox="0 0 512 512" style="enable-background:new 0 0 512 512;" xml:space="preserve"><path style="fill:#75706B;" d="M255.508,26.062c-28.804,0-52.153,23.349-52.153,52.153v21.088c3.486-3.231,8.444-4.987,13.285-4.34 v-2.599c0-2.066,1.764-3.698,3.809-3.543c20.164,1.449,40.685-4.959,56.201-15.095c1.448-0.947,3.366-0.711,4.544,0.554 c13.265,14.258,13.185,13.707,13.185,15.568v5.103c5.306-0.795,10.012,0.844,13.282,3.885V78.215 C307.661,49.411,284.312,26.062,255.508,26.062z"></path><path style="fill:#635E5A;" d="M219.755,78.215c0-26.013,19.046-47.572,43.953-51.506c-2.672-0.422-5.409-0.647-8.2-0.647 c-28.804,0-52.153,23.349-52.153,52.153v21.088c3.486-3.231,8.444-4.987,13.285-4.34v-2.599c0-1.827,1.381-3.31,3.115-3.522 L219.755,78.215L219.755,78.215z"></path><path style="fill:#FCC7A2;" d="M294.308,93.063v28.68c0,0.311-0.016,0.618-0.024,0.928c10.149,1.537,18.098-5.797,18.098-14.803 C312.383,98.844,304.427,91.546,294.308,93.063z"></path><path style="fill:#F7B284;" d="M307.685,97c-3.284-3.077-8.027-4.739-13.376-3.937v28.681c0,0.311-0.016,0.618-0.024,0.928 c5.365,0.812,10.113-0.855,13.4-3.936V97z"></path><path style="fill:#FCC7A2;" d="M216.756,121.778V93.036c-8.858-1.183-18.121,5.616-18.121,14.832c0,9.017,7.951,16.383,18.144,14.84 C216.771,122.398,216.756,122.089,216.756,121.778z"></path><path style="fill:#F7B284;" d="M216.756,117.319c-2.124-2.597-3.365-5.894-3.365-9.451c0-3.437,1.289-6.537,3.365-9.013v-5.818 c-8.859-1.183-18.121,5.616-18.121,14.832c0,9.017,7.951,16.383,18.144,14.84c-0.007-0.31-0.023-0.619-0.023-0.93V117.319z"></path><path style="fill:#FCC7A2;" d="M256.064,158.173c-8.426,0-15.83-2.313-21.886-6.183v21.366l21.793,26.899l21.792-26.899v-21.944 C271.589,155.671,264.114,158.173,256.064,158.173z"></path><path style="fill:#F7B284;" d="M250.394,157.806c-6.103-0.791-11.559-2.841-16.216-5.816v21.366l16.216,20.016V157.806z"></path><path style="fill:#E1F3F9;" d="M335.413,193.852l-57.651-22.327l-21.792,26.899l-21.793-26.899l-57.591,22.327 c0,0-21.323,8.766-21.323,33.074c0,21.995,0,77.592,0,95.36c0,3.924,3.181,7.105,7.105,7.105c2.99,0,184.225,0,187.261,0 c3.924,0,7.105-3.181,7.105-7.105c0-17.768,0-73.366,0-95.36C356.736,202.618,335.413,193.852,335.413,193.852z"></path><path style="fill:#D8DCE5;" d="M171.48,322.286c0-17.769,0-81.474,0-103.468c0-14.413,7.496-23.361,13.599-28.258l-8.492,3.292 c0,0-21.323,8.766-21.323,33.074c0,21.995,0,77.592,0,95.36c0,3.924,3.181,7.105,7.105,7.105c0.526,0,6.584,0,16.216,0 C174.662,329.391,171.48,326.21,171.48,322.286z"></path><path style="fill:#FCC7A2;" d="M281.194,72.449c-1.177-1.265-3.095-1.501-4.544-0.554c-15.516,10.136-36.037,16.543-56.201,15.095 c-2.045-0.155-3.809,1.477-3.809,3.543v31.157c0,20.025,15.69,38.314,39.424,38.314c21.127,0,38.315-17.188,38.315-38.314V88.017 C294.378,86.156,294.458,86.707,281.194,72.449z"></path><path style="fill:#F7B284;" d="M232.883,121.69V86.918c-4.129,0.33-8.288,0.369-12.433,0.072c-2.045-0.155-3.809,1.477-3.809,3.543 v31.157c0,20.025,15.69,38.314,39.424,38.314c2.59,0,5.12-0.261,7.567-0.754C246.116,155.727,232.883,140.226,232.883,121.69z"></path><g><path style="fill:#CBE8EF;" d="M282.283,212.247l16.296-32.66l-20.816-8.062l-21.792,26.899l21.247,15.09 C278.936,214.736,281.34,214.134,282.283,212.247z"></path><path style="fill:#CBE8EF;" d="M229.687,212.247l-16.296-32.66l20.816-8.062l21.793,26.9l-21.247,15.09 C233.034,214.736,230.63,214.134,229.687,212.247z"></path></g><path style="fill:#C64757;" d="M278.133,303.007l-13.987-82.77h-8.149h-0.026h-8.149l-13.987,82.77 c-0.147,1.066,0.166,2.149,0.833,2.884l0,0l0,0l19.31,21.277c1.076,1.185,2.937,1.185,4.012,0l19.31-21.277l0,0l0,0 C277.968,305.157,278.28,304.074,278.133,303.007z"></path><path style="fill:#B2364B;" d="M250.912,305.892c-0.667-0.735-0.98-1.818-0.833-2.884l13.987-82.77h-8.068h-0.026h-8.149 l-13.987,82.77c-0.147,1.066,0.166,2.149,0.833,2.884l19.31,21.277c1.076,1.185,2.937,1.185,4.012,0l6.115-6.738L250.912,305.892z"></path><polygon style="fill:#C64757;" points="255.998,198.443 255.998,198.425 255.985,198.434 255.972,198.425 255.972,198.443 240.518,209.419 247.823,220.412 255.972,220.412 255.998,220.412 264.147,220.412 271.451,209.419 "></polygon><path style="fill:#B2364B;" d="M264.093,204.192l-8.095-5.749v-0.019l-0.013,0.009l-0.013-0.009v0.019l-15.453,10.975l7.305,10.994 h8.149h0.026h8.041l-6.27-9.437c-0.576-0.867-0.36-2.035,0.489-2.638L264.093,204.192z"></path><path style="fill:#75706B;" d="M356.244,99.371c-28.804,0-52.153,23.349-52.153,52.153v21.088c3.486-3.231,8.444-4.987,13.285-4.34 v-2.599c0-2.066,1.764-3.698,3.809-3.543c20.164,1.449,40.685-4.959,56.201-15.095c1.449-0.947,3.366-0.711,4.544,0.554 c13.265,14.258,13.185,13.707,13.185,15.568v5.103c5.306-0.795,10.012,0.844,13.282,3.885v-20.621 C408.397,122.72,385.048,99.371,356.244,99.371z"></path><path style="fill:#635E5A;" d="M320.491,151.524c0-26.013,19.046-47.572,43.953-51.506c-2.672-0.422-5.409-0.647-8.2-0.647 c-28.804,0-52.153,23.349-52.153,52.153v21.088c3.486-3.231,8.444-4.987,13.285-4.34v-2.599c0-1.827,1.381-3.31,3.115-3.522V151.524 z"></path><path style="fill:#FCC7A2;" d="M395.044,166.372v28.68c0,0.311-0.016,0.618-0.024,0.928c10.149,1.537,18.098-5.797,18.098-14.803 C413.119,172.153,405.163,164.855,395.044,166.372z"></path><path style="fill:#F7B284;" d="M408.421,170.309c-3.284-3.077-8.027-4.739-13.376-3.937v28.681c0,0.311-0.016,0.618-0.024,0.928 c5.365,0.812,10.113-0.855,13.4-3.936V170.309z"></path><path style="fill:#FCC7A2;" d="M317.492,195.088v-28.742c-8.858-1.183-18.121,5.616-18.121,14.832 c0,9.017,7.951,16.383,18.144,14.84C317.507,195.707,317.492,195.398,317.492,195.088z"></path><path style="fill:#F7B284;" d="M317.492,190.628c-2.124-2.598-3.365-5.894-3.365-9.451c0-3.437,1.289-6.537,3.365-9.013v-5.818 c-8.859-1.183-18.121,5.616-18.121,14.832c0,9.017,7.951,16.383,18.144,14.84c-0.007-0.31-0.023-0.619-0.023-0.93V190.628z"></path><path style="fill:#FCC7A2;" d="M356.8,231.482c-8.426,0-15.83-2.313-21.886-6.183v21.366l21.793,26.899l21.792-26.899v-21.944 C372.325,228.98,364.85,231.482,356.8,231.482z"></path><path style="fill:#F7B284;" d="M351.129,231.115c-6.103-0.791-11.559-2.841-16.216-5.816v21.366l16.216,20.016V231.115z"></path><path style="fill:#E1F3F9;" d="M436.149,267.161l-57.651-22.327l-21.792,26.899l-21.793-26.899l-57.591,22.327 c0,0-21.323,8.766-21.323,33.074v27.122c0,7.131,5.781,12.912,12.912,12.912H449.64c4.325,0,7.831-3.506,7.831-7.831v-32.203 C457.472,275.927,436.149,267.161,436.149,267.161z"></path><path style="fill:#CBE8EF;" d="M285.815,263.869l-0.305,0.118l-8.187,3.174c0,0-10.666,4.396-16.91,15.569 c-2.582,4.621-4.413,10.393-4.413,17.504v27.122c0,7.131,5.781,12.912,12.912,12.912h3.304c0-19.184,0-38.052,0-48.142 C272.216,277.714,279.712,268.766,285.815,263.869z"></path><path style="fill:#FCC7A2;" d="M381.929,145.758c-1.177-1.265-3.095-1.501-4.544-0.554c-15.516,10.136-36.036,16.543-56.201,15.095 c-2.045-0.155-3.809,1.477-3.809,3.543v31.157c0,20.025,15.69,38.314,39.424,38.314c21.127,0,38.315-17.188,38.315-38.314v-33.672 C395.114,159.465,395.194,160.016,381.929,145.758z"></path><path style="fill:#F7B284;" d="M333.618,194.999v-34.771c-4.129,0.33-8.288,0.369-12.433,0.072 c-2.045-0.155-3.809,1.477-3.809,3.543V195c0,20.025,15.69,38.314,39.424,38.314c2.59,0,5.12-0.261,7.567-0.754 C346.852,229.036,333.618,213.535,333.618,194.999z"></path><g><path style="fill:#CBE8EF;" d="M383.019,285.556l16.296-32.66l-20.816-8.062l-21.792,26.899l21.247,15.09 C379.672,288.045,382.076,287.443,383.019,285.556z"></path><path style="fill:#CBE8EF;" d="M330.423,285.556l-16.296-32.66l20.816-8.062l21.792,26.899l-21.247,15.09 C333.769,288.045,331.365,287.443,330.423,285.556z"></path></g><polygon style="fill:#C64757;" points="348.559,293.547 340.664,340.269 372.778,340.269 364.883,293.547 356.734,293.547 356.708,293.547 "></polygon><polygon style="fill:#B2364B;" points="356.708,293.547 348.559,293.547 340.664,340.269 356.906,340.269 364.802,293.547 356.734,293.547 "></polygon><polygon style="fill:#C64757;" points="356.734,271.753 356.734,271.734 356.721,271.743 356.708,271.734 356.708,271.753 341.254,282.728 348.559,293.722 356.708,293.722 356.734,293.722 364.883,293.722 372.187,282.728 "></polygon><path style="fill:#B2364B;" d="M364.829,277.501l-8.095-5.749v-0.019l-0.013,0.009l-0.013-0.009v0.019l-15.453,10.975l7.305,10.994 h8.149h0.026h8.041l-6.27-9.437c-0.576-0.867-0.36-2.035,0.489-2.638L364.829,277.501z"></path><path style="fill:#75706B;" d="M154.772,99.371c-28.804,0-52.153,23.349-52.153,52.153v21.088c3.486-3.231,8.444-4.987,13.285-4.34 v-2.599c0-2.066,1.764-3.698,3.809-3.543c20.164,1.449,40.685-4.959,56.201-15.095c1.449-0.947,3.366-0.711,4.544,0.554 c13.265,14.258,13.185,13.707,13.185,15.568v5.103c5.306-0.795,10.012,0.844,13.282,3.885v-20.621 C206.925,122.72,183.576,99.371,154.772,99.371z"></path><path style="fill:#635E5A;" d="M119.019,151.524c0-26.013,19.046-47.572,43.953-51.506c-2.672-0.422-5.409-0.647-8.2-0.647 c-28.804,0-52.153,23.349-52.153,52.153v21.088c3.486-3.231,8.444-4.987,13.285-4.34v-2.599c0-1.827,1.381-3.31,3.115-3.522 C119.019,162.151,119.019,151.524,119.019,151.524z"></path><path style="fill:#FCC7A2;" d="M193.572,166.372v28.68c0,0.311-0.016,0.618-0.024,0.928c10.149,1.537,18.098-5.797,18.098-14.803 C211.647,172.153,203.691,164.855,193.572,166.372z"></path><path style="fill:#F7B284;" d="M206.949,170.309c-3.284-3.077-8.027-4.739-13.376-3.937v28.681c0,0.311-0.016,0.618-0.024,0.928 c5.365,0.812,10.113-0.855,13.4-3.936L206.949,170.309L206.949,170.309z"></path><path style="fill:#FCC7A2;" d="M116.02,195.088v-28.742c-8.858-1.183-18.121,5.616-18.121,14.832c0,9.017,7.951,16.383,18.144,14.84 C116.035,195.707,116.02,195.398,116.02,195.088z"></path><path style="fill:#F7B284;" d="M116.02,190.628c-2.124-2.598-3.365-5.894-3.365-9.451c0-3.437,1.289-6.537,3.365-9.013v-5.818 c-8.859-1.183-18.121,5.616-18.121,14.832c0,9.017,7.951,16.383,18.144,14.84c-0.007-0.31-0.023-0.619-0.023-0.93 C116.02,195.088,116.02,190.628,116.02,190.628z"></path><path style="fill:#FCC7A2;" d="M155.328,231.482c-8.426,0-15.83-2.313-21.886-6.183v21.366l21.793,26.899l21.792-26.899v-21.944 C170.853,228.98,163.378,231.482,155.328,231.482z"></path><path style="fill:#F7B284;" d="M149.658,231.115c-6.103-0.791-11.559-2.841-16.216-5.816v21.366l16.216,20.016V231.115z"></path><path style="fill:#E1F3F9;" d="M234.677,267.161l-57.651-22.327l-21.792,26.899l-21.793-26.899L75.85,267.161 c0,0-21.323,8.766-21.323,33.074v25.59c0,7.977,6.467,14.444,14.444,14.444H243.69c6.798,0,12.309-5.511,12.309-12.309v-27.725 C256,275.927,234.677,267.161,234.677,267.161z"></path><path style="fill:#CBE8EF;" d="M54.528,325.825c0,7.977,6.467,14.444,14.444,14.444h1.772c0-19.184,0-38.052,0-48.142 c0-14.413,7.496-23.361,13.599-28.258l-8.492,3.293c0,0-8.329,3.424-14.576,11.927c-0.312,0.425-0.62,0.863-0.92,1.314 c-3.307,4.958-5.827,11.477-5.827,19.833C54.528,300.236,54.528,325.825,54.528,325.825z"></path><path style="fill:#FCC7A2;" d="M180.458,145.758c-1.177-1.265-3.095-1.501-4.544-0.554c-15.516,10.136-36.037,16.543-56.201,15.095 c-2.045-0.155-3.809,1.477-3.809,3.543v31.157c0,20.025,15.69,38.314,39.424,38.314c21.127,0,38.315-17.188,38.315-38.314v-33.672 C193.642,159.465,193.722,160.016,180.458,145.758z"></path><path style="fill:#F7B284;" d="M132.146,194.999v-34.771c-4.129,0.33-8.288,0.369-12.433,0.072 c-2.045-0.155-3.809,1.477-3.809,3.543V195c0,20.025,15.69,38.314,39.424,38.314c2.59,0,5.12-0.261,7.567-0.754 C145.38,229.036,132.146,213.535,132.146,194.999z"></path><g><path style="fill:#CBE8EF;" d="M181.547,285.556l16.296-32.66l-20.816-8.062l-21.792,26.899l21.247,15.09 C178.2,288.045,180.604,287.443,181.547,285.556z"></path><path style="fill:#CBE8EF;" d="M128.951,285.556l-16.296-32.66l20.816-8.062l21.792,26.899l-21.247,15.09 C132.297,288.045,129.893,287.443,128.951,285.556z"></path></g><polygon style="fill:#C64757;" points="147.087,293.547 139.192,340.269 171.306,340.269 163.411,293.547 155.262,293.547 155.236,293.547 "></polygon><polygon style="fill:#B2364B;" points="155.236,293.547 147.087,293.547 139.192,340.269 155.434,340.269 163.33,293.547 155.262,293.547 "></polygon><polygon style="fill:#C64757;" points="155.262,271.753 155.262,271.734 155.249,271.743 155.236,271.734 155.236,271.753 139.782,282.728 147.087,293.722 155.236,293.722 155.262,293.722 163.411,293.722 170.715,282.728 "></polygon><path style="fill:#B2364B;" d="M163.357,277.501l-8.095-5.749v-0.019l-0.013,0.009l-0.013-0.009v0.019l-15.453,10.975l7.305,10.994 h8.149h0.026h8.041l-6.27-9.437c-0.576-0.867-0.36-2.035,0.489-2.638L163.357,277.501z"></path><g><path style="fill:#CBE8EF;" d="M300.018,340.269V308.59c0-4.268-3.459-7.727-7.727-7.727c-4.267,0-7.727,3.459-7.727,7.727v31.679 L300.018,340.269L300.018,340.269z"></path><path style="fill:#CBE8EF;" d="M428.909,340.269V308.59c0-4.268-3.459-7.727-7.727-7.727s-7.727,3.459-7.727,7.727v31.679 L428.909,340.269L428.909,340.269z"></path><path style="fill:#CBE8EF;" d="M98.546,340.269V308.59c0-4.268-3.459-7.727-7.727-7.727c-4.267,0-7.727,3.459-7.727,7.727v31.679 L98.546,340.269L98.546,340.269z"></path><path style="fill:#CBE8EF;" d="M227.437,340.269V308.59c0-4.268-3.459-7.727-7.727-7.727c-4.267,0-7.727,3.459-7.727,7.727v31.679 L227.437,340.269L227.437,340.269z"></path></g><path style="fill:#EADCD6;" d="M468.207,397.35c-53.411-1.771-61.197-23.36-115.626-31.801 c-56.776-8.805-96.665,31.917-96.665,31.917l0.178,28.982H475.38v-21.725C475.38,400.729,472.199,397.482,468.207,397.35z"></path><path style="fill:#DDCDC7;" d="M346.771,364.817c-53.667-5.306-90.854,32.649-90.854,32.649l0.178,28.982H276.7V403.28 c0-3.872,1.699-7.544,4.656-10.044C290.927,385.142,314.64,367.983,346.771,364.817z"></path><path style="fill:#EADCD6;" d="M160.448,365.549c-54.33,8.425-62.186,29.952-115.335,31.791c-4.168,0.144-7.464,3.588-7.464,7.758 v21.349h219.285l0.178-28.982C257.113,397.466,217.225,356.745,160.448,365.549z"></path><path style="fill:#DDCDC7;" d="M58.255,404.268c0-3.592,1.932-6.755,4.826-8.474c-5.402,0.78-11.331,1.316-17.967,1.546 c-4.168,0.144-7.464,3.588-7.464,7.758v21.349h20.605V404.268z"></path><path style="fill:#BA7052;" d="M502.434,425.418H9.566c-5.283,0-9.566,4.283-9.566,9.566v17.62c0,5.283,4.283,9.566,9.566,9.566 h217.453c2.753,0,5.052,1.985,5.592,4.684c2.175,10.883,11.783,19.083,23.306,19.083c11.759,0,21.524-8.539,23.431-19.755 c0.395-2.324,2.426-4.013,4.784-4.013h218.302c5.283,0,9.566-4.283,9.566-9.566v-17.62C512,429.701,507.717,425.418,502.434,425.418 z"></path><path style="fill:#AD644B;" d="M502.434,441.565H284.131c-2.357,0-4.388,1.689-4.784,4.013 c-1.907,11.216-11.671,19.755-23.431,19.755c-11.523,0-21.131-8.2-23.306-19.083c-0.54-2.7-2.839-4.684-5.592-4.684H9.566 c-4.774,0-8.72-3.501-9.438-8.074C0.051,433.979,0,434.475,0,434.984v17.62c0,5.283,4.283,9.566,9.566,9.566h217.453 c2.753,0,5.052,1.985,5.592,4.685c2.175,10.883,11.783,19.083,23.306,19.083c11.759,0,21.524-8.539,23.431-19.755 c0.395-2.324,2.426-4.013,4.784-4.013h218.302c5.284,0,9.566-4.283,9.566-9.566v-17.62c0-0.509-0.051-1.005-0.128-1.492 C511.154,438.064,507.208,441.565,502.434,441.565z"></path></svg>