<!-- icon666.com - MILLIONS OF FREE VECTOR ICONS --><svg id="Capa_1" enable-background="new 0 0 512 512" viewBox="0 0 512 512" xmlns="http://www.w3.org/2000/svg"><g><g><g><path d="m461.42 130.333-.131.131c-2.012 2.012-5.273 2.012-7.284 0l-.131-.131c-11.571-11.571-30.331-11.571-41.901 0-11.571 11.571-11.571 30.331 0 41.901l40.378 40.378c2.925 2.925 7.668 2.925 10.593 0l40.379-40.379c11.571-11.571 11.571-30.331 0-41.901-11.572-11.57-30.332-11.57-41.903.001z" fill="#fb4a59"></path><path d="m503.325 172.233-40.381 40.381c-2.929 2.921-7.67 2.921-10.591 0l-13.011-13.011c2.382 2.382 6.24 2.382 8.614 0l35.505-35.505c9.415-9.408 9.415-24.674 0-34.082-3.311-3.318-7.356-5.468-11.61-6.442 3.378-1.274 6.951-1.918 10.524-1.918 7.581 0 15.161 2.891 20.951 8.674 11.564 11.574 11.564 30.33-.001 41.903z" fill="#f82f40"></path></g><g><path d="m58.127 130.333-.131.131c-2.012 2.012-5.273 2.012-7.284 0l-.131-.131c-11.571-11.571-30.331-11.571-41.901 0-11.571 11.571-11.571 30.331 0 41.901l40.378 40.378c2.925 2.925 7.668 2.925 10.593 0l40.379-40.379c11.571-11.571 11.571-30.331 0-41.901-11.573-11.57-30.332-11.57-41.903.001z" fill="#fb4a59"></path><path d="m100.031 172.233-40.381 40.381c-2.929 2.921-7.67 2.921-10.591 0l-13.011-13.011c2.382 2.382 6.24 2.382 8.614 0l35.505-35.505c9.415-9.408 9.415-24.674 0-34.082-3.311-3.318-7.356-5.468-11.61-6.442 3.378-1.274 6.951-1.918 10.524-1.918 7.58 0 15.161 2.891 20.951 8.674 11.564 11.574 11.564 30.33-.001 41.903z" fill="#f82f40"></path></g></g><g><g><g><circle cx="255.998" cy="256" fill="#68dbf9" r="239.231"></circle><g fill="#24d1f8"><path d="m260.93 279.719-4.93 4.93-4.93-4.93c-15.116-15.116-39.625-15.116-54.741 0-15.116 15.116-15.116 39.625 0 54.741l52.752 52.752c3.822 3.822 10.018 3.822 13.839 0l52.752-52.752c15.117-15.117 15.116-39.625 0-54.741-15.117-15.117-39.625-15.117-54.742 0z"></path><path d="m406.574 228.115-3.774 3.774-3.774-3.774c-11.571-11.571-30.331-11.571-41.901 0-11.571 11.571-11.571 30.331 0 41.901l40.378 40.378c2.925 2.925 7.668 2.925 10.593 0l40.379-40.379c11.571-11.571 11.571-30.331 0-41.901-11.571-11.57-30.33-11.57-41.901.001z"></path><path d="m112.973 228.115-3.774 3.774-3.774-3.774c-11.571-11.571-30.331-11.571-41.901 0-11.571 11.571-11.571 30.331 0 41.901l40.378 40.378c2.925 2.925 7.668 2.925 10.593 0l40.379-40.379c11.571-11.571 11.571-30.331 0-41.901-11.57-11.57-30.33-11.57-41.901.001z"></path><path d="m495.233 256.005c0 132.117-107.109 239.226-239.236 239.226-8.619 0-17.135-.456-25.516-1.347 120.131-12.742 213.71-114.381 213.71-237.879 0-123.508-93.579-225.147-213.71-237.89 8.381-.891 16.897-1.347 25.516-1.347 132.127.001 239.236 107.11 239.236 239.237z"></path></g></g></g><path d="m495.095 263.726c.093-2.565.134-5.141.134-7.726 0-2.586-.041-5.161-.134-7.726h-100.051c-.546-36.633-5.192-71.979-13.516-104.162h85.979c-2.802-5.275-5.779-10.425-8.952-15.453h-81.385c-5.821-19.038-13.001-36.777-21.438-52.786-11.219-21.253-24.117-38.426-38.189-51.107-13.289-3.534-27.032-5.944-41.125-7.129 24.467 8.066 47.265 30.607 65.643 65.447 7.335 13.897 13.66 29.195 18.924 45.575h-97.259v-111.754c-2.565-.093-5.141-.134-7.726-.134-2.586 0-5.161.041-7.726.134v111.754h-97.27c5.275-16.38 11.6-31.678 18.924-45.575 18.389-34.841 41.176-57.381 65.653-65.447-14.093 1.185-27.836 3.595-41.125 7.129-14.072 12.682-26.97 29.855-38.189 51.107-8.447 16.009-15.618 33.749-21.438 52.786h-81.383c-3.173 5.027-6.15 10.178-8.952 15.453h85.979c-8.334 32.183-12.98 67.528-13.516 104.162h-100.052c-.093 2.565-.134 5.141-.134 7.726 0 2.586.041 5.161.134 7.726h100.061c.618 36.654 5.326 71.999 13.732 104.162h-86.204c2.802 5.275 5.779 10.425 8.952 15.453h81.652c5.779 18.708 12.857 36.149 21.17 51.901 11.59 21.953 24.972 39.549 39.59 52.364 14.103 3.657 28.721 6.047 43.721 7.067-25.991-6.861-50.263-29.916-69.651-66.642-7.191-13.64-13.423-28.639-18.636-44.689h96.981v111.754c2.565.093 5.141.134 7.726.134 2.586 0 5.161-.041 7.726-.134v-111.755h96.971c-5.213 16.05-11.435 31.05-18.636 44.689-19.378 36.726-43.659 59.781-69.64 66.642 14.999-1.02 29.618-3.41 43.721-7.067 14.618-12.815 28-30.411 39.59-52.364 8.314-15.751 15.391-33.192 21.17-51.901h81.652c3.173-5.027 6.15-10.178 8.952-15.453h-86.206c8.396-32.162 13.114-67.508 13.722-104.162h100.074zm-246.821 104.162h-101.597c-8.715-31.894-13.619-67.302-14.247-104.162h115.844zm0-119.614h-115.865c.556-36.839 5.388-72.247 14.031-104.162h101.833v104.162zm117.039 119.614h-101.587v-104.162h115.844c-.628 36.86-5.532 72.268-14.257 104.162zm-101.587-119.614v-104.162h101.834c8.643 31.915 13.464 67.322 14.031 104.162z" fill="#07c1e0"></path></g><g><path d="m260.93 241.619-1.288 1.288c-2.012 2.012-5.273 2.012-7.284 0l-1.288-1.288c-15.116-15.116-39.625-15.116-54.741 0-15.116 15.116-15.116 39.625 0 54.741l52.752 52.752c3.822 3.822 10.018 3.822 13.839 0l52.752-52.752c15.117-15.117 15.116-39.625 0-54.741-15.117-15.117-39.625-15.117-54.742 0z" fill="#fb4a59"></path><path d="m315.675 296.358-52.755 52.755c-3.826 3.816-10.021 3.816-13.837 0l-16.998-16.998c3.112 3.112 8.152 3.112 11.254 0l46.385-46.385c12.301-12.291 12.301-32.234 0-44.525-4.326-4.335-9.61-7.144-15.168-8.416 4.413-1.664 9.081-2.505 13.749-2.505 9.903 0 19.807 3.777 27.371 11.332 15.108 15.119 15.108 39.623-.001 54.742z" fill="#f82f40"></path></g><g><g><path d="m406.574 190.015-.131.131c-2.012 2.012-5.273 2.012-7.284 0l-.131-.131c-11.571-11.571-30.331-11.571-41.901 0-11.571 11.571-11.571 30.331 0 41.901l40.378 40.378c2.925 2.925 7.668 2.925 10.593 0l40.379-40.379c11.571-11.571 11.571-30.331 0-41.901-11.573-11.57-30.332-11.57-41.903.001z" fill="#fb4a59"></path><path d="m448.478 231.915-40.381 40.381c-2.929 2.921-7.67 2.921-10.592 0l-13.011-13.011c2.382 2.382 6.24 2.382 8.614 0l35.505-35.505c9.415-9.408 9.415-24.674 0-34.082-3.311-3.318-7.356-5.468-11.61-6.442 3.378-1.274 6.951-1.918 10.524-1.918 7.58 0 15.161 2.891 20.951 8.674 11.565 11.574 11.565 30.33 0 41.903z" fill="#f82f40"></path></g><g><path d="m112.973 190.015-.131.131c-2.012 2.012-5.273 2.012-7.284 0l-.131-.131c-11.571-11.571-30.331-11.571-41.901 0-11.571 11.571-11.571 30.331 0 41.901l40.378 40.378c2.925 2.925 7.668 2.925 10.593 0l40.379-40.379c11.571-11.571 11.571-30.331 0-41.901-11.572-11.57-30.332-11.57-41.903.001z" fill="#fb4a59"></path><path d="m154.878 231.915-40.381 40.381c-2.929 2.921-7.67 2.921-10.591 0l-13.011-13.011c2.382 2.382 6.24 2.382 8.614 0l35.505-35.505c9.415-9.408 9.415-24.674 0-34.082-3.311-3.318-7.356-5.468-11.61-6.442 3.378-1.274 6.951-1.918 10.524-1.918 7.58 0 15.161 2.891 20.951 8.674 11.564 11.574 11.564 30.33-.001 41.903z" fill="#f82f40"></path></g></g></g></svg>