<!-- icon666.com - MILLIONS OF FREE VECTOR ICONS --><svg id="Layer_1" viewBox="0 0 256 256" xmlns="http://www.w3.org/2000/svg"><g><g><g><path d="m191.031 42.355c-20.339 13.312-29.152 35.83-29.152 35.83s24.163.936 44.502-12.376c18.057-11.818 27.029-30.892 28.815-35.024.198-.459-.037-.818-.537-.82-4.501-.017-25.572.572-43.628 12.39z" fill="#76a34f"></path></g></g><g><g><path d="m234.66 29.965c-1.181-.004-3.509.035-6.616.306-3.888 7.474-12.466 21.247-26.663 30.538-13.318 8.716-28.273 11.323-37.013 12.085-1.68 3.231-2.49 5.291-2.49 5.291s24.163.936 44.502-12.376c18.057-11.818 27.029-30.892 28.815-35.024.2-.459-.035-.818-.535-.82z" fill="#648940"></path></g></g><g><g><g><path d="m86.017 176.476c-22.484 9.238-35.385 29.691-35.385 29.691s23.553 5.475 46.038-3.763c19.961-8.201 32.369-25.241 34.902-28.963.281-.413.118-.81-.372-.906-4.418-.866-25.222-4.261-45.183 3.941z" fill="#76a34f"></path></g></g><g><g><path d="m75.596 191.092c-.627 0-1.244-.293-1.633-.844-.639-.9-.426-2.149.475-2.788 4.234-3.001 8.641-5.452 13.1-7.284 1.696-.697 3.473-1.334 5.28-1.894 1.058-.33 2.175.263 2.502 1.318.327 1.056-.264 2.176-1.319 2.502-1.694.525-3.357 1.121-4.944 1.772-4.179 1.718-8.32 4.021-12.307 6.849-.351.25-.754.369-1.154.369zm25.58-10.782c-.949 0-1.792-.678-1.966-1.645-.196-1.087.526-2.128 1.613-2.323l.783-.139c1.087-.188 2.123.545 2.309 1.634s-.544 2.122-1.633 2.31l-.749.131c-.119.022-.239.032-.357.032z" fill="#91b56b"></path></g></g><g><g><path d="m131.2 172.534c-2.108-.413-7.952-1.399-15.651-1.429-5.938 6.732-15.783 15.917-28.879 21.298-10.434 4.287-21.094 5.403-29.528 5.371-4.254 4.824-6.509 8.392-6.509 8.392s23.553 5.475 46.038-3.763c19.961-8.201 32.369-25.241 34.902-28.963.28-.413.117-.81-.373-.906z" fill="#648940"></path></g></g><g><g><path d="m131.2 172.534c-1.201-.235-3.619-.656-6.895-.982-4.902 6.372-16.208 19.101-32.635 25.851-14.536 5.972-29.51 5.794-38.287 4.923-1.807 2.348-2.751 3.84-2.751 3.84s23.553 5.475 46.038-3.763c19.961-8.201 32.369-25.241 34.902-28.963.281-.413.118-.81-.372-.906z" fill="#5a7a39"></path></g></g></g><g><g><g><path d="m130.385 125.861c-23.324 6.847-38.284 25.845-38.284 25.845s22.855 7.898 46.179 1.051c20.706-6.078 34.821-21.734 37.728-25.171.323-.382.202-.794-.276-.94-4.303-1.321-24.64-6.864-45.347-.785z" fill="#76a34f"></path></g></g><g><g><path d="m175.733 126.645c-1.178-.362-3.564-1.039-6.824-1.708-5.27 5.642-18.081 17.669-35.628 22.82-15.04 4.415-29.875 2.699-38.523.923-1.736 1.858-2.656 3.026-2.656 3.026s22.855 7.898 46.179 1.051c20.706-6.078 34.821-21.734 37.728-25.171.323-.382.202-.794-.276-.941z" fill="#648940"></path></g></g></g><g><g><g><path d="m46.124 133.948c-3.295 24.084 7.921 45.507 7.921 45.507s16.557-17.624 19.851-41.708c2.925-21.381-5.586-40.665-7.533-44.724-.216-.451-.641-.509-.971-.133-2.966 3.387-16.343 19.677-19.268 41.058z" fill="#76a34f"></path></g></g><g><g><path d="m66.363 93.023c-.216-.451-.641-.509-.971-.133-.327.373-.786.912-1.337 1.587 3.047 8.281 6.969 22.717 4.841 38.27-2.603 19.025-13.475 34.011-17.93 39.47 1.671 4.541 3.079 7.238 3.079 7.238s16.557-17.624 19.851-41.708c2.925-21.381-5.586-40.665-7.533-44.724z" fill="#648940"></path></g></g></g><g><g><g><path d="m95.774 80.114c-5.875 23.587 2.962 46.096 2.962 46.096s18.363-15.734 24.238-39.321c5.216-20.94-1.164-41.03-2.662-45.276-.166-.472-.583-.575-.951-.237-3.313 3.048-18.371 17.798-23.587 38.738z" fill="#76a34f"></path></g></g><g><g><path d="m120.312 41.613c-.166-.472-.583-.575-.951-.237-.469.431-1.18 1.105-2.058 1.99 2.132 8.568 4.458 23.319.671 38.523-4.478 17.977-16.201 31.383-21.529 36.748 1.175 4.722 2.291 7.574 2.291 7.574s18.363-15.734 24.238-39.321c5.216-20.941-1.164-41.031-2.662-45.277z" fill="#648940"></path></g></g></g><g><g><g><path d="m142.648 41.412c-8.553 22.753-2.368 46.13-2.368 46.13s20.053-13.514 28.606-36.267c7.593-20.2 3.571-40.891 2.572-45.281-.111-.488-.513-.639-.917-.345-3.643 2.646-20.3 15.563-27.893 35.763z" fill="#76a34f"></path></g></g><g><g><path d="m171.458 5.994c-.111-.488-.513-.638-.917-.345-.62.45-1.624 1.205-2.889 2.236 1.134 8.75 1.758 23.697-3.766 38.39-6.301 16.763-18.836 28.502-25.004 33.526.622 4.799 1.397 7.741 1.397 7.741s20.053-13.514 28.606-36.267c7.595-20.199 3.572-40.891 2.573-45.281z" fill="#648940"></path></g></g></g><path d="m190.074 57.347c-.639-.901-1.889-1.112-2.788-.474-17.413 12.361-33.04 24.605-47.073 36.532l11.841-31.498c.389-1.034-.135-2.188-1.168-2.576-1.035-.387-2.188.134-2.576 1.168l-14.37 38.304c-12.86 11.224-24.293 22.132-34.421 32.544l7.96-31.958c.267-1.072-.386-2.157-1.458-2.424-1.071-.272-2.157.386-2.424 1.457l-9.575 38.668c-16.219 17.181-28.841 32.869-38.487 46.229l4.305-31.472c.15-1.095-.616-2.104-1.71-2.253-1.096-.151-2.103.616-2.252 1.71l-5.349 39.096c-.001.006 0 .011-.001.016-.071.103-.146.209-.216.312-24.285 35.4-31.213 58.248-31.496 59.203-.314 1.06.29 2.172 1.349 2.486.19.056.381.083.569.083.863 0 1.659-.563 1.917-1.433.055-.184 4.563-15.035 18.722-38.936l36.552-15.018c1.021-.42 1.509-1.588 1.09-2.609-.42-1.021-1.587-1.512-2.61-1.09l-31.536 12.957c2.627-4.23 5.526-8.694 8.742-13.381 7.163-10.441 16.37-22.663 27.972-36.146.073-.013.146-.01.219-.032l37.003-10.862c1.06-.312 1.667-1.423 1.355-2.482-.311-1.06-1.421-1.669-2.482-1.355l-31.234 9.169c10.903-12.284 23.742-25.511 38.802-39.337 2.563-.729 26.034-7.158 42.592-3.688 1.086.224 2.142-.468 2.368-1.548.226-1.082-.467-2.142-1.548-2.368-12.434-2.601-27.989-.088-37.124 1.918 16.698-14.9 35.937-30.416 58.066-46.125.902-.639 1.114-1.887.474-2.787z" fill="#5a7a39"></path><g><g><g><ellipse cx="177.472" cy="104.091" fill="#58595b" rx="24.559" ry="17.468" transform="matrix(.998 -.058 .058 .998 -5.739 10.47)"></ellipse></g></g><g><g><path d="m194.111 90.765c1.702 2.207 2.733 4.736 2.891 7.462.56 9.631-9.963 18.077-23.504 18.864-6.78.394-13.03-1.207-17.652-4.113 4.31 5.59 12.932 9.117 22.64 8.553 13.54-.787 24.064-9.232 23.504-18.864-.28-4.81-3.27-9.005-7.879-11.902z" fill="#414042"></path></g></g><g><g><circle cx="192.898" cy="103.194" fill="#808285" r="6.126"></circle></g></g></g></g></svg>